<svg xmlns="http://www.w3.org/2000/svg" width="12" height="7" viewBox="0 0 12 7" fill="none">
    <path d="M11.554 1.35354L6.55398 6.35354C6.50754 6.40003 6.4524 6.43691 6.3917 6.46207C6.331 6.48723 6.26594 6.50018 6.20023 6.50018C6.13452 6.50018 6.06946 6.48723 6.00876 6.46207C5.94806 6.43691 5.89292 6.40003 5.84648 6.35354L0.846479 1.35354C0.752659 1.25972 0.699951 1.13247 0.699951 0.99979C0.699951 0.867108 0.752659 0.73986 0.846479 0.646039C0.9403 0.552219 1.06755 0.499512 1.20023 0.499512C1.33291 0.499512 1.46016 0.552219 1.55398 0.646039L6.20023 5.29291L10.8465 0.646039C10.8929 0.599584 10.9481 0.562734 11.0088 0.537593C11.0695 0.512452 11.1345 0.499512 11.2002 0.499512C11.2659 0.499512 11.331 0.512452 11.3917 0.537593C11.4524 0.562734 11.5075 0.599584 11.554 0.646039C11.6004 0.692495 11.6373 0.747645 11.6624 0.808341C11.6876 0.869038 11.7005 0.934092 11.7005 0.99979C11.7005 1.06549 11.6876 1.13054 11.6624 1.19124C11.6373 1.25193 11.6004 1.30708 11.554 1.35354Z" fill="rgba(255, 255, 255, 0.8)"/>
    </svg>