<svg width="222" height="27" viewBox="0 0 222 27" fill="none" xmlns="http://www.w3.org/2000/svg">
<path d="M0 25.9708L8.71838 0.512718H12.1469L20.868 25.9708H18.1758L16.0504 19.8008H4.81766L2.68941 25.9708H0ZM5.64281 17.361H15.2058L10.4076 3.42978L5.64281 17.361ZM25.7996 25.9708V6.87716H28.1195V9.90039C28.5418 9.158 29.0336 8.56872 29.5976 8.13256C30.3478 7.48432 31.2479 7.05989 32.3037 6.85956C33.3595 6.65922 34.3013 6.66509 35.1348 6.87716V9.31699C34.4319 9.14012 33.6679 9.09905 32.8482 9.19321C32.0398 9.28765 31.2896 9.61763 30.5978 10.1832C29.6504 10.9376 29.0392 11.8865 28.7697 13.0295C28.5113 14.1611 28.3834 15.2984 28.3834 16.4417V25.9708H25.7996ZM47.7595 26.5011C45.8481 26.5011 44.2311 26.0711 42.9058 25.2105C41.5944 24.3502 40.5914 23.1658 39.8996 21.6569C39.2106 20.1366 38.8522 18.3923 38.8272 16.4241C38.8522 14.4204 39.2162 12.6643 39.9191 11.1555C40.622 9.63523 41.6361 8.45668 42.9586 7.61984C44.2838 6.77126 45.8897 6.34684 47.7762 6.34684C49.6988 6.34684 51.3686 6.81849 52.7856 7.76122C54.2164 8.70424 55.1944 9.99484 55.7223 11.633L53.1912 12.4461C52.7467 11.303 52.0354 10.419 51.063 9.79422C50.1017 9.158 49.0015 8.83975 47.7595 8.83975C45.6619 8.83975 44.1088 9.54694 43.1003 10.961C42.1029 12.3754 41.5944 14.1964 41.5722 16.4241C41.5944 18.7105 42.1224 20.5491 43.1531 21.94C44.1839 23.3189 45.7203 24.0085 47.7595 24.0085C50.3601 24.0085 52.1466 22.8416 53.1217 20.508L55.7223 21.2859C55.0083 22.983 53.9691 24.2795 52.6105 25.1753C51.263 26.0591 49.646 26.5011 47.7595 26.5011ZM61.09 25.9708V0.512718H63.4294V9.52906C64.1323 8.5039 65.0297 7.72601 66.1188 7.19541C67.2218 6.66508 68.4498 6.39993 69.8112 6.39993C71.2393 6.39993 72.4423 6.67096 73.4147 7.2133C74.3871 7.74362 75.165 8.45081 75.7513 9.33459C76.3375 10.2069 76.7598 11.1793 77.0182 12.2516C77.2877 13.3243 77.4211 14.3967 77.4211 15.4693V25.9708H74.8206V16.2296C74.8206 14.827 74.64 13.5719 74.276 12.464C73.9121 11.3561 73.3258 10.4838 72.5173 9.84731C71.7088 9.19908 70.6419 8.87496 69.3195 8.87496C67.4913 8.87496 66.0966 9.48798 65.1353 10.7138C64.174 11.9395 63.6933 13.6308 63.6933 15.7876V25.9708H61.09ZM84.0946 25.9708V6.87716H86.6785V25.9708H84.0946ZM85.3782 3.58904C84.8726 3.58904 84.4447 3.41805 84.0946 3.07633C83.7529 2.72259 83.5835 2.29844 83.5835 1.80333C83.5835 1.29647 83.7529 0.872324 84.0946 0.530604C84.4447 0.176868 84.8726 0 85.3782 0C85.8922 0 86.3201 0.176868 86.659 0.530604C87.0119 0.872324 87.1869 1.29647 87.1869 1.80333C87.1869 2.29844 87.0119 2.72259 86.659 3.07633C86.3201 3.41805 85.8922 3.58904 85.3782 3.58904ZM104.043 25.9708C102.976 26.1946 101.92 26.2831 100.879 26.2359C99.8478 26.1887 98.9226 25.9649 98.1003 25.5642C97.2918 25.1635 96.6777 24.5388 96.2554 23.6902C95.9164 22.9948 95.7275 22.2817 95.6914 21.551C95.6692 20.8204 95.6581 19.9894 95.6581 19.0581V9.10491H91.5961V6.87716H95.6581V1.57364H98.2253V6.87716H104.043V9.10491H98.2253V18.9522C98.2253 19.7536 98.2308 20.4253 98.2419 20.9676C98.2641 21.4979 98.3892 21.9693 98.6114 22.382C99.0337 23.1716 99.7005 23.643 100.615 23.7961C101.54 23.9495 102.684 23.914 104.043 23.6902V25.9708ZM116.887 26.5011C115.037 26.5011 113.431 26.0887 112.072 25.2636C110.711 24.4385 109.658 23.2775 108.908 21.7807C108.169 20.2839 107.799 18.5278 107.799 16.5124C107.799 14.4263 108.169 12.623 108.908 11.1027C109.644 9.58214 110.683 8.40946 112.02 7.58436C113.367 6.75953 114.954 6.34684 116.782 6.34684C119.596 6.34684 121.774 7.30745 123.322 9.22869C124.881 11.1379 125.614 13.7781 125.52 17.1489H110.558C110.664 19.3412 111.256 21.0324 112.336 22.2227C113.414 23.4133 114.895 24.0085 116.782 24.0085C119.549 24.0085 121.535 22.7827 122.741 20.3311L125.15 21.268C124.4 22.9299 123.294 24.2205 121.827 25.1398C120.374 26.0473 118.729 26.5011 116.887 26.5011ZM116.854 8.73357C115.026 8.73357 113.578 9.27563 112.511 10.36C111.445 11.4327 110.811 12.9706 110.611 14.9742H122.814C122.402 10.8138 120.416 8.73357 116.854 8.73357ZM139.056 26.5011C137.144 26.5011 135.527 26.0711 134.202 25.2105C132.891 24.3502 131.888 23.1658 131.196 21.6569C130.504 20.1366 130.148 18.3923 130.123 16.4241C130.148 14.4204 130.51 12.6643 131.215 11.1555C131.918 9.63523 132.932 8.45668 134.255 7.61984C135.58 6.77126 137.186 6.34684 139.072 6.34684C140.995 6.34684 142.665 6.81849 144.082 7.76122C145.513 8.70424 146.49 9.99484 147.018 11.633L144.487 12.4461C144.04 11.303 143.331 10.419 142.359 9.79422C141.398 9.158 140.298 8.83975 139.056 8.83975C136.955 8.83975 135.405 9.54694 134.396 10.961C133.399 12.3754 132.891 14.1964 132.866 16.4241C132.891 18.7105 133.418 20.5491 134.449 21.94C135.48 23.3189 137.016 24.0085 139.056 24.0085C141.656 24.0085 143.443 22.8416 144.415 20.508L147.018 21.2859C146.302 22.983 145.265 24.2795 143.907 25.1753C142.559 26.0591 140.942 26.5011 139.056 26.5011ZM162.741 25.9708C161.674 26.1946 160.621 26.2831 159.576 26.2359C158.546 26.1887 157.62 25.9649 156.798 25.5642C155.99 25.1635 155.376 24.5388 154.953 23.6902C154.614 22.9948 154.425 22.2817 154.392 21.551C154.367 20.8204 154.356 19.9894 154.356 19.0581V9.10491H150.294V6.87716H154.356V1.57364H156.923V6.87716H162.741V9.10491H156.923V18.9522C156.923 19.7536 156.929 20.4253 156.94 20.9676C156.962 21.4979 157.087 21.9693 157.309 22.382C157.732 23.1716 158.398 23.643 159.312 23.7961C160.238 23.9495 161.382 23.914 162.741 23.6902V25.9708ZM175.499 26.448C174.071 26.448 172.868 26.1828 171.896 25.6525C170.923 25.1105 170.145 24.4033 169.559 23.5309C168.973 22.6472 168.545 21.6689 168.275 20.5963C168.017 19.5239 167.889 18.4512 167.889 17.3786V6.87716H170.49V16.6186C170.49 18.0209 170.67 19.2763 171.034 20.3842C171.398 21.4921 171.984 22.37 172.793 23.0182C173.601 23.6547 174.668 23.973 175.991 23.973C177.819 23.973 179.214 23.3602 180.175 22.1344C181.136 20.9087 181.617 19.2174 181.617 17.0606V6.87716H184.201V25.9708H181.881V23.3189C181.178 24.3443 180.275 25.1222 179.175 25.6525C178.083 26.1828 176.86 26.448 175.499 26.448ZM190.872 25.9708V6.87716H193.194V9.90039C193.614 9.158 194.108 8.56872 194.67 8.13256C195.42 7.48432 196.323 7.05989 197.378 6.85956C198.431 6.65922 199.376 6.66509 200.207 6.87716V9.31699C199.504 9.14012 198.743 9.09905 197.923 9.19321C197.115 9.28765 196.364 9.61763 195.673 10.1832C194.722 10.9376 194.114 11.8865 193.844 13.0295C193.586 14.1611 193.458 15.2984 193.458 16.4417V25.9708H190.872ZM212.99 26.5011C211.14 26.5011 209.534 26.0887 208.175 25.2636C206.814 24.4385 205.761 23.2775 205.011 21.7807C204.271 20.2839 203.902 18.5278 203.902 16.5124C203.902 14.4263 204.271 12.623 205.011 11.1027C205.747 9.58214 206.786 8.40946 208.122 7.58436C209.47 6.75953 211.056 6.34684 212.884 6.34684C215.699 6.34684 217.877 7.30745 219.425 9.22869C220.983 11.1379 221.717 13.7781 221.622 17.1489H206.661C206.766 19.3412 207.358 21.0324 208.436 22.2227C209.517 23.4133 210.998 24.0085 212.884 24.0085C215.652 24.0085 217.638 22.7827 218.844 20.3311L221.253 21.268C220.503 22.9299 219.394 24.2205 217.93 25.1398C216.477 26.0473 214.829 26.5011 212.99 26.5011ZM212.957 8.73357C211.128 8.73357 209.681 9.27563 208.614 10.36C207.547 11.4327 206.914 12.9706 206.714 14.9742H218.916C218.505 10.8138 216.518 8.73357 212.957 8.73357Z" fill="white"/>
</svg>
