<svg width="53" height="52" viewBox="0 0 53 52" fill="none" xmlns="http://www.w3.org/2000/svg">
<path fill-rule="evenodd" clip-rule="evenodd" d="M53 18.4C52.9 18.5 52.2 18.6 52.1 18.7C52 18.8 51.9 18.8 51.7 18.9C51.5 19 51.3 19.1 51.2 19.2C51 19.3 50.9 19.4 50.7 19.5C50.5 19.6 50.4 19.6 50.2 19.7C50.2 19.7 50.2 19.7 50.1 19.7C49.8 19.8 49.6 19.9 49.3 20C49.3 20 49.2 20 49.2 20.1C49.1 20.1 49.2 20.2 49.2 20.2C49.3 20.2 49.3 20.2 49.3 20.3C49.3 20.4 49.2 20.4 49.1 20.4C49.1 20.4 49.1 20.4 49 20.4C48.8 20.5 48.7 20.5 48.5 20.6C48.2 20.7 48 20.8 47.7 21C47.6 21 47.7 21.1 47.7 21.1C47.8 21.1 47.8 21.1 47.8 21.1C47.9 21.1 47.9 21.2 47.9 21.2C47.9 21.2 47.9 21.2 47.8 21.2C47.8 21.2 47.7 21.2 47.7 21.3C47.7 21.3 47.7 21.4 47.8 21.4C47.9 21.4 48 21.4 48.2 21.4H48.3C48.6 21.4 48.9 21.3 49.2 21.2C49.3 21.2 49.4 21.1 49.6 21.1C49.6 21.1 49.6 21.1 49.7 21.1C49.8 21.1 49.8 21.1 49.9 21H50C50.1 21 50.1 21 50.2 20.9C50.3 20.9 50.4 20.8 50.5 20.8H50.6C50.8 20.7 50.9 20.9 50.7 21C50.7 21 50.6 21 50.6 21.1C50.6 21.1 50.5 21.1 50.5 21.2L50.4 21.3C50.2 21.4 50 21.5 49.8 21.5C49.7 21.5 49.6 21.6 49.5 21.6C49.2 21.7 48.9 21.8 48.6 21.9H48.5C48 21.9 47.9 22 47.7 22C47.6 22 47.5 22.1 47.4 22.2C47.3 22.3 47.2 22.4 47 22.5L46.9 22.6C46.8 22.7 46.7 22.7 46.5 22.7C46.3 22.7 46.1 22.8 45.9 22.9C45.7 23 45.5 23 45.2 23.1H45.1C45 23.1 44.9 23.2 44.9 23.2C44.7 23.3 44.6 23.1 44.7 23L44.8 22.9C44.9 22.8 44.8 22.7 44.7 22.7C44.3 22.8 43.8 22.9 43.5 23.2C43.4 23.3 43.2 23.4 43.1 23.4H43C42.8 23.5 42.6 23.6 42.3 23.6H42.2C42.2 23.6 42.1 23.6 42.1 23.5C42.1 23.5 42.1 23.5 42.1 23.4C42.1 23.3 42.1 23.2 42 23.2C41.9 23.2 41.8 23.3 41.7 23.3C41.5 23.4 41.2 23.4 41 23.4C40.9 23.4 40.8 23.4 40.7 23.4C40.4 23.4 40.2 23.4 39.9 23.4C39.5 23.4 39.2 23.4 38.9 23.5C38.8 23.5 38.8 23.6 38.7 23.6H38.4C38.2 23.6 38.1 23.7 37.9 23.7H37.8C37.2 23.7 37 23.8 36.9 23.7C36.8 23.7 36.8 23.7 36.7 23.6C36.6 23.6 36.6 23.5 36.6 23.5C36.6 23.4 36.7 23.3 36.7 23.3C36.8 23.3 36.8 23.3 36.9 23.3H37.1C37.2 23.3 37.3 23.3 37.3 23.3H37.5C37.5 23.3 37.5 23.3 37.5 23.2C37.5 23.1 37.5 23 37.4 23C37.3 23 37.2 23 37.1 23C37 23 37 23 36.9 23C36.8 23 36.7 23 36.6 23H36.4C36.3 23 36.2 23 36 23H35.9C35.8 23 35.8 23 35.8 23C35.8 23 35.8 23 35.7 23C35.6 23 35.5 23 35.4 23C35.3 23 35.3 23 35.2 23C35.1 23 35 23 34.9 23C34.1 22.9 33.4 22.8 32.8 22.2C32.7 22.1 32.7 22.1 32.7 22.1C32.7 22.1 32.7 22 32.6 22C32.5 22 32.3 21.9 32.2 21.8H32.1C31.8 21.6 31.6 21.5 31.3 21.2L31.2 21.1C31.1 21.1 31.1 21 31 21C31 21 31 20.9 30.9 20.9C30.8 20.8 30.7 20.6 30.6 20.5C30.6 20.4 30.5 20.4 30.5 20.4C30.5 20.3 30.4 20.3 30.4 20.2C30.3 20.2 30.3 20.1 30.3 20C30.3 19.5 30.3 19.1 30.4 18.6C30.4 18.4 30.4 18.2 30.4 18C30.4 18 30.4 17.9 30.3 17.9C30.3 17.9 30.2 17.9 30.2 18C30.2 18 30.2 18 30.1 18.1L29.8 18.4C29.7 18.5 29.6 18.5 29.6 18.5C29.6 18.5 29.6 18.5 29.6 18.6C29.6 18.6 29.6 18.6 29.5 18.7C29.4 18.8 29.2 18.9 29.1 19C29 19.1 28.9 19.2 28.7 19.2C28.5 19.3 28.4 19.4 28.3 19.5C28.2 19.6 28 19.7 27.9 19.8C28.1 19.7 28.3 19.6 28.5 19.5C28.7 19.4 28.8 19.3 29 19.3C29 19.3 29 19.3 29.1 19.3V19.4C28.9 19.6 28.6 19.8 28.4 20C28.3 20.1 28.3 20.1 28.2 20.2L28.1 20.3H28C27.9 20.4 27.9 20.4 27.8 20.4L27.7 20.5C27.7 20.6 27.6 20.6 27.5 20.7C27.3 20.8 27.2 21 27 21.1C26.9 21.2 26.7 21.3 26.5 21.4C26.5 21.4 26.5 21.4 26.5 21.5C26.3 21.7 26.1 21.8 25.8 21.8C25.5 21.8 25.3 21.9 25.1 22.1C25.1 22.1 25 22.1 25 22.2C25 22.2 25 22.2 24.9 22.2L24.8 22.3C24.7 22.4 24.6 22.5 24.5 22.5C24.5 22.5 24.5 22.5 24.4 22.5C24.4 22.5 24.3 22.4 24.4 22.4C24.4 22.3 24.4 22.2 24.3 22.3C24.3 22.3 24.2 22.3 24.1 22.4L24 22.5C23.9 22.5 23.9 22.6 23.9 22.6C23.9 22.6 23.9 22.6 23.8 22.7C23.7 22.8 23.6 22.8 23.5 22.9C23.4 23 23.2 23 23.1 23.1C22.8 23.3 22.4 23.5 22 23.7C21.9 23.7 21.9 23.7 21.8 23.8L21.7 23.9H21.4C21.3 23.9 21.3 23.8 21.3 23.8C21.4 23.7 21.5 23.6 21.6 23.5V23.4C21.6 23.4 21.5 23.4 21.6 23.3C21.6 23.2 21.7 23.1 21.8 23.1L22.1 22.8C22.2 22.7 22.3 22.7 22.4 22.6H22.5C22.7 22.5 22.9 22.3 23.2 22.2C23.4 22.1 23.5 22 23.7 21.9C23.8 21.8 23.9 21.8 24 21.7C24.2 21.6 24.2 21.5 24.3 21.5C24.4 21.4 24.4 21.4 24.5 21.2C24.5 21.2 24.5 21.1 24.6 21.1H24.7C25 21 25.3 20.9 25.5 20.7C25.7 20.5 25.9 20.4 26.2 20.3C26.3 20.3 26.3 20.2 26.4 20.2C26.5 20.1 26.6 20.1 26.7 20C26.8 19.9 26.9 19.9 27 19.9C27.4 19.8 27.7 19.6 28 19.3C28 19.3 28 19.3 28.1 19.3C28.4 19.2 28.6 19.1 28.8 18.9C28.9 18.9 28.9 18.8 29 18.8L29.1 18.7C29.1 18.7 29.1 18.7 29.2 18.7C29.2 18.7 29.2 18.7 29.3 18.6C29.4 18.5 29.5 18.4 29.6 18.3H29.7C29.7 18.3 29.8 18.3 29.8 18.2C29.9 18.1 29.9 18.1 30 18C30.1 17.9 30.2 17.9 30.3 17.9L30.4 18C30.4 18.1 30.4 18.1 30.3 18.2C30.3 18.2 30.3 18.3 30.2 18.3C30.1 18.4 30.1 18.4 30.1 18.4C30.1 18.4 30 18.4 30 18.5C30 18.5 30 18.6 30.1 18.6C30.1 18.6 30.1 18.6 30.2 18.6H30.3C30.5 18.5 30.6 18.3 30.7 18.1V18C30.7 17.9 30.8 17.8 30.8 17.7C30.8 17.6 30.8 17.6 30.9 17.5C31 17.2 31.1 17 31.1 16.7C31.1 16.6 31.1 16.6 31.2 16.5V16.4C31.2 16.3 31.3 16.2 31.4 16.2C31.4 16.1 31.5 16.1 31.5 16V15.9C31.6 15.8 31.6 15.6 31.7 15.5C31.9 15.2 32 14.9 32.2 14.6C32.3 14.5 32.3 14.4 32.4 14.2L32.3 14.3C32.3 14.3 32.3 14.3 32.2 14.3C32.1 14.4 32.1 14.4 32 14.5C31.8 14.7 31.7 14.8 31.5 14.9L31.4 15C31.3 15.1 31.2 15.1 31.2 15.1C31.2 15.1 31.1 15.1 31.1 15.2C31.1 15.2 31.1 15.2 31.1 15.3C31 15.4 30.9 15.4 30.9 15.5H30.8C30.9 15 30.9 15 30.9 15C30.9 15 30.8 15 30.8 15.1C30.7 15.2 30.7 15.2 30.6 15.3H30.4C30.3 15.3 30.3 15.4 30.2 15.4C30.1 15.5 29.9 15.6 29.7 15.7C29.5 15.8 29.4 15.9 29.3 16H29.2C29.2 16 29.1 16 29.2 15.9C29.3 15.8 29.4 15.7 29.5 15.6C29.5 15.6 29.5 15.6 29.6 15.6C29.6 15.6 29.7 15.6 29.7 15.5C29.8 15.4 29.8 15.4 29.9 15.4C30 15.3 30.1 15.2 30.2 15.1C30.3 15 30.4 15 30.5 14.9C30.6 14.8 30.7 14.8 30.7 14.7C30.9 14.5 31.1 14.4 31.3 14.3C31.4 14.2 31.5 14.2 31.6 14.1C31.7 14 31.9 13.9 32 13.8H32.1L32.2 13.7C32.3 13.6 32.4 13.6 32.4 13.5H32.5C32.5 13.5 32.5 13.5 32.6 13.4C32.6 13.4 32.6 13.4 32.7 13.3C32.8 13.2 33 13.1 33.2 13C33.6 12.8 34 12.4 34.2 11.9V11.8C34.2 11.7 34.2 11.7 34.3 11.6C34.3 11.6 34.3 11.6 34.3 11.5C34.3 11.5 34.3 11.5 34.2 11.5C34 11.6 33.8 11.7 33.6 11.9H33.5C33.4 12 33.2 12.1 33.1 12.2H33C32.9 12.3 32.8 12.3 32.7 12.4C32.6 12.5 32.5 12.5 32.4 12.6L32.3 12.7H32.2C32.1 12.7 32.1 12.8 32 12.8H31.9C31.8 12.8 31.8 12.9 31.7 12.9C31.6 12.9 31.6 12.9 31.6 12.9C31.6 12.9 31.6 12.9 31.5 12.9C31.5 12.9 31.4 12.9 31.4 13C31.4 13 31.4 13 31.3 13.1C30.9 13.4 30.4 13.7 30 14.1C29.8 14.3 29.7 14.3 29.6 14.4C29.6 14.4 29.6 14.4 29.5 14.4C29.5 14.4 29.4 14.4 29.4 14.5C29.3 14.6 29.3 14.7 29.2 14.7L29.1 14.8C29 14.8 29 14.9 29 14.9C28.9 14.9 28.9 15 28.8 15L28.6 15.2C28.5 15.3 28.4 15.4 28.3 15.6C28.2 15.8 28.1 15.9 27.8 16.1C27.8 16.1 27.7 16.1 27.7 16.2C27.7 16.2 27.7 16.2 27.6 16.2C27.6 16.2 27.5 16.2 27.5 16.3C27.4 16.4 27.3 16.5 27.2 16.5H27.1C27 16.5 27 16.6 26.9 16.6C26.6 16.8 26.2 17 25.9 17.3C25.8 17.4 25.7 17.4 25.6 17.5C25.5 17.5 25.5 17.6 25.4 17.6C25.3 17.7 25.1 17.8 24.9 17.9H24.8C24.7 18 24.7 18 24.6 18C24.6 18 24.5 18 24.5 18.1C24.4 18.2 24.4 18.3 24.3 18.3L24.2 18.4C24.4 18.3 24.5 18.2 24.7 18.1H24.8V18.2C24.7 18.3 24.6 18.3 24.5 18.4C24.3 18.5 24.2 18.5 24.1 18.7C24 18.8 24 18.8 23.9 18.9C23.8 19 23.8 19.1 23.7 19.2C23.6 19.2 23.6 19.3 23.5 19.3C23.4 19.4 23.3 19.4 23.3 19.5L23.2 19.6C23.1 19.6 23.1 19.7 23.1 19.7C23.1 19.7 23.1 19.7 23 19.8C23 19.8 23 19.8 22.9 19.8C22.9 19.8 22.8 19.8 22.8 19.9C22.8 20 22.7 20.1 22.6 20.1L22.5 20.2C22.4 20.2 22.4 20.3 22.3 20.3C22.3 20.3 22.3 20.3 22.3 20.4C22.3 20.4 22.3 20.4 22.3 20.5C22.2 20.5 22.2 20.6 22.1 20.6C22 20.6 22 20.7 21.9 20.7L21.8 20.8C21.8 20.8 21.8 20.8 21.7 20.8H21.6C21.5 20.9 21.4 21 21.3 21C21.1 21.1 21 21.2 20.9 21.3H21.1C21.3 21.2 21.5 21 21.7 20.9C21.9 20.8 22 20.7 22.1 20.7C22.2 20.6 22.3 20.6 22.4 20.4C22.5 20.3 22.6 20.3 22.7 20.2C22.8 20.1 22.9 20.1 23 20C23.3 19.8 23.5 19.7 23.9 19.6C24 19.6 24.1 19.5 24.1 19.5C24.2 19.4 24.3 19.4 24.4 19.4L24.2 19.5H24.1V19.6H24.5C24.6 19.6 24.6 19.7 24.6 19.7C24.6 19.7 24.5 19.7 24.5 19.8C24.5 19.8 24.5 19.8 24.4 19.8C24.3 19.9 24.3 20 24.2 20.1L24.1 20.2C24 20.3 23.8 20.4 23.6 20.5C23.6 20.5 23.5 20.5 23.5 20.6C23.5 20.6 23.5 20.6 23.4 20.7C23.3 20.8 23.2 20.9 23 20.9C22.8 21 22.7 21.1 22.6 21.2C22.5 21.3 22.5 21.3 22.4 21.3C22.3 21.3 22.3 21.3 22.3 21.2C22.3 21.1 22.3 21 22.2 20.9C22.2 20.9 22.2 20.9 22.2 21V21.1C22.2 21.2 22.2 21.2 22.1 21.2C22 21.3 21.9 21.4 21.7 21.5C21.6 21.6 21.5 21.6 21.4 21.7C21.1 21.9 20.9 22 20.6 22.2C20.4 22.3 20.3 22.4 20.2 22.4C20.1 22.5 20 22.5 19.9 22.6H20.2C20.2 22.6 20.3 22.6 20.3 22.7C20.3 22.8 20.2 22.8 20.2 22.8H20.1C19.9 22.8 19.8 22.9 19.6 22.9C19.5 22.9 19.4 23 19.2 23H19C18.9 23 18.9 22.9 18.9 22.9C18.9 22.8 18.9 22.8 18.8 22.8C18.7 22.8 18.6 22.9 18.5 22.9C18.3 23 18.3 23 18.2 23.1H18.1C18.1 23.1 18 23.1 18 23C18 23 18 23 17.9 22.9C17.9 22.9 17.9 22.8 18 22.8H18.1C18.3 22.8 18.4 22.8 18.6 22.7C18.7 22.6 18.8 22.6 18.9 22.6C19 22.6 19.1 22.5 19.2 22.5C19.3 22.4 19.4 22.4 19.5 22.4C19.7 22.3 19.6 22.1 19.4 22.2C19.4 22.2 19.4 22.2 19.3 22.2C19.3 22.2 19.2 22.2 19.2 22.3C19.1 22.3 19 22.4 19 22.4C18.7 22.6 18.4 22.7 18 22.7V22.6C18 22.4 17.8 22.3 17.6 22.4C17.5 22.4 17.4 22.5 17.4 22.6C17.3 22.7 17.2 22.7 17.1 22.7C16.9 22.7 16.7 22.8 16.5 22.9C16.3 23 16.2 23.1 16 23.2C16 23.2 16 23.2 15.9 23.2L15.7 23.4C15.6 23.4 15.6 23.4 15.6 23.5C15.6 23.5 15.5 23.5 15.5 23.6C15.4 23.9 15.2 24 15 24C14.9 24 14.8 24 14.6 24.1C14.4 24.2 14.3 24.2 14.1 24.1H14V24C13.8 23.9 13.7 23.8 13.6 23.5V23.4H13.5C13.6 23.6 13.6 23.8 13.8 23.9C13.8 23.9 13.8 24 13.7 24C13.6 24 13.5 24 13.5 24L13.4 23.9C13.4 23.9 13.4 23.8 13.3 23.8H13.2L13.1 23.7C13.1 23.6 13.1 23.4 13 23.3C12.9 22.6 13.1 21.9 13.4 21.3C13.4 21.2 13.5 21.2 13.5 21.1C13.6 20.9 13.7 20.7 13.8 20.6L13.9 20.5C14 20.4 14 20.3 14.1 20.2L14.2 20.1C14.4 19.8 14.6 19.5 14.8 19.2C14.9 19.1 14.9 19.1 15 19C15.1 18.8 15.3 18.6 15.4 18.4L15.6 18.2C15.7 18.1 15.7 18.1 15.8 18C15.9 17.9 16 17.8 16.1 17.7C16.3 17.6 16.3 17.5 16.4 17.3C16.5 17.2 16.5 17.1 16.6 17.1C16.8 16.9 16.9 16.8 17 16.5C17 16.4 17.1 16.3 17.2 16.2H17.3C17.3 16.1 17.4 16 17.5 16L17.6 15.9C17.8 15.6 18 15.3 18.3 15.1L18.6 14.8C18.7 14.7 18.8 14.5 18.9 14.4L19.1 14.2C19.1 14.2 19.1 14.1 19.2 14.1C19.2 14.1 19.2 14.1 19.3 14C19.4 13.9 19.5 13.7 19.6 13.6C19.7 13.5 19.7 13.4 19.8 13.3C19.8 13.2 19.9 13.2 20 13.1C20.1 13 20.2 12.9 20.2 12.8C20.2 12.8 20.2 12.7 20.3 12.7C20.4 12.6 20.6 12.5 20.7 12.3L20.9 12.1C20.9 12.1 20.9 12.1 21 12C21.1 11.9 21.2 11.8 21.3 11.7C21.6 11.4 21.8 11.1 22 10.8V10.7C22 10.7 22 10.6 22.1 10.6C22.2 10.5 22.2 10.4 22.3 10.3C22.4 10.1 22.5 10 22.6 9.9C22.7 9.9 22.7 9.8 22.7 9.7C22.7 9.7 22.7 9.7 22.7 9.6C22.8 9.5 22.9 9.4 23 9.3C23.1 9.2 23.2 9 23.3 8.9C23.3 8.9 23.3 8.8 23.3 8.7C23.3 8.7 23.3 8.7 23.3 8.6C23.3 8.5 23.4 8.5 23.4 8.5C23.4 8.5 23.5 8.5 23.5 8.4C23.6 8.3 23.6 8.2 23.6 8.1V8C23.7 7.8 23.7 7.8 23.8 7.7L23.9 7.6C23.9 7.6 23.9 7.6 23.9 7.5C23.9 7.4 23.9 7.3 24 7.3L24.1 7.2C24.2 7.1 24.4 7 24.4 6.9C24.4 6.8 24.5 6.8 24.5 6.7C24.5 6.7 24.5 6.6 24.6 6.6C24.7 6.6 24.7 6.6 24.7 6.6C24.7 6.6 24.7 6.6 24.7 6.5C24.7 6.4 24.7 6.4 24.8 6.4L24.7 6.3V6.2C24.7 6.2 24.7 6.2 24.7 6.1H25C25 6.1 25.1 6.1 25 6C25 6 25 5.9 24.9 5.9C24.9 5.9 24.9 5.8 24.8 5.8C24.7 5.8 24.7 5.8 24.7 5.8H24.6L24.5 5.9C24.5 5.9 24.5 6 24.4 6H24.2C24.2 6 24.2 5.9 24.1 6C23.8 6.1 23.6 6.1 23.3 6.1C23.3 6.1 23.3 6.1 23.3 6.2C23.3 6.2 23.3 6.2 23.2 6.3C23.2 6.3 23.2 6.3 23.1 6.4L23 6.5H22.9C22.9 6.5 22.8 6.5 22.8 6.4C22.7 6.3 22.5 6.3 22.4 6.2H22.3C22.2 6.3 22.2 6.4 22.1 6.5C22.1 6.6 22.1 6.6 22 6.6C22 6.6 21.9 6.6 21.9 6.7C21.8 6.8 21.8 6.8 21.7 6.8C21.6 6.8 21.5 6.8 21.4 6.9H21.3C21.3 6.9 21.3 6.9 21.2 6.9C21.1 6.9 21.1 7 21.1 7.1C21.1 7.2 21.1 7.2 21 7.2C20.9 7.3 20.8 7.3 20.7 7.4C20.6 7.5 20.5 7.6 20.4 7.7C20.4 7.7 20.4 7.7 20.3 7.7H20.2C20.2 7.7 20.2 7.7 20.1 7.7C20.1 7.7 20 7.7 20 7.8V7.9L20.2 8.1V8.2L20.1 8.3C20 8.4 19.9 8.4 19.8 8.4C19.7 8.4 19.6 8.4 19.5 8.3H19.4C19.3 8.3 19.2 8.3 19.1 8.3C19.1 8.3 19 8.3 19 8.4V8.5H19.1C19.1 8.5 19.2 8.5 19.2 8.6C19.2 8.6 19.2 8.7 19.3 8.7C19.4 8.7 19.4 8.7 19.4 8.8C19.4 8.9 19.4 9 19.4 9.1V9.2C19.4 9.2 19.4 9.2 19.4 9.3V9.4V9.5H19.5C19.5 9.5 19.6 9.5 19.5 9.6C19.5 9.6 19.4 9.6 19.5 9.7C19.5 9.7 19.5 9.7 19.6 9.7C19.8 9.7 19.9 9.7 20.1 9.6C20.1 9.6 20.2 9.6 20.2 9.7C20.2 9.7 20.2 9.8 20.3 9.8C20.4 9.8 20.4 9.7 20.4 9.7C20.4 9.7 20.5 9.6 20.5 9.7C20.6 9.7 20.7 9.8 20.8 9.8C20.9 9.8 20.9 9.8 20.9 9.7C20.9 9.6 20.9 9.6 20.9 9.5C20.9 9.4 21 9.3 21.1 9.3C21.2 9.3 21.3 9.3 21.3 9.3H21.5C21.5 9.3 21.5 9.3 21.6 9.3C21.6 9.3 21.6 9.3 21.7 9.3H22C22 9.3 22 9.3 22 9.4V9.6C21.9 9.7 21.9 9.8 21.7 9.9C21.5 10 21.3 10.2 21.2 10.4C21.1 10.5 21 10.6 20.9 10.7L20.8 10.8C20.8 10.8 20.8 10.9 20.7 10.9C20.6 11 20.5 11.1 20.4 11.2C20.2 11.4 20 11.5 19.8 11.7C19.5 11.9 19.3 12.2 19 12.4C18.6 12.7 18.3 13 18 13.4C17.9 13.5 17.8 13.6 17.7 13.6C17.6 13.7 17.6 13.7 17.5 13.8C17.4 13.9 17.4 13.9 17.3 14L16.9 14.4C16.8 14.5 16.7 14.6 16.6 14.7L16.5 14.8C16.5 14.8 16.5 14.9 16.4 14.9C16.3 15 16.3 15 16.3 15C16.3 15 16.3 15 16.2 15C16.1 15.1 15.9 15.2 15.8 15.3C15.7 15.4 15.5 15.5 15.4 15.6C15.1 15.9 15 15.9 15 16C14.9 16.1 14.8 16.2 14.7 16.3C14.5 16.4 14.3 16.6 14.1 16.8C14 16.8 14 16.9 14 16.9C14 16.9 14 16.9 13.9 16.9C13.8 16.9 13.7 17 13.7 17.1C13.5 17.3 13.2 17.5 13 17.7C12.9 17.8 12.8 17.9 12.7 18C12.6 18.1 12.4 18.2 12.3 18.3C12.1 18.4 12 18.5 11.9 18.7L11.8 18.8C11.8 18.8 11.8 18.8 11.7 18.9C11.6 19 11.4 19.1 11.3 19.2C11.1 19.4 11 19.4 11 19.5C11 19.5 10.9 19.5 10.9 19.6C10.7 19.7 10.6 19.9 10.4 20L10.3 20.1C10.2 20.1 10.2 20.2 10.1 20.2L10 20.3C10 20.3 10 20.3 9.9 20.4C9.8 20.5 9.7 20.6 9.5 20.7L9.4 20.8C9.3 20.9 9.2 21 9 21.1C8.9 21.2 8.7 21.3 8.6 21.5C8.6 21.5 8.6 21.5 8.5 21.5C8.5 21.5 8.5 21.5 8.4 21.6C8.2 21.7 8.1 21.9 8 22.1C8 21.9 8 22 7.9 22C7.9 22 7.9 22 7.8 22C7.7 22.1 7.7 22.1 7.6 22.2L7.4 22.4C7.3 22.5 7.3 22.5 7.2 22.6C7.1 22.7 7 22.8 7 23C6.9 23.2 6.9 23.4 6.8 23.5C6.7 23.6 6.7 23.7 6.6 23.9C6.5 23.9 6.4 23.8 6.4 23.8V23.7C6.3 23.5 6.1 23.4 6 23.6C5.9 23.7 5.9 23.7 5.9 23.7C5.9 23.7 5.9 23.7 5.8 23.7C5.8 23.7 5.7 23.7 5.7 23.6V23.5L5.6 23.4V23.5C5.6 23.5 5.6 23.5 5.6 23.6H5.4L5.3 23.5C5.3 23.5 5.3 23.4 5.2 23.4L5 23.3C4.9 23.2 4.9 23.2 4.9 23.1C4.9 23.1 4.9 23 4.8 23H4.7C4.7 23 4.6 23 4.7 22.9V22.8C4.7 22.7 4.6 22.7 4.6 22.7H4.4C4.4 22.7 4.4 22.7 4.3 22.8C4.3 23 4.2 23 4.1 23H3.9C3.8 23 3.8 22.9 3.8 22.8C3.8 22.7 3.8 22.7 3.8 22.7C3.8 22.7 3.8 22.6 3.9 22.6C4 22.5 4 22.5 4 22.5C4 22.5 4 22.5 4 22.4V22.3C4 22.2 3.9 22.2 3.8 22.2H3.6L3.5 22.1L3.6 21.8C3.5 21.8 3.4 21.9 3.3 21.9C3.2 22 3.1 22 3 22.1C2.9 22.1 2.8 22.2 2.7 22.2C2.6 22.2 2.4 22.3 2.3 22.4C1.8 22.6 1.5 22.7 0.9 22.7C0.8 22.7 0.8 22.7 0.7 22.7C0.2 22.7 0.1 22.7 0 22.6C0 22.5 0 22.4 0 22.3C0 22 0.1 21.7 0.3 21.5C0.3 21.5 0.3 21.4 0.4 21.4L0.5 21.3C0.6 21.2 0.6 21.1 0.7 21L0.8 20.9C0.9 20.8 1 20.6 1.1 20.5C1.2 20.4 1.3 20.3 1.3 20.2C1.3 20.2 1.3 20.2 1.4 20.1C1.4 20.1 1.4 20.1 1.5 20C1.6 19.9 1.7 19.8 1.8 19.7C1.8 19.4 2 19.2 2.2 19C2.3 18.9 2.4 18.8 2.5 18.7L2.6 18.6C2.7 18.5 2.8 18.4 2.8 18.3L3 18.1C3.1 18 3.2 17.9 3.3 17.8L3.4 17.7C3.4 17.6 3.5 17.6 3.6 17.5C3.7 17.4 3.7 17.4 3.8 17.3C3.8 17.1 3.9 17 4 16.9C4.1 16.8 4.2 16.6 4.3 16.5C4.4 16.3 4.6 16.2 4.7 16C4.8 15.9 4.8 15.9 4.9 15.8C5 15.7 5.1 15.6 5.2 15.5C5.2 15.4 5.3 15.4 5.3 15.3C5.5 15 5.8 14.8 6 14.5C6.1 14.4 6.2 14.3 6.3 14.2C6.4 14 6.6 13.9 6.8 13.7C6.9 13.6 7 13.4 7.2 13.3L7.4 13.1C7.5 13 7.6 12.9 7.7 12.8C7.8 12.7 7.9 12.6 8 12.4C8.2 12.2 8.3 12 8.6 11.8C8.8 11.7 8.9 11.5 9 11.4C9.1 11.3 9.2 11.2 9.3 11.1L9.6 10.8C9.7 10.7 9.7 10.7 9.7 10.7C9.7 10.7 9.7 10.7 9.8 10.6C9.9 10.5 10 10.5 10 10.4L10.1 10.3C10.2 10.2 10.2 10.2 10.2 10.1V10H10.3C10.4 9.7 10.7 9.5 11 9.3C11.1 9.2 11.2 9.1 11.3 9C11.4 8.9 11.5 8.8 11.6 8.7C11.7 8.6 11.7 8.6 11.8 8.5C11.9 8.4 12 8.3 12.1 8.2C12.2 8.1 12.3 8 12.5 7.8C12.6 7.6 12.8 7.5 13 7.4H13.1C13.2 7.3 13.3 7.2 13.4 7.1L13.5 7C13.6 6.9 13.6 6.9 13.7 6.9C13.7 6.9 13.8 6.9 13.8 6.8C13.9 6.6 14.2 6.4 14.4 6.2C14.5 6.2 14.5 6.1 14.6 6.1C14.7 6 14.8 6 14.8 5.9C14.9 5.8 14.9 5.8 14.9 5.8C14.9 5.8 15 5.8 15 5.7C15.1 5.6 15.1 5.6 15.2 5.5C15.2 5.5 15.3 5.5 15.3 5.4C15.4 5.4 15.4 5.3 15.4 5.3L15.5 5.2C15.6 5.1 15.6 5.1 15.7 5L15.8 4.9C15.8 4.9 15.8 4.9 15.9 4.9C16 4.8 16.1 4.7 16.3 4.6C16.5 4.5 16.6 4.3 16.8 4.2C16.9 4.1 17 4 17 3.9C17.2 3.8 17.3 3.6 17.5 3.5C17.7 3.3 17.9 3.2 18.1 3L18.2 2.9C18.2 2.9 18.3 2.9 18.3 2.8C18.3 2.8 18.3 2.8 18.4 2.8C18.4 2.8 18.4 2.8 18.5 2.8C18.6 2.7 18.6 2.6 18.7 2.5C18.8 2.4 18.9 2.2 19 2.1C19.4 1.6 20 1.2 20.6 0.9C20.7 0.8 20.9 0.8 21 0.7H21.1C21.2 0.7 21.2 0.6 21.3 0.6C21.4 0.5 21.5 0.5 21.6 0.5C21.6 0.5 21.7 0.5 21.7 0.6C21.7 0.6 21.7 0.7 21.8 0.7C21.8 0.7 21.8 0.7 21.9 0.7C22.1 0.8 22.3 0.9 22.4 1H22.5C22.7 1.2 22.8 1.4 22.9 1.6V1.7L23 1.8C23 1.9 23.1 2 23.1 2.1C23.1 2.2 23.2 2.3 23.2 2.4C23.3 2.6 23.3 2.8 23.3 3.1V3.2C23.3 3.4 23.3 3.5 23.3 3.5V3.6C23.3 3.7 23.3 3.8 23.3 3.9V4C23.3 4.1 23.4 4.2 23.5 4.2C23.6 4.1 24 4 24.3 3.8C24.4 3.8 24.5 3.7 24.6 3.7L24.7 3.6C24.8 3.6 24.9 3.5 25 3.5C25.2 3.4 25.3 3.4 25.5 3.3H25.6C25.7 3.2 25.9 3.2 26 3.1C26.1 3 26.3 3 26.4 2.9C26.6 2.8 26.9 2.7 27.1 2.6C27.3 2.5 27.5 2.4 27.7 2.3H27.8C27.9 2.3 28 2.2 28.2 2.2C28.3 2.2 28.5 2.1 28.6 2.1C28.6 2.1 28.6 2.1 28.7 2.1C29.1 2 29.2 2 29.3 1.9C29.4 1.9 29.4 1.9 29.5 1.9H29.6C30 1.9 30.5 2 30.8 2.3C31.1 2.6 31.2 2.9 31.2 3.3C31.2 3.4 31.2 3.4 31.2 3.4L31.3 3.5C31.3 3.5 31.3 3.5 31.4 3.5H31.5C31.5 3.5 31.6 3.6 31.5 3.6C31.5 3.7 31.4 3.8 31.4 3.9C31.4 4 31.3 4.1 31.3 4.1C31.3 4.6 31 4.8 30.7 5C30.5 5.2 30.4 5.3 30.2 5.5C30.2 5.5 30.2 5.5 30.1 5.5C30.1 5.5 30.1 5.5 30 5.5C30 5.7 30 5.8 29.9 5.9C29.9 5.9 29.9 6 29.8 6C29.8 6.1 29.7 6.1 29.7 6.1C29.7 6.1 29.7 6.1 29.7 6.2C29.7 6.3 29.6 6.4 29.5 6.5L29.4 6.6H29.3C29.3 6.6 29.3 6.7 29.4 6.7H29.5C29.5 6.7 29.6 6.7 29.6 6.8C29.6 6.8 29.6 6.9 29.5 6.9H29.3C29.1 7 28.9 7.1 28.8 7.3V7.4C28.8 7.5 28.7 7.5 28.7 7.6V7.7C28.6 7.9 28.4 8 28.4 8.2C28.4 8.2 28.4 8.3 28.5 8.2L28.6 8.1C28.7 8 28.8 7.9 29 7.9C29.1 7.9 29.1 7.8 29.1 7.8V7.7C29.1 7.7 29.2 7.7 29.2 7.8C29.2 7.8 29.2 7.9 29.3 7.9H29.2C29.1 7.9 29.1 7.9 29.1 7.9C29.1 7.9 29.1 7.9 29.1 8C29.1 8.1 29 8.1 29 8.2L28.9 8.3C28.9 8.3 28.9 8.3 28.8 8.4C28.8 8.4 28.8 8.5 28.9 8.5C29 8.5 29 8.4 29.1 8.4C29.1 8.4 29.1 8.3 29.2 8.3C29.3 8.2 29.4 8.1 29.4 8C29.4 8 29.4 8 29.5 7.9C29.5 7.9 29.5 7.9 29.6 7.8C29.8 7.5 30 7.3 30.3 7.1C30.3 7.1 30.4 7.1 30.4 7.2C30.4 7.3 30.4 7.3 30.3 7.4C30.3 7.4 30.3 7.4 30.3 7.5V7.6C30.3 7.7 30.2 7.8 30.2 7.9C30.1 8 30.1 8.1 30.1 8.3C29.9 8.7 29.9 8.8 29.8 8.9C29.8 8.9 29.8 8.9 29.7 9C29.7 9 29.7 9 29.6 9.1C29.6 9.1 29.6 9.2 29.5 9.2C29.5 9.3 29.5 9.3 29.4 9.3C29.4 9.3 29.4 9.3 29.3 9.4L29.2 9.5V9.6C29.2 9.8 29.1 10 28.9 10.1C28.8 10.2 28.8 10.3 28.7 10.4C28.7 10.5 28.6 10.6 28.6 10.6V10.7C28.5 10.8 28.4 10.9 28.3 11.1C28.3 11.1 28.3 11.1 28.2 11.2C28.1 11.3 28.1 11.3 28.1 11.4C28.1 11.4 28.1 11.5 28.2 11.5C28.2 11.5 28.3 11.5 28.3 11.6C28.3 11.7 28.2 11.8 28.1 11.9C28 12 27.8 12.2 27.7 12.4C27.6 12.5 27.6 12.6 27.5 12.7C27.4 12.9 27.3 12.9 27.2 13C27.1 13.1 27.1 13.2 27 13.4C26.9 13.6 26.8 13.8 26.7 13.9C26.6 14 26.5 14.2 26.4 14.3C26.4 14.3 26.4 14.3 26.3 14.3C26.3 14.3 26.3 14.3 26.2 14.3C26.1 14.4 26.1 14.5 26 14.6C25.9 14.7 25.9 14.7 25.9 14.7C25.9 14.7 25.9 14.8 25.8 14.8C25.8 14.8 25.8 14.8 25.7 14.8C25.7 14.8 25.7 14.8 25.6 14.8C25.5 14.9 25.4 15 25.4 15.1L25.3 15.2C25.2 15.3 25.1 15.5 24.9 15.6L24.6 15.9C24.5 16 24.5 16 24.4 16.1L24.3 16.2V16.3L24.2 16.4C24.1 16.5 24.1 16.5 24 16.6C23.9 16.7 23.8 16.7 23.7 16.8C23.6 16.8 23.6 16.9 23.5 16.9V17C23.5 17.1 23.5 17.1 23.6 17.1C23.7 17.1 23.7 17 23.8 17C24 16.8 24.2 16.7 24.4 16.6C24.5 16.5 24.6 16.5 24.7 16.4C24.7 16.4 24.7 16.4 24.8 16.4H24.9L25.1 16.2C25.2 16.2 25.2 16.2 25.2 16.1C25.2 16.1 25.2 16.1 25.3 16H25.4C25.4 16 25.5 16 25.5 15.9C25.6 15.8 25.7 15.8 25.8 15.7L25.9 15.6C26.1 15.5 26.3 15.3 26.5 15.2C26.7 15.1 26.8 15 27 14.9C27.1 14.8 27.1 14.8 27.2 14.8C27.3 14.7 27.4 14.7 27.5 14.6C27.7 14.5 27.9 14.3 28.1 14.2C28.3 14.1 28.5 13.9 28.8 13.7C28.9 13.6 29 13.6 29.1 13.5C29.2 13.4 29.3 13.4 29.4 13.3C29.6 13.1 29.8 13 30 12.9C30.2 12.8 30.4 12.6 30.6 12.4C30.7 12.3 30.8 12.3 31 12.2C31.1 12.1 31.2 12.1 31.2 12C31.4 11.8 31.6 11.7 31.8 11.6C32.1 11.4 32.3 11.3 32.6 11.1C32.7 11 32.8 11 32.9 10.9C33 10.8 33.1 10.8 33.2 10.7C33.2 10.7 33.2 10.7 33.3 10.6C33.4 10.5 33.6 10.4 33.7 10.3C33.8 10.2 34 10.1 34.1 10H34.2C34.2 10 34.3 10 34.3 9.9C34.3 9.9 34.3 9.9 34.4 9.9L34.5 9.8C34.6 9.8 34.7 9.7 34.8 9.7C34.9 9.6 35 9.6 35.1 9.5C35.3 9.3 35.6 9.2 35.8 9C36 8.9 36.2 8.7 36.4 8.6C36.5 8.5 36.6 8.5 36.7 8.4C36.8 8.3 36.9 8.3 37.1 8.2L37.2 8.1H37.3C37.3 8.1 37.3 8.1 37.4 8.1H37.5C37.8 8 38 7.8 38.3 7.7C38.4 7.6 38.5 7.5 38.7 7.5C38.9 7.4 39.2 7.2 39.4 7C39.6 6.9 39.7 6.7 39.9 6.7C39.9 6.7 39.9 6.7 39.9 6.6C40 6.6 40 6.5 40.1 6.5H40.2C40.4 6.4 40.6 6.3 40.7 6.2C40.8 6.1 40.9 6.1 40.9 6C41 6 41 5.9 41 5.9C41.2 5.8 41.4 5.7 41.5 5.5C41.6 5.4 41.7 5.3 41.8 5.3L41.9 5.2C42 5.1 42.1 5.1 42.1 5.1C42.1 5.1 42.1 5.1 42.1 5C42.2 4.9 42.3 4.9 42.4 4.8C42.5 4.8 42.5 4.7 42.6 4.7L42.7 4.6C42.8 4.5 42.9 4.5 43 4.4C43.3 4.2 43.6 4 44 3.8C44.1 3.7 44.2 3.7 44.3 3.6C44.5 3.5 44.7 3.3 44.9 3.2C45.1 3.1 45.2 3 45.4 2.8C45.6 2.7 45.8 2.5 46 2.4C46 2.4 46 2.4 46.1 2.4C46.4 2.2 46.7 2.1 47 2C47.1 2 47.1 2 47.1 2C47.1 2 47.1 2 47.2 2C47.4 1.9 47.6 1.9 47.9 1.9C48.2 1.9 48.4 1.9 48.7 1.7C48.9 1.6 49.1 1.6 49.2 1.5C49.5 1.5 49.8 1.6 50 1.8C50 1.8 50 1.8 50.1 1.9C50.1 1.9 50.1 2 50.2 2L50.3 2.1C51 1.9 51 2.1 51 2.3V2.5C51 2.7 51 2.8 51 3C51 3 51 3 51 3.1C51 3.1 51 3.1 51 3.2C51 3.3 51 3.4 50.9 3.5V3.6C50.9 3.7 50.8 3.7 50.8 3.8H50.9C50.9 3.8 51 3.8 51 3.9V4C51 4 51 4.1 50.9 4.1C50.8 4.2 50.7 4.2 50.7 4.3C50.5 4.4 50.4 4.6 50.3 4.7L50.2 4.8C50 5 49.7 5.2 49.5 5.3H49.4C49.3 5.4 49.2 5.4 49.1 5.5C49 5.6 48.8 5.7 48.7 5.8C48.5 6 48.2 6.1 48 6.2C47.8 6.3 47.7 6.4 47.5 6.5C47.3 6.6 47.1 6.8 46.8 6.9C46.6 7 46.4 7.1 46.2 7.2C46.1 7.3 46 7.3 45.9 7.4C45.8 7.5 45.7 7.5 45.7 7.6C45.4 7.9 45.1 8.1 44.8 8.4C44.8 8.4 44.7 8.4 44.7 8.5C44.6 8.6 44.6 8.6 44.5 8.7C44.5 8.7 44.5 8.7 44.4 8.7C44.3 8.8 44.2 8.8 44.2 8.9C44.2 8.9 44.1 9 44.1 9.1V9.2C44.1 9.3 44.2 9.4 44.3 9.4C44.3 9.4 44.4 9.4 44.5 9.4L44.7 9.3C44.8 9.3 44.9 9.2 44.9 9.2C45 9.1 45.1 9.1 45.2 9H45.3C45.5 8.9 45.5 8.9 45.6 8.9C45.7 8.9 45.7 9 45.7 9C45.6 9.1 45.6 9.1 45.5 9.2L45.4 9.3H45.2C45.1 9.4 45 9.4 44.9 9.5C44.5 9.8 44.2 10 43.8 10.3C43.7 10.4 43.6 10.4 43.5 10.5C43.4 10.6 43.3 10.8 43.1 10.9C43.1 10.9 43.1 11 43.2 11C43.2 11 43.3 11 43.3 10.9C43.3 10.9 43.4 10.8 43.5 10.7C43.6 10.6 43.6 10.6 43.8 10.5C44.1 10.4 44.2 10.2 44.4 10.1C44.4 10.1 44.4 10.1 44.5 10.1C44.6 10 44.7 9.9 44.9 9.8C45 9.8 45 9.7 45.1 9.7C45.2 9.6 45.3 9.7 45.2 9.8L45.1 9.9H45C44.9 9.9 44.9 9.9 44.8 10C44.8 10 44.8 10.1 44.7 10.1C44.7 10.2 44.6 10.2 44.5 10.2L44.3 10.3C44.2 10.3 44.2 10.4 44.2 10.4C44.2 10.4 44.2 10.5 44.1 10.5C44.1 10.5 44.1 10.5 44.1 10.6V10.7C44.1 10.8 44 10.8 44 10.9C43.9 11 43.8 11.1 43.6 11.1C43.6 11.1 43.5 11.1 43.5 11.2C43.4 11.2 43.4 11.3 43.3 11.3L43 11.5C42.9 11.6 42.8 11.7 42.6 11.7C42.6 11.7 42.6 11.7 42.5 11.7C42.5 11.7 42.5 11.7 42.4 11.7C42.4 11.7 42.4 11.7 42.4 11.8C42.4 11.8 42.4 11.8 42.4 11.9H42.2C42.2 11.9 42.2 11.9 42.1 11.9C42.1 12 42.1 12 42.1 12C42.1 12.1 42.1 12.2 42 12.3C41.9 12.4 41.8 12.5 41.7 12.6C41.6 12.7 41.5 12.8 41.4 12.9C41.3 13 41.3 13 41.2 13.1C41 13.2 40.9 13.4 40.8 13.5C40.7 13.6 40.6 13.7 40.5 13.8C40.4 13.9 40.4 14 40.3 14C40.2 14.1 40.2 14.1 40.1 14.2C40 14.3 39.9 14.4 39.9 14.4L39.8 14.5C39.7 14.6 39.6 14.7 39.5 14.8C39.4 14.9 39.4 15 39.3 15C39.2 15.1 39 15.3 38.9 15.4C38.8 15.5 38.7 15.6 38.6 15.7L38.4 15.9C38.3 16 38.2 16.1 38.2 16.3V16.4C38.2 16.4 38.1 16.5 38.1 16.6C38.1 16.6 38.1 16.6 38.1 16.7C38.1 16.8 38.1 17 38 17.1C38 17.3 38 17.4 38 17.6C38 17.6 38 17.6 38 17.7C38 17.8 38 17.8 38 17.8C38 17.8 38 17.8 37.9 17.9C37.8 18 37.8 18.1 37.9 18.2C37.9 18.2 37.9 18.2 37.9 18.3C37.9 18.4 38 18.5 38.1 18.7C38.2 18.9 38.2 19 38.2 19.2H38.3L38.4 19.3V19.4C38.4 19.4 38.4 19.4 38.4 19.5C38.4 19.5 38.4 19.5 38.4 19.6C38.7 19.8 39 19.8 39.4 19.8H39.5C39.9 19.8 40.3 19.8 40.7 19.7C41 19.7 41.3 19.6 41.6 19.6C42.2 19.6 42.8 19.5 43.4 19.4C43.5 19.4 43.6 19.4 43.7 19.3C44 19.3 44.2 19.2 44.5 19.1C44.6 19.1 44.7 19 44.8 19C45.1 18.9 45.4 18.8 45.7 18.7C45.8 18.7 45.9 18.6 46 18.6C46.2 18.5 46.5 18.5 46.7 18.4C47 18.3 47.3 18.2 47.6 18.1C48.2 17.9 48.8 17.7 49.3 17.5C49.5 17.4 49.6 17.4 49.8 17.3C50 17.2 50.2 17.1 50.4 17.1C50.5 17.1 50.6 17 50.6 17L50.7 16.9C50.8 16.9 50.9 16.8 51 16.8C51.2 16.7 51.3 16.6 51.5 16.5H51.6C51.7 16.4 53.1 15.9 53.2 15.8V18.4H53ZM50.9 3.9C50.9 4 51 4 50.9 3.9C51 3.9 51 4 50.9 3.9ZM43.4 9C43.4 8.9 43.4 8.9 43.4 9H43.3C43.2 9 43.2 9.1 43.1 9.1H43C42.8 9.2 42.7 9.3 42.5 9.4C42.3 9.5 42.1 9.7 41.9 9.8C41.8 9.8 41.8 9.9 41.7 9.9C41.6 10 41.5 10.1 41.4 10.2L41.2 10.4C41.2 10.5 41.3 10.5 41.3 10.5C41.4 10.5 41.5 10.4 41.6 10.3C41.7 10.2 41.8 10.1 41.9 10.1C42 10 42.2 9.9 42.3 9.8L42.4 9.7C42.5 9.6 42.7 9.5 42.8 9.4C42.9 9.4 42.9 9.3 42.9 9.3C42.9 9.3 42.9 9.3 43 9.2C43.2 9.2 43.3 9.1 43.4 9ZM19.3 9.1C19.2 9.1 19.2 9.2 19.3 9.3C19.3 9.3 19.4 9.4 19.4 9.3H19.5V9.2C19.5 9.2 19.5 9.1 19.4 9.1C19.4 9.1 19.4 9.1 19.3 9.1ZM19.3 9.9C19.2 9.9 19.2 9.9 19.2 9.9C19.2 9.9 19.2 9.9 19.1 9.9C19.3 9.9 19.4 9.9 19.5 9.9C19.5 9.9 19.6 9.9 19.6 9.8C19.6 9.8 19.6 9.8 19.7 9.7C19.7 9.7 19.7 9.6 19.6 9.6C19.5 9.6 19.5 9.6 19.4 9.6C19.4 9.9 19.3 9.9 19.3 9.9ZM42.2 10.1C42 10.2 41.9 10.3 41.8 10.4L41.6 10.6C41.5 10.6 41.5 10.7 41.5 10.7C41.5 10.7 41.5 10.7 41.5 10.8C41.5 10.8 41.5 10.8 41.6 10.8C41.8 10.7 42.1 10.5 42.3 10.3C42.4 10.3 42.4 10.2 42.4 10.2C42.4 10.2 42.5 10.2 42.5 10.1C42.5 10.1 42.6 10.1 42.6 10C42.6 10 42.6 10 42.6 9.9C42.6 9.9 42.6 9.8 42.5 9.8C42.3 9.9 42.3 10 42.2 10.1ZM42.8 11.1C42.8 11.2 42.8 11.2 42.8 11.1V11.1ZM40.6 11.6C40.5 11.6 40.5 11.7 40.6 11.6C40.5 11.7 40.6 11.8 40.6 11.8C40.7 11.8 40.8 11.8 40.9 11.7L41.1 11.5C41.2 11.4 41.2 11.4 41.2 11.4C41.2 11.3 41.2 11.3 41.1 11.3C41 11.4 40.8 11.5 40.7 11.6C40.6 11.5 40.6 11.6 40.6 11.6ZM21 12.3L20.8 12.5C20.7 12.6 20.6 12.7 20.5 12.8L20.3 13C20.3 13 20.3 13.1 20.2 13.1C20 13.2 19.9 13.4 19.8 13.6C19.7 13.7 19.7 13.8 19.6 13.9C19.5 14 19.4 14.2 19.3 14.3C19.2 14.4 19.1 14.5 19 14.6C19 14.6 18.9 14.6 18.9 14.7C18.9 14.7 18.9 14.8 18.8 14.8L18.7 14.9C18.7 14.9 18.7 14.9 18.7 15C18.7 15 18.7 15.1 18.6 15.1C18.4 15.2 18.4 15.3 18.3 15.4L18.2 15.5C18.2 15.5 18.2 15.6 18.1 15.6C18.1 15.6 18.1 15.6 18.1 15.7C18.1 15.8 18 15.8 17.9 15.9C17.7 16.1 17.6 16.3 17.5 16.4C17.2 16.8 17.1 16.9 17 17C17 17 16.9 17.1 16.8 17.1C16.6 17.2 16.5 17.4 16.4 17.6L16.3 17.7C16.3 17.8 16.2 17.8 16.2 17.9C16.2 17.9 16.2 17.9 16.1 17.9C16.1 17.9 16.1 17.9 16 17.9V18C15.9 18.1 15.9 18.2 15.8 18.2C15.7 18.3 15.6 18.4 15.5 18.6C15.4 18.7 15.4 18.8 15.4 18.8H15.3C15.2 18.9 15.1 18.9 15 19L14.9 19.1C14.8 19.2 14.8 19.3 14.7 19.4C14.6 19.5 14.5 19.6 14.5 19.8C14.3 20.1 14.1 20.5 14.1 20.8C14.2 20.6 14.3 20.4 14.5 20.2C14.5 20.2 14.5 20.1 14.6 20.1V20C14.6 20 14.6 19.9 14.7 19.9C14.7 19.9 14.8 19.9 14.8 19.8L14.9 19.7C15 19.6 15 19.6 15.1 19.5C15.2 19.4 15.3 19.3 15.3 19.2C15.4 19.1 15.4 19.1 15.5 18.9C15.6 18.8 15.6 18.7 15.7 18.6C15.9 18.5 16 18.3 16 18.1C16.1 18 16.1 17.9 16.2 17.8C16.4 17.6 16.6 17.3 16.8 17.1C17 16.8 17.3 16.5 17.5 16.2C17.5 16.2 17.5 16.2 17.5 16.1C17.5 16.1 17.5 16 17.6 16C17.6 16 17.6 16 17.6 15.9C17.6 15.9 17.6 15.9 17.6 15.8V15.7C17.7 15.6 17.7 15.5 17.8 15.4C17.8 15.4 17.8 15.4 17.8 15.3C17.9 15.2 17.9 15.2 18 15.2L18.1 15.1C18.2 15 18.3 14.8 18.4 14.7C18.5 14.5 18.7 14.4 18.8 14.2C18.9 14 19 13.9 19.2 13.7C19.4 13.5 19.6 13.2 19.8 13C19.9 12.9 19.9 12.8 20.1 12.7C20.2 12.6 20.3 12.5 20.4 12.4C20.4 12.3 20.5 12.3 20.5 12.3C20.5 12.3 20.5 12.3 20.6 12.2C20.6 12.2 20.6 12.2 20.6 12.1C20.6 12.1 20.6 12.1 20.6 12C21.1 12.2 21.1 12.2 21 12.3C21 12.2 21 12.2 21 12.3ZM37.7 15.2C37.4 15.4 37.3 15.6 37.1 15.8C37.1 15.9 37 15.9 37 16C36.9 16.2 36.8 16.4 36.7 16.6V16.7C36.6 16.9 36.6 17.2 36.6 17.4C36.6 17.5 36.8 17.6 36.8 17.5V17.3C36.8 17.3 36.8 17.3 36.9 17.2C37 17.1 37.1 16.9 37.1 16.7C37.1 16.7 37.1 16.7 37.1 16.6C37.2 16.4 37.3 16.3 37.4 16.1V16C37.4 16 37.4 16 37.4 15.9C37.4 15.8 37.4 15.8 37.5 15.8C37.5 15.7 37.6 15.6 37.6 15.5V15.3C37.8 15.4 37.8 15.4 37.7 15.2C37.8 15.2 37.8 15.2 37.7 15.2ZM36.5 16.9C36.5 16.8 36.4 16.8 36.4 16.8C36.3 16.8 36.3 16.9 36.2 17C36.2 17 36.2 17 36.2 17.1V17.4C36.2 17.5 36.2 17.5 36.1 17.6C36 18 35.9 18.4 36.1 18.8C36.2 18.8 36.2 18.8 36.3 18.8C36.3 18.8 36.3 18.8 36.4 18.8C36.5 18.8 36.5 18.7 36.5 18.6C36.5 18.5 36.5 18.5 36.5 18.4C36.5 18.4 36.5 18.4 36.5 18.3C36.5 18.2 36.5 18.1 36.4 18C36.4 18 36.4 18 36.3 18C36.2 17.7 36.3 17.4 36.4 17V16.9H36.5Z" fill="#0D1014"/>
<path d="M23.7 20.7C23.6 20.8 23.5 20.9 23.5 21C23.5 21 23.5 21 23.5 21.1C23.4 21.2 23.3 21.2 23.2 21.3L23.1 21.4C23.1 21.4 23.1 21.4 23.1 21.5C23.1 21.5 23.1 21.6 23.2 21.6C23.2 21.6 23.2 21.6 23.3 21.6H23.5L23.6 21.5C23.7 21.5 23.8 21.4 23.9 21.4C24 21.4 24 21.3 24 21.3C24 21.3 24 21.3 24.1 21.2C24.3 21.1 24.4 21 24.6 20.9L24.7 20.8C24.8 20.7 24.9 20.6 24.9 20.5C24.9 20.5 24.9 20.5 25 20.5C25 20.5 25 20.4 25.1 20.4H25.2V20.3C25.2 20.3 25.1 20.3 24.9 20.3H24.8C24.7 20.3 24.6 20.3 24.5 20.3H24.4C24.4 20.3 24.3 20.3 24.3 20.4V20.5C23.9 20.6 23.8 20.7 23.7 20.7Z" fill="#0D1014"/>
<path d="M22.6 21.2L22.7 21.3V21.5C22.7 21.5 22.7 21.5 22.7 21.6C22.7 21.5 22.6 21.4 22.6 21.3C22.6 21.3 22.6 21.3 22.6 21.2Z" fill="#0D1014"/>
<path d="M41.9 10.3L42 10.2C42 10.2 42 10.2 42 10.1C42 10.1 41.9 10 41.9 10.1L41.7 10.3C41.6 10.4 41.6 10.4 41.6 10.5C41.6 10.5 41.6 10.6 41.7 10.6C41.8 10.4 41.8 10.4 41.9 10.3Z" fill="#0D1014"/>
<path d="M16.6 10.3C16.7 10.3 16.7 10.3 16.6 10.3C16.7 10.2 16.6 10.1 16.5 10.1C16.4 10.3 16.5 10.4 16.6 10.3Z" fill="#0D1014"/>
<path d="M26.6 18.8C26.7 18.8 26.7 18.7 26.8 18.7C26.9 18.6 27.1 18.5 27.2 18.4C27.3 18.3 27.4 18.3 27.5 18.2C27.7 18.1 27.9 17.9 28.1 17.8C28.2 17.7 28.3 17.7 28.3 17.7C28.3 17.7 28.3 17.7 28.3 17.6C28.4 17.6 28.4 17.5 28.5 17.5C28.6 17.4 28.8 17.4 28.9 17.2C29 17.1 29.3 16.9 29.5 16.8C29.5 16.8 29.6 16.8 29.6 16.7C29.6 16.7 29.6 16.7 29.7 16.6L29.8 16.5C29.8 16.5 29.8 16.5 29.9 16.5C29.9 16.5 30 16.5 30 16.6C30 16.7 29.9 16.7 29.8 16.8L29.7 16.9C29.7 16.9 29.7 16.9 29.6 16.9C29.6 16.9 29.6 16.9 29.5 16.9C29.4 17 29.3 17 29.3 17.1L29.2 17.2C29.1 17.3 29 17.3 28.9 17.4C28.8 17.5 28.7 17.5 28.6 17.6C28.4 17.7 28.3 17.8 28.2 17.9C28.1 18 28 18.1 27.8 18.1H27.7C27.7 18.1 27.7 18.1 27.6 18.2C27.5 18.3 27.4 18.4 27.2 18.5L27.1 18.6C26.9 18.7 26.8 18.8 26.6 18.9C26.5 19 26.3 19 26.2 19.1C25.9 19.3 25.7 19.4 25.4 19.6H25.2C25.2 19.6 25.2 19.6 25.1 19.6C25.1 19.7 25 19.7 25 19.7H24.8H24.9C25 19.7 25 19.7 25.1 19.6C25.2 19.6 25.2 19.5 25.3 19.5C25.3 19.5 25.4 19.5 25.4 19.4C25.6 19.3 25.7 19.2 25.8 19.1C25.9 19 26.1 18.9 26.3 18.8C26.5 18.8 26.5 18.8 26.6 18.8Z" fill="#0D1014"/>
<path d="M29.3 18.2V18.1C29.3 18.1 29.3 18.1 29.2 18.1L29.1 18.2C29 18.2 29 18.2 29 18.3C28.9 18.3 28.9 18.4 28.9 18.4C28.9 18.4 28.9 18.5 29 18.5C29 18.5 29.1 18.5 29.1 18.4L29.3 18.2Z" fill="#0D1014"/>
<path d="M30.5 5.4C30.4 5.4 30.4 5.4 30.4 5.4C30.4 5.4 30.4 5.4 30.3 5.5C30.2 5.6 30.2 5.6 30.2 5.7C30.2 5.7 30.2 5.8 30.3 5.8C30.3 5.8 30.4 5.8 30.4 5.9V6C30.4 6 30.4 6 30.4 6.1V6.2C30.4 6.2 30.4 6.2 30.4 6.3C30.4 6.3 30.4 6.4 30.3 6.4V6.5C30.3 6.5 30.3 6.5 30.3 6.6C30.3 6.7 30.3 6.7 30.3 6.7V6.8C30.3 6.8 30.3 6.8 30.2 6.8C30.2 6.8 30.2 6.8 30.1 6.8C30 6.8 30 6.8 29.9 6.9C29.8 7 29.7 7.1 29.5 7.4C29.7 7.4 29.9 7.2 30 7.1L30.1 7C30.1 7 30.1 7 30.2 6.9C30.2 6.8 30.3 6.8 30.3 6.8C30.4 6.8 30.5 6.8 30.6 6.7L30.7 6.6V6.4C30.7 6.4 30.7 6.4 30.7 6.3C30.8 6 31 5.7 31 5.4V5.3H30.9L30.5 5.4C30.6 5.4 30.6 5.4 30.5 5.4Z" fill="#0D1014"/>
<path d="M19.2 9.3C19.1 9.4 19.2 9.5 19.2 9.6L19.3 9.5H19.4H19.5V9.4H19.4C19.4 9.4 19.3 9.4 19.2 9.3Z" fill="#0D1014"/>
<path d="M22.5 21.5C22.4 21.4 22.4 21.4 22.5 21.5C22.4 21.4 22.3 21.4 22.3 21.5C22.3 21.5 22.3 21.5 22.2 21.5L22.1 21.6C22.1 21.6 22.1 21.6 22 21.6C22 21.6 22 21.6 21.9 21.6C21.7 21.7 21.5 21.9 21.3 22H21.2C21.1 22.1 21 22.2 20.9 22.2C20.8 22.3 20.7 22.3 20.6 22.4C20.6 22.4 20.5 22.4 20.5 22.5V22.6H20.3V22.7C20.3 22.7 20.3 22.7 20.4 22.7H20.5C20.6 22.6 20.8 22.6 20.9 22.5C21 22.5 21.1 22.4 21.2 22.4C21.2 22.4 21.2 22.4 21.3 22.4L21.6 22.2C21.7 22.2 21.8 22.1 22 21.9L22.1 22H22.2C22.3 22 22.3 21.9 22.3 21.9C22.3 21.9 22.3 21.9 22.3 21.8L22.5 21.5Z" fill="#0D1014"/>
<path d="M28.8 16.2C28.9 16.1 28.9 16.2 28.8 16.2C28.9 16.2 28.9 16.2 28.8 16.2C28.7 16.4 28.6 16.5 28.4 16.6H28.3C28.3 16.6 28.3 16.6 28.3 16.5L28.4 16.4C28.4 16.4 28.5 16.4 28.5 16.3L28.8 16.2Z" fill="#0D1014"/>
<path d="M33.6 12C33.6 12.1 33.6 12.1 33.6 12C33.6 12.1 33.5 12.2 33.4 12.2L33.3 12.3C33.2 12.3 33.2 12.4 33.2 12.4C33.2 12.4 33.1 12.4 33.2 12.3C33.2 12.2 33.3 12.2 33.4 12.1L33.5 12C33.5 12 33.5 12 33.6 12Z" fill="#0D1014"/>
<path d="M28.9 18C28.8 17.9 28.8 17.9 28.7 18L28.6 18.1C28.5 18.1 28.5 18.2 28.4 18.2H28.5C28.6 18.2 28.7 18.2 28.9 18Z" fill="#0D1014"/>
<path d="M48.8 6.3C48.9 6.3 48.8 6.1 48.7 6.2C48.7 6.2 48.6 6.2 48.5 6.3V6.4C48.5 6.5 48.6 6.5 48.6 6.5C48.7 6.3 48.7 6.3 48.8 6.3Z" fill="#0D1014"/>
<path d="M30.8 17.6C30.7 17.6 30.7 17.6 30.8 17.6C30.7 17.6 30.7 17.6 30.7 17.6C30.7 17.6 30.7 17.7 30.7 17.8V17.6C30.7 17.6 30.7 17.7 30.7 17.8C30.7 17.8 30.7 17.9 30.6 17.9C30.6 17.9 30.7 17.9 30.8 17.8V17.7C30.8 17.8 30.8 17.8 30.8 17.6Z" fill="#0D1014"/>
<path d="M34.4 11.3C34.5 11.2 34.4 11.2 34.4 11.2C34.4 11.2 34.3 11.2 34.3 11.3C34.3 11.3 34.3 11.4 34.2 11.4C34.2 11.4 34.1 11.4 34.1 11.5V11.6C34.3 11.5 34.3 11.4 34.4 11.3Z" fill="#0D1014"/>
<path d="M21.3 9.6L21.2 9.8C21.2 9.8 21.2 9.9 21.1 9.9C21.1 9.9 21 9.9 21 10V10.2C21.3 9.9 21.3 9.8 21.3 9.6Z" fill="#0D1014"/>
<path d="M18.3 23.4L18.4 23.3C18.6 23.3 18.6 23.3 18.8 23.2C19 23.1 19.2 23.1 19.5 23.1H19.6C19.7 23.1 19.8 23.1 19.9 23.1C20 23.1 20.1 23.1 20.1 23.1C20.2 23.1 20.3 23 20.5 23C20.6 23 20.6 23 20.6 23C20.6 23 20.7 23 20.7 23.1C20.7 23.1 20.7 23.1 20.7 23.2H20.5C20.4 23.2 20.2 23.3 20.1 23.3C20 23.3 20 23.3 19.9 23.4C19.8 23.4 19.8 23.4 19.7 23.5H19.5C19.4 23.5 19.4 23.4 19.4 23.4C19.4 23.3 19.4 23.3 19.3 23.3C19.2 23.3 19.1 23.4 19 23.4C18.9 23.5 18.8 23.5 18.8 23.5C18.8 23.5 18.8 23.5 18.7 23.5C18.4 23.5 18.3 23.5 18.3 23.4Z" fill="#0D1014"/>
<path d="M19.3 9C19.2 8.9 19.2 8.9 19.2 9C19.2 9 19.2 9.1 19.1 9.1C19.1 9.1 19.1 9.2 19 9.3L19.4 9.2V9.1L19.3 9C19.4 9.1 19.3 9.1 19.3 9Z" fill="#0D1014"/>
<path d="M25.6 19.6C25.7 19.5 25.8 19.6 25.8 19.7C25.8 19.8 25.7 19.8 25.7 19.8C25.6 19.8 25.5 19.7 25.6 19.6Z" fill="#0D1014"/>
<path d="M26.2 19.8C26.3 19.7 26.3 19.7 26.2 19.8C26.2 19.7 26.2 19.7 26.2 19.7C26.2 19.7 26.1 19.7 26.1 19.8L26 19.9C26 20 26 20 26.1 20C26.1 19.8 26.2 19.8 26.2 19.8Z" fill="#0D1014"/>
<path d="M41.4 23.8C41.4 23.7 41.4 23.7 41.4 23.8C41.2 23.7 41.1 23.7 40.9 23.7C40.5 23.8 40.1 23.8 39.8 23.9H39.7C39.2 23.9 38.6 24 38.1 24H38C37.8 24 37.7 24 37.5 24.1C37.4 24.1 37.4 24.2 37.3 24.2C37.3 24.3 37.3 24.3 37.4 24.4C37.5 24.5 37.6 24.5 38.1 24.5H38.2C38.3 24.5 38.4 24.5 38.5 24.5H38.6C38.6 24.5 38.6 24.5 38.7 24.5C38.9 24.4 39.2 24.4 39.4 24.3C39.7 24.2 40 24.2 40.3 24.1C40.6 23.9 41 23.9 41.4 23.8Z" fill="#0D1014"/>
<path d="M47.9 21.7C47.9 21.8 47.9 21.8 47.9 21.7C47.9 21.8 47.9 21.8 47.9 21.8C47.9 21.8 47.9 21.9 47.8 21.9H47.7C47.5 21.9 47.4 22 47.3 22.1C47.2 22.2 47.1 22.3 47 22.3L46.9 22.4C46.8 22.5 46.7 22.5 46.5 22.5C46.3 22.5 46.1 22.6 45.9 22.7C45.7 22.8 45.5 22.8 45.2 22.9H45.1C45 22.9 44.9 22.9 44.9 23C44.7 23.1 44.6 22.9 44.7 22.8L44.8 22.7C45 22.6 45 22.5 45.1 22.5C45.1 22.5 45.2 22.5 45.1 22.6V22.7C45.3 22.6 45.4 22.6 45.6 22.5C45.8 22.4 45.9 22.4 46.1 22.3C46.3 22.3 46.4 22.2 46.6 22.1C46.7 22 46.8 22 47 21.9C47.1 21.9 47.1 21.9 47.1 21.9L47.2 21.8C47.2 21.8 47.3 21.8 47.3 21.7L47.4 21.6C47.8 21.8 47.8 21.8 47.9 21.7Z" fill="#0D1014"/>
<path fill-rule="evenodd" clip-rule="evenodd" d="M5.8 40.2C5.9 40 5.8 40.1 6 40C6.1 39.9 6.1 39.9 6.2 39.8C6.3 39.7 6.3 39.7 6.4 39.6L6.6 39.5L6.7 39.4C6.8 39.3 6.8 39.3 6.9 39.2C6.8 39 7 38.9 7.1 38.7C7.3 38.5 7.4 38.3 7.6 38.1C7.7 38 7.8 37.9 7.9 37.8C8 37.7 8 37.6 8.1 37.6C8.2 37.4 8.4 37.3 8.5 37.1C8.6 36.9 8.8 36.8 8.9 36.6C9.2 36.2 9.5 35.9 9.8 35.5C9.9 35.4 10 35.2 10.1 35.1C10.2 35 10.3 34.8 10.5 34.7C10.6 34.6 10.6 34.6 10.7 34.5C10.8 34.4 10.8 34.3 10.9 34.3C11 34.2 11.1 34.1 11.2 34C11.3 33.8 11.4 33.7 11.6 33.6C11.7 33.5 11.8 33.4 12 33.2C12.1 33.1 12.2 33 12.3 32.9C12.3 32.9 12.3 32.9 12.4 32.9C12.5 32.8 12.6 32.7 12.8 32.5C12.9 32.4 13 32.3 13 32.2C13.1 32.2 13.1 32.1 13.1 32C13.2 31.9 13.3 31.7 13.4 31.6C13.5 31.5 13.5 31.5 13.6 31.4C13.6 31.4 13.7 31.3 13.8 31.2C13.9 31.1 13.9 31.1 14 31C14.2 30.9 14.3 30.7 14.4 30.6C14.5 30.5 14.5 30.5 14.6 30.4C14.7 30.3 14.9 30.1 15 30C15.1 29.9 15.1 29.9 15.2 29.8C15.3 29.7 15.4 29.6 15.4 29.5C15.5 29.3 15.6 29.2 15.7 29C15.8 28.9 15.9 28.7 16 28.6C16.1 28.5 16.2 28.4 16.3 28.3C16.4 28.2 16.5 28.1 16.7 28C16.7 28 16.7 28 16.8 28H16.9C16.9 28 17 28 17 27.9C17.3 27.7 17.5 27.5 17.9 27.5C18 27.5 18.1 27.5 18.3 27.5C18.4 27.5 18.5 27.6 18.6 27.7C18.6 27.7 18.7 27.7 18.7 27.8C18.8 27.8 18.9 27.9 18.9 27.9C18.9 27.9 18.9 27.9 18.9 28C19 28 19.1 28.1 19.1 28.2L19.2 28.3C19.7 28.8 20 29.6 20.1 30.3C20.1 30.4 20.1 30.5 20.2 30.7C20.3 31.3 20.3 32 20.1 32.6C20.1 32.7 20.1 32.7 20.1 32.8C20 33.2 19.8 33.6 19.6 33.8C19.6 33.8 19.6 33.9 19.5 33.9C19.5 33.9 19.5 33.9 19.4 34C19.3 34.1 19.3 34.2 19.2 34.3H19L18.7 34.6C18.6 34.7 18.5 34.9 18.3 35C18.2 35.1 18.1 35.2 18 35.4C17.9 35.5 17.9 35.6 17.8 35.6C17.7 35.7 17.6 35.8 17.5 35.9L17.4 36C17.2 36.2 17 36.4 16.9 36.6L16.8 36.7C16.8 36.7 16.8 36.7 16.7 36.7H16.6C16.5 36.8 16.5 36.9 16.4 37C16.3 37.1 16.3 37.1 16.3 37.1C16.3 37.1 16.3 37.2 16.2 37.3C16.2 37.3 16.2 37.3 16.1 37.3C16.1 37.3 16.1 37.3 16 37.4C15.8 37.5 15.7 37.7 15.6 37.8C15.5 37.9 15.4 38 15.3 38.1C15.2 38.2 15.1 38.3 15 38.5C14.9 38.6 14.8 38.7 14.7 38.8C14.5 39 14.3 39.2 14.1 39.4C13.9 39.7 13.6 40 13.3 40.2C13.2 40.3 13.1 40.5 12.9 40.6C12.8 40.7 12.7 40.8 12.6 40.9L12.5 41C12.4 41.1 12.3 41.2 12.1 41.4C12 41.5 11.9 41.6 11.8 41.8L11.6 42C11.5 42.1 11.5 42.1 11.4 42.2C11.3 42.3 11.2 42.4 11.1 42.5C11 42.6 11 42.6 10.9 42.7C10.8 42.9 10.6 43 10.5 43.1C10.4 43.2 10.3 43.3 10.3 43.4C10.2 43.5 10.2 43.5 10.2 43.5C10.2 43.5 10.2 43.5 10.1 43.6H10C9.9 43.7 9.9 43.8 9.8 43.9L9.7 44C9.6 44.1 9.5 44.2 9.4 44.3C9.3 44.4 9.2 44.5 9.1 44.7L9 44.8C9 44.8 9 44.8 8.9 44.9C8.8 45 8.6 45.2 8.5 45.4C8.5 45.4 8.5 45.4 8.5 45.5C8.5 45.5 8.5 45.6 8.4 45.6C8.4 45.6 8.4 45.6 8.4 45.7L8.3 45.8V45.9C8.2 46 8.2 46.1 8.1 46.2C8.1 46.2 8.1 46.2 8.1 46.3L8 46.4C8 46.4 8 46.4 8 46.5V46.6C8 46.7 8 46.8 8 47V47.1C8 47.2 8 47.2 7.9 47.3V47.4C7.9 47.4 7.9 47.5 7.8 47.5C7.8 47.5 7.8 47.5 7.7 47.5C7.6 47.5 7.6 47.5 7.5 47.5C7.5 47.5 7.5 47.5 7.4 47.5H7.3V47.6H7.4C7.5 47.6 7.6 47.6 7.7 47.6C7.9 47.6 8.1 47.6 8.3 47.5H8.4C8.6 47.4 8.8 47.3 9 47.2C9 47.2 9.1 47.2 9.1 47.1C9.1 47.1 9.1 47.1 9.2 47.1C9.2 47.1 9.2 47.1 9.2 47C9.2 47 9.2 47 9.2 46.9H9.3L9.4 46.8H9.5C9.6 46.8 9.7 46.7 9.8 46.7C9.8 46.7 9.8 46.7 9.8 46.6C9.8 46.6 9.8 46.6 9.8 46.5C9.9 46.4 10 46.4 10 46.4H10.1C10.2 46.3 10.4 46.2 10.5 46.2C10.7 46.1 10.9 45.9 11.1 45.8C11.2 45.7 11.3 45.6 11.4 45.6C11.5 45.5 11.6 45.5 11.7 45.4C11.9 45.3 12 45.2 12.2 45.1C12.4 45 12.5 44.9 12.7 44.8C12.8 44.7 12.8 44.7 12.8 44.7C12.8 44.7 12.9 44.7 12.9 44.6C12.9 44.6 12.9 44.6 13 44.5H13.3C13.4 44.4 13.5 44.4 13.5 44.4C13.5 44.4 13.6 44.4 13.6 44.3C13.6 44.3 13.6 44.3 13.7 44.2L14 44L14.1 43.9L14.3 43.8L14.4 43.7C14.5 43.6 14.6 43.6 14.6 43.5L14.8 43.3H14.9C14.9 43.3 14.9 43.3 15 43.3C15 43.3 15 43.3 15 43.2C15.3 43 15.4 42.9 15.5 42.9H15.6C15.6 42.9 15.7 42.9 15.7 42.8C15.7 42.8 15.7 42.8 15.8 42.7L16 42.5C16.3 42.3 16.5 42.2 16.8 42H16.9C16.9 42 17 42 17 41.9C17.2 41.8 17.4 41.6 17.6 41.6L17.7 41.5V41.4C17.8 41.4 17.8 41.3 17.9 41.3L18 41.2C18.1 41.1 18.2 41.1 18.3 41C18.4 40.9 18.5 40.9 18.6 40.8H18.7C18.8 40.7 18.8 40.7 18.9 40.6C19 40.5 19.1 40.4 19.2 40.4C19.3 40.3 19.4 40.3 19.5 40.2C19.6 40.1 19.7 40 19.9 39.9C19.9 39.9 20 39.9 20 39.8C20 39.8 20.1 39.8 20.1 39.7C20.1 39.7 20.2 39.7 20.2 39.6C20.2 39.6 20.3 39.6 20.3 39.5C20.4 39.4 20.4 39.3 20.5 39.3L20.6 39.2C20.7 39.2 20.7 39.1 20.7 39.1C20.7 39.1 20.7 39.1 20.8 39.1C20.8 39.1 20.9 39.1 20.9 39C20.9 39 20.9 39 20.9 38.9C20.9 38.9 20.9 38.9 21 38.8L21.1 38.7L21 39C21.1 39 21.1 38.9 21.2 38.9L21.3 38.8C21.5 38.7 21.6 38.6 21.7 38.5C21.8 38.4 21.9 38.3 22.1 38.2C22.2 38.1 22.3 38 22.4 38C22.5 37.9 22.6 37.8 22.8 37.7C22.9 37.6 23 37.5 23.2 37.4C23.3 37.3 23.4 37.3 23.5 37.1C23.6 37 23.7 36.9 23.8 36.8C24 36.7 24.1 36.5 24.3 36.3C24.4 36.2 24.4 36.1 24.5 36.1C24.6 36 24.7 35.9 24.7 35.7C24.7 35.7 24.7 35.7 24.7 35.6V35.5C24.7 35.5 24.7 35.5 24.8 35.5C24.8 35.5 24.8 35.5 24.9 35.5C24.9 35.4 25 35.3 25.1 35.2C25.2 35 25.3 34.9 25.3 34.7C25.4 34.4 25.5 34.3 25.7 34.1C25.8 34 25.9 33.9 25.9 33.8C26 33.7 26.1 33.6 26.1 33.5C26.2 33.4 26.3 33.2 26.4 33.1C26.5 32.9 26.7 32.8 26.8 32.7C26.9 32.6 27 32.5 27.1 32.4C27.2 32.2 27.4 32.1 27.6 32H27.7C27.8 31.9 27.9 31.9 28.1 31.9C28.2 31.9 28.2 31.9 28.2 31.9C28.3 31.9 28.3 31.8 28.4 31.7C28.5 31.6 28.5 31.6 28.6 31.5C28.6 31.5 28.6 31.5 28.7 31.5C28.7 31.5 28.7 31.5 28.8 31.4H28.9C28.9 31.4 28.9 31.4 29 31.4C29 31.4 29.1 31.5 29.1 31.4C29.2 31.3 29.2 31.3 29.2 31.2C29.2 31.1 29.3 31.1 29.3 31.1H29.4L29.6 30.9C29.7 30.9 29.8 31 29.9 31.1H30C30.1 31.2 30.2 31.3 30.1 31.4C30.1 31.5 30 31.6 29.9 31.8C29.9 31.8 29.9 31.8 29.9 31.9V32C29.8 32.2 29.7 32.4 29.6 32.6C29.5 32.7 29.4 32.9 29.3 33C29.3 33 29.3 33.1 29.2 33.1H29.1V33.2C29.1 33.3 29 33.3 29 33.4C28.9 33.6 28.7 33.7 28.6 33.9C28.4 34.1 28.3 34.2 28.2 34.4C28.2 34.4 28.2 34.5 28.1 34.5C28.1 34.5 28.1 34.5 28 34.6L27.9 34.7C27.9 34.7 27.9 34.7 27.9 34.8H28C28 34.7 28 34.7 28.1 34.7C28.2 34.6 28.3 34.6 28.4 34.5C28.5 34.4 28.6 34.3 28.7 34.2C28.7 34.2 28.8 34.1 28.8 34.2C28.8 34.2 28.9 34.3 28.8 34.3C28.7 34.4 28.7 34.5 28.6 34.5C28.6 34.5 28.6 34.5 28.5 34.6V34.7C28.5 34.7 28.5 34.8 28.4 34.8C28.4 34.8 28.4 34.8 28.3 34.8C28.3 34.8 28.2 34.8 28.2 34.9C28.2 34.9 28.2 35 28.1 35C28.1 35 28 35 28 35.1V34.7H27.9C27.9 34.7 27.8 34.7 27.8 34.8C27.8 34.8 27.8 34.8 27.8 34.9C27.7 35 27.7 35 27.5 35C27.4 35 27.4 35 27.4 35.1C27.4 35.1 27.4 35.1 27.4 35.2C27.4 35.3 27.4 35.3 27.3 35.4V35.5C27.2 35.7 27.1 35.9 26.9 36.1H26.8C26.8 36.2 26.7 36.2 26.7 36.3C26.7 36.3 26.7 36.3 26.7 36.4C26.6 36.5 26.8 36.6 26.9 36.5C27 36.4 27 36.4 27 36.3C27.1 36.1 27.2 36 27.4 35.8C27.5 35.7 27.5 35.7 27.6 35.6C27.7 35.4 27.9 35.3 28.1 35.2C28.1 35.2 28.2 35.2 28.2 35.1V35C28 35 28 35 28 35C28 34.9 28.1 34.9 28.2 34.9H28.3C28.3 34.9 28.3 34.9 28.4 34.9C28.4 34.9 28.5 34.9 28.5 35V35.3C28.5 35.3 28.5 35.3 28.4 35.4C28.4 35.5 28.4 35.5 28.4 35.6C28.4 35.8 28.3 36 28.2 36.3C28.1 36.4 28.1 36.6 28.1 36.7V36.8C28.1 36.8 28.2 36.8 28.1 36.9C28.1 37 28 37.1 28 37.2C27.9 37.4 27.8 37.6 27.8 37.9C27.8 38 27.8 38 27.8 38C27.8 38 27.8 38.1 27.7 38.1C27.7 38.2 27.7 38.2 27.6 38.2V38.3C27.6 38.4 27.6 38.4 27.6 38.5C27.6 38.5 27.6 38.5 27.5 38.6L27.4 38.7C27.3 38.8 27.3 38.8 27.2 38.9C27 39.1 27 39.2 26.9 39.4C26.8 39.6 26.7 39.8 26.6 40C26.6 40 26.6 40 26.6 40.1V40.2C26.6 40.2 26.6 40.2 26.6 40.3C26.6 40.4 26.5 40.5 26.4 40.6C26.3 40.7 26.3 40.7 26.3 40.8C26.2 41 26.1 41.1 26 41.2C26 41.2 26 41.2 25.9 41.2H25.8C25.7 41.5 25.5 41.8 25.3 42C25.2 42.1 25.1 42.3 25.1 42.4C25 42.6 24.9 42.7 24.7 42.9C24.7 42.9 24.6 42.9 24.6 42.8C24.6 42.6 24.7 42.4 24.7 42.2C24.6 42.2 24.6 42.3 24.6 42.3C24.6 42.3 24.5 42.3 24.5 42.4C24.4 42.5 24.4 42.7 24.3 42.8C24.3 42.8 24.3 42.8 24.3 42.7C24.4 42.4 24.5 42.1 24.7 41.9C24.7 41.8 24.8 41.8 24.8 41.7C24.8 41.6 24.9 41.6 25 41.5C25.1 41.3 25.2 41.1 25.3 40.9C25.2 40.9 25.2 40.9 25.2 40.9C25.2 40.9 25.2 40.9 25.1 41C25.1 41 25.1 41 25 41C25 41 25 41 24.9 41C24.8 41.2 24.6 41.4 24.4 41.6C24.3 41.7 24.2 41.9 24.1 42C24.1 42.1 24 42.1 24 42.1C24 42.1 24 42.1 23.9 42.2C23.8 42.3 23.8 42.3 23.8 42.4C23.8 42.5 23.7 42.6 23.7 42.7C23.6 42.8 23.5 43 23.5 43.2C23.5 43.2 23.5 43.2 23.5 43.3C23.4 43.5 23.3 43.6 23.3 43.7C23.3 43.8 23.2 43.9 23.1 44C23 44.2 23 44.3 23 44.5C23 44.6 23 44.7 23.1 44.7C23.1 44.7 23.1 44.7 23.1 44.8C23.1 44.8 23.1 44.9 23.2 44.9C23.2 45 23.3 45 23.3 45.1C23.3 45.1 23.3 45.1 23.4 45.1C23.4 45 23.5 44.8 23.5 44.7V44.6C23.5 44.4 23.7 44.3 23.8 44.3H23.9C23.9 44.3 24 44.3 24 44.4V44.5C23.9 44.7 23.9 44.9 23.8 45.1C23.8 45.2 23.8 45.2 23.9 45.2C24.2 45.1 24.4 45 24.7 44.9C24.9 44.8 25 44.7 25.2 44.6C25.2 44.6 25.3 44.6 25.3 44.5C25.4 44.5 25.5 44.4 25.6 44.4H25.7C25.8 44.4 25.8 44.3 25.9 44.3C26.1 44.2 26.3 44.1 26.5 44.1C26.6 44.1 26.8 44 26.9 43.9C27.1 43.8 27.4 43.7 27.6 43.6C27.7 43.6 27.7 43.6 27.7 43.6C27.7 43.6 27.7 43.6 27.8 43.6C27.9 43.6 27.9 43.5 28 43.5C28.1 43.5 28.2 43.4 28.3 43.4C28.4 43.4 28.6 43.3 28.7 43.3C29.1 43.2 29.4 43.1 29.7 42.9C29.8 42.8 29.9 42.8 30 42.8C30.1 42.8 30.2 42.7 30.4 42.6C30.5 42.5 30.6 42.5 30.7 42.4L30.8 42.3C30.9 42.3 31 42.2 31 42.2L31.2 42C31.3 41.9 31.4 41.8 31.5 41.7C31.7 41.5 32 41.4 32.2 41.2C32.4 41.1 32.6 41 32.7 40.8C32.8 40.7 32.9 40.7 33 40.6C33.2 40.5 33.3 40.4 33.4 40.2C33.5 40.1 33.5 40.1 33.6 40C33.7 39.9 33.8 39.8 33.9 39.7C34 39.5 34.2 39.4 34.4 39.3C34.5 39.2 34.6 39.1 34.7 39C34.8 38.9 35 38.8 35.1 38.7C35.2 38.6 35.4 38.5 35.5 38.4L35.7 38.2C35.7 38.2 35.7 38.2 35.8 38.2C35.9 38.1 36 38 36.1 38C36.2 37.9 36.3 37.8 36.4 37.7C36.5 37.6 36.5 37.6 36.6 37.5C36.7 37.4 36.9 37.3 37 37.2C37 37.2 37.1 37.1 37.1 37C37.2 36.9 37.3 36.8 37.4 36.7C37.5 36.6 37.6 36.5 37.7 36.4C37.8 36.3 37.9 36.2 38 36.1C38.1 36 38.2 35.9 38.3 35.7C38.3 35.7 38.3 35.6 38.4 35.6C38.4 35.6 38.4 35.6 38.5 35.5C38.8 35.2 38.8 34.8 38.9 34.5C38.9 34.4 38.9 34.4 38.9 34.3C39 33.8 39.2 33.3 39.4 32.8C39.5 32.7 39.5 32.5 39.6 32.4C39.6 32.4 39.6 32.4 39.7 32.4C39.7 32.4 39.7 32.4 39.8 32.4C39.9 32.2 40 32.1 40.1 31.9C40.1 31.9 40.1 31.8 40.2 31.8C40.2 31.7 40.3 31.7 40.3 31.6C40.5 31.3 40.6 31.1 40.8 30.9C40.9 30.8 40.9 30.7 41 30.7C41 30.6 41.1 30.6 41.1 30.6C41.1 30.6 41.1 30.6 41.2 30.5C41.3 30.4 41.4 30.2 41.6 30.1C41.6 30 41.7 30 41.7 29.9L41.8 29.8C42.1 29.4 42.2 29.3 42.2 29.3C42.2 29.3 42.3 29.3 42.3 29.2L42.4 29.1C42.5 29 42.6 28.9 42.7 28.8C42.8 28.7 43 28.5 43.1 28.3C43.2 28.2 43.3 28.1 43.4 28C43.5 27.9 43.6 27.7 43.7 27.6L43.8 27.5C43.9 27.5 43.9 27.4 44 27.3C44 27.3 44 27.3 44 27.2L44.1 27.1C44.2 27 44.2 26.9 44.3 26.9C44.3 26.9 44.3 26.9 44.4 26.9C44.4 26.9 44.4 26.9 44.5 26.9C44.5 26.8 44.6 26.8 44.7 26.7L45 26.4C45.2 26.2 45.4 26 45.6 25.9L45.7 25.8C45.8 25.7 45.9 25.6 46.1 25.6C46.2 25.6 46.3 25.5 46.4 25.5C46.8 25.3 47.1 25.2 47.5 25.2C47.9 25.2 48.1 25.2 48.4 24.9C48.5 24.8 48.6 24.8 48.7 24.7L48.8 24.6C48.9 24.5 49 24.5 49.1 24.5C49.2 24.5 49.2 24.5 49.3 24.6C49.3 24.7 49.3 24.7 49.3 24.8C49.3 24.9 49.2 25 49.1 25.1H49C49 25.2 48.9 25.3 48.8 25.3L48.7 25.4V25.5C48.7 25.6 48.8 25.7 48.8 25.7L49 25.9C49.3 26.3 49.4 26.4 49.4 26.5V26.6C49.4 26.7 49.4 26.8 49.3 26.8C49.3 26.9 49.2 26.9 49.2 27C49.2 27 49.2 27.1 49.3 27.1C49.3 27.1 49.4 27.1 49.4 27.2C49.4 27.3 49.4 27.5 49.4 27.6V27.8C49.4 28.2 49.4 28.5 49.4 28.7C49.4 28.9 49.5 29.1 49.6 29.5C49.6 29.5 49.6 29.5 49.6 29.6C49.6 29.7 49.6 29.7 49.6 29.7C49.6 29.8 49.5 29.9 49.5 30V30.1C49.5 30.4 49.4 30.7 49.3 31C49.3 31.1 49.3 31.1 49.2 31.2C49.2 31.3 49.1 31.3 49 31.4C48.7 31.7 48.5 32 48.3 32.4V32.6C48.2 32.8 48 33.1 47.8 33.3C47.7 33.4 47.6 33.6 47.5 33.7C47.5 33.7 47.5 33.7 47.4 33.7H47.3C47.2 33.8 47.2 33.9 47.1 34L47 34.1C47 34.2 46.9 34.2 46.9 34.2H46.8C46.7 34.3 46.6 34.4 46.5 34.5L46.4 34.6C46.3 34.7 46.2 34.8 46.1 34.9C46 35 46 35 46 35.1L41.9 40C41.7 40 41.6 40.2 41.5 40.4C41.4 40.6 41.3 40.6 41.1 40.7C41 40.7 41 40.8 41 40.8C41 40.8 41 40.9 40.9 40.9C40.9 41 40.8 41 40.7 41.1L40.6 41.2C40.6 41.2 40.6 41.2 40.5 41.2C40.5 41.2 40.4 41.2 40.4 41.3C40.3 41.4 40.2 41.5 40.1 41.6L40 41.7C39.9 41.8 39.8 41.9 39.8 41.9C39.7 41.9 39.7 42 39.7 42C39.7 42 39.7 42 39.6 42.1L39.5 42.2C39.5 42.2 39.5 42.2 39.5 42.3C39.7 42.3 39.8 42.4 39.6 42.6L39.5 42.7H39.4L39.3 42.8C39.2 42.8 39.2 42.7 39.2 42.7H39.1C39 42.7 39 42.7 39 42.6C39 42.6 39 42.6 39.1 42.5C39.2 42.5 39.2 42.4 39.2 42.4V42.3C39.2 42.2 39.2 42.1 39.3 42C39.4 41.9 39.4 41.9 39.4 41.9C39.4 41.9 39.5 41.9 39.5 41.8C39.6 41.7 39.6 41.6 39.7 41.5C39.7 41.4 39.8 41.4 39.8 41.3C39.8 41.3 39.8 41.2 39.7 41.3C39.5 41.4 39.4 41.5 39.3 41.5H39.2C39.1 41.5 39 41.6 38.9 41.6C38.8 41.6 38.8 41.7 38.8 41.7C38.8 41.7 38.7 41.7 38.7 41.8C38.7 41.8 38.7 41.8 38.6 41.9C38.5 42 38.4 42.1 38.2 42.2C38 42.4 37.9 42.5 37.7 42.7C37.6 42.7 37.6 42.8 37.6 42.8C37.8 42.7 38 42.5 38.2 42.4C38.2 42.4 38.3 42.4 38.3 42.3L38.4 42.2C38.5 42.1 38.6 42 38.7 41.9L38.8 41.8C38.8 41.8 38.8 41.8 38.9 41.8C38.9 41.8 39 41.8 38.9 41.9C38.8 42.2 38.6 42.4 38.4 42.5C38.3 42.6 38.3 42.6 38.2 42.7C38.1 42.9 38 43 37.8 43.1H37.7C37.6 43.2 37.5 43.2 37.4 43.3C37.4 43.4 37.3 43.4 37.3 43.5C37.2 43.6 37 43.7 36.9 43.8C36.8 43.9 36.8 43.9 36.7 44C36.6 44.1 36.5 44.2 36.4 44.3C36.4 44.3 36.4 44.3 36.3 44.3C36.2 44.4 36.1 44.5 36 44.6C35.9 44.8 35.8 44.9 35.6 45C35.5 45.1 35.5 45.1 35.4 45.2C35.2 45.3 35.1 45.4 34.9 45.5C34.8 45.6 34.6 45.7 34.5 45.8L34.8 46C34.7 46.1 34.6 46.2 34.6 46.3C34.3 46.7 34.2 46.8 34.1 46.8C34.1 46.8 34 46.8 33.9 46.8C33.9 46.7 34 46.6 34.1 46.6C34.1 46.6 34.1 46.6 34.2 46.5L34.3 46.4C34.4 46.3 34.5 46.2 34.6 46.1C34.7 46 34.8 45.9 34.9 45.8C35.1 45.6 35.2 45.5 35.4 45.3V45.2C35.2 45.2 35.1 45.3 35 45.4C34.8 45.6 34.7 45.7 34.5 45.9C34.3 46 34.2 46.2 34 46.4C33.9 46.5 33.8 46.6 33.8 46.6C33.8 46.6 33.8 46.6 33.7 46.7C33.7 46.7 33.7 46.7 33.6 46.8C33.6 46.8 33.5 46.8 33.5 46.9C33.5 46.9 33.5 46.9 33.5 47C33.5 47 33.5 47 33.4 47.1H33V47C33 47 33 47 33 46.9C33.1 46.9 33.1 46.8 33.2 46.8C33.3 46.7 33.3 46.7 33.4 46.6L33.5 46.5C33.3 46.6 33.1 46.8 32.9 46.9C33 46.9 32.9 47 32.9 47C32.8 47.1 32.7 47.1 32.7 47.2C32.6 47.3 32.6 47.3 32.5 47.4C32.5 47.4 32.5 47.4 32.4 47.4C32.4 47.4 32.3 47.4 32.3 47.3C32.3 47.2 32.3 47.2 32.4 47.1C32.4 47.1 32.4 47.1 32.5 47C32.5 47 32.5 46.9 32.4 46.9C32.3 46.9 32.2 47 32.1 47.1C32.1 47.1 32.1 47.1 32.1 47.2C32.1 47.2 32.1 47.3 32 47.3C31.9 47.7 31.5 48.1 31.1 48.3C31 48.4 30.9 48.4 30.8 48.5C30.5 48.7 30.4 48.8 30.3 48.8C30.2 48.9 30 48.9 29.9 49L29.8 49.1C29.3 49.3 29.2 49.4 29.1 49.4H29C28.9 49.4 28.8 49.4 28.7 49.5C28.5 49.6 28.4 49.6 28.2 49.6H28C27.7 49.6 27.4 49.7 27.1 49.8C27 49.8 27 49.8 26.9 49.9C26.8 49.9 26.8 49.9 26.7 50H26.6C26.3 50 26.2 50 26 50C25.8 50 25.7 50.1 25.6 50.2C25.4 50.3 25.2 50.4 25 50.4C24.9 50.4 24.9 50.4 24.8 50.4C24.8 50.4 24.8 50.4 24.7 50.3C24.7 50.3 24.7 50.3 24.7 50.2C24.7 50.1 24.7 50.1 24.7 50C24.7 49.9 24.7 49.9 24.6 49.9C24.3 50 24 50.1 23.7 50.1H23.6C23.3 50.1 23.1 50.1 22.8 50C22.6 50 22.4 49.9 22.2 49.9C22 49.9 21.8 49.8 21.7 49.7C21.6 49.6 21.6 49.6 21.5 49.6H21.1C21 49.6 20.9 49.6 20.8 49.6C20.3 49.5 19.9 49.4 19.5 49V48.9C19.5 48.9 19.5 48.9 19.5 48.8C19.4 48.7 19.4 48.7 19.3 48.6C19.2 48.5 19.3 48.3 19.3 48.2V48.1C19.3 48 19.3 47.9 19.3 47.9V47.8C19.3 47.8 19.3 47.7 19.2 47.7H19.1C19 47.6 19.1 47.4 19.1 47.3C19.1 47.3 19.1 47.2 19.2 47.2C19.2 47.2 19.3 47.2 19.3 47.1C19.3 46.9 19.3 46.6 19.4 46.4V46.3C19.4 46.2 19.4 46.2 19.4 46.1C19.4 46 19.4 46 19.4 45.9C19.4 45.8 19.4 45.8 19.5 45.7C19.5 45.7 19.6 45.6 19.6 45.5C19.6 45.4 19.6 45.4 19.6 45.3C19.6 44.8 19.9 44.4 20.1 43.9C20.1 43.8 20.2 43.7 20.2 43.6C20.3 43.4 20.4 43.2 20.5 43V42.9C20.5 42.8 20.5 42.8 20.6 42.7V42.6C20.8 42.1 20.8 42 20.9 42C20.9 41.9 20.9 41.8 20.9 41.8V41.7C20.9 41.7 20.8 41.6 20.8 41.7C20.8 41.7 20.7 41.8 20.7 41.9V42L20.6 42.1H20.5C20.3 42.1 20.1 42.3 20 42.4C20 42.4 20 42.4 19.9 42.5L19.8 42.6C19.7 42.6 19.7 42.7 19.7 42.7C19.7 42.7 19.7 42.7 19.6 42.8C19.6 42.8 19.6 42.8 19.5 42.8C19.5 42.8 19.4 42.8 19.4 42.9L19 42.7C18.9 42.7 18.9 42.7 18.9 42.8C18.9 42.8 18.8 42.8 18.8 42.9C18.7 43 18.7 43 18.6 43.1L18.5 43C18.4 43 18.4 43.1 18.4 43.1C18.4 43.1 18.4 43.1 18.3 43.2C18.2 43.3 18.1 43.4 18 43.4C17.8 43.6 17.6 43.7 17.4 43.9H17.3C17 44 17 44.1 17 44.1C17 44.1 16.9 44.1 16.9 44.2C16.7 44.3 16.5 44.4 16.4 44.5C15.9 44.7 15.5 45.1 15.1 45.5C15.1 45.5 15.1 45.5 15 45.5C14.9 45.6 14.8 45.4 14.9 45.4H15C15 45.3 15.1 45.3 15.2 45.2L15.6 44.8C15.5 44.8 15.5 44.9 15.4 44.9C15.3 45 15.1 45.1 15 45.2C14.8 45.3 14.7 45.4 14.5 45.6C14.4 45.7 14.3 45.7 14.3 45.8C14 45.8 14 45.9 13.9 46C13.8 46.1 13.8 46.1 13.7 46.1C13.3 46.2 13 46.5 12.7 46.7C12.6 46.8 12.5 46.9 12.4 46.9C12.3 47 12.2 47.1 12.1 47.2C12 47.2 12 47.3 12 47.3C12 47.3 12 47.3 11.9 47.3H11.8C11.7 47.4 11.7 47.4 11.7 47.5H11.6C11.4 47.6 11.3 47.7 11.2 47.9C11.1 48 11 48.1 10.8 48.2H10.7C10.5 48.3 10.4 48.4 10.3 48.5C10.2 48.6 10.1 48.6 10 48.7C9.9 48.8 9.8 48.8 9.7 48.8C9.5 48.9 9.3 49 9.2 49.2C9.2 49.2 9.2 49.2 9.1 49.3C9.1 49.3 9.1 49.3 9 49.4C8.9 49.5 8.9 49.5 8.8 49.6C8.8 49.6 8.8 49.7 8.7 49.7H8.6C8.1 49.9 7.6 50.1 7.1 50.4C7.1 50.4 7 50.4 7 50.5C7 50.5 6.9 50.5 6.9 50.6C6.8 50.6 6.7 50.7 6.6 50.8C6.4 50.9 6.3 51 6.1 51.1H6C5.8 51.2 5.7 51.2 5.5 51.3H5.2C4.3 51.5 3.3 51.4 2.5 50.9L2.4 50.8C2.4 50.8 2.4 50.8 2.4 50.7C2.4 50.7 2.4 50.7 2.4 50.6H2.3C2.3 50.6 2.2 50.6 2.2 50.5C2.2 50.5 2.2 50.5 2.2 50.4C1.9 50.3 1.8 49.9 1.8 49.6C1.8 49.6 1.8 49.6 1.8 49.5C1.8 49.3 1.7 49.2 1.7 49V48.9C1.6 48.3 1.7 47.6 1.9 47C1.9 46.9 2 46.8 2 46.7C2.1 46.5 2.1 46.3 2.2 46.1C2.2 46 2.3 45.9 2.3 45.8C2.4 45.6 2.5 45.3 2.6 45.1V45C2.7 44.9 2.7 44.7 2.8 44.6L2.9 44.5C3 44.3 3.1 44.1 3.3 43.9V43.8C3.4 43.7 3.5 43.5 3.6 43.4C3.6 43.3 3.7 43.3 3.7 43.2L3.8 43.1C3.8 43 3.9 43 3.9 42.9C4 42.8 4.1 42.7 4.1 42.5V42.4C4.2 42.3 4.2 42.2 4.3 42.1C4.4 42 4.5 41.8 4.6 41.7L4.7 41.6C4.7 41.6 4.7 41.6 4.8 41.6C4.8 41.6 4.8 41.6 4.9 41.6C5 41.4 5.2 41.2 5.3 41C5.4 40.9 5.5 40.7 5.6 40.5C5.6 40.4 5.7 40.4 5.8 40.3C5.6 40.5 5.8 40.3 5.8 40.2ZM19.5 31.6C19.4 31.6 19.3 31.6 19.3 31.7V31.8C19.3 31.8 19.3 31.8 19.3 31.9C19.3 31.9 19.3 31.9 19.4 31.9C19.4 31.9 19.5 31.9 19.5 32C19.5 32 19.5 32.1 19.4 32.1H19.2C19.1 32.2 19.1 32.3 19.1 32.4C19.1 32.4 19.1 32.5 19.2 32.5C19.2 32.5 19.2 32.5 19.2 32.6C19.2 32.6 19.1 32.6 19.1 32.7C19.1 32.8 19.1 32.8 19.1 32.8C19.1 32.8 19.1 32.9 19 32.9C18.9 33 18.9 33.2 18.9 33.3C18.9 33.5 18.9 33.6 18.8 33.6C18.8 33.6 18.8 33.6 18.8 33.7H19C19 33.6 19.1 33.5 19.1 33.4V33.3C19.1 33.2 19.2 33.2 19.2 33.1C19.2 33 19.2 33 19.3 32.9C19.4 32.8 19.4 32.7 19.4 32.6C19.5 32.5 19.5 32.4 19.6 32.4C19.6 32.4 19.7 32.4 19.7 32.3C19.7 32.2 19.8 32.2 19.8 32.1V32C19.8 31.9 19.8 31.9 19.8 31.8C19.6 31.7 19.5 31.7 19.5 31.6ZM37.1 41.7C37 41.7 36.9 41.8 36.8 41.8C36.7 41.8 36.7 41.8 36.7 41.8C36.7 41.8 36.7 41.8 36.7 41.9V42.1C36.7 42.1 36.7 42.2 36.6 42.2C36.5 42.3 36.5 42.3 36.5 42.4C36.4 42.5 36.4 42.6 36.3 42.6L36.4 42.5C36.4 42.5 36.4 42.5 36.5 42.4C36.6 42.4 36.6 42.3 36.7 42.3C36.8 42.2 36.9 42.2 36.9 42.1L37 42C37.2 41.9 37.3 41.8 37.5 41.7C37.6 41.6 37.7 41.6 37.8 41.5C37.8 41.5 37.8 41.4 37.7 41.4C37.4 41.5 37.3 41.6 37.1 41.7ZM37.2 42.8C37.1 42.8 37.1 42.8 37.1 42.8C37 43 36.9 43 36.7 43C36.6 43 36.5 43.1 36.4 43.2C36.4 43.2 36.4 43.2 36.4 43.3C36.4 43.3 36.4 43.3 36.4 43.4C36.4 43.4 36.4 43.4 36.4 43.5V43.7C36.5 43.7 36.6 43.7 36.7 43.7C36.7 43.7 36.8 43.7 36.8 43.6L37 43.5C37.1 43.4 37.2 43.3 37.2 43.3C37.2 43.1 37.2 43 37.2 42.8C37.3 42.9 37.3 42.9 37.2 42.8ZM22.5 43.2C22.4 43.2 22.4 43.3 22.3 43.3C22.3 43.3 22.3 43.4 22.2 43.4C22.2 43.5 22.1 43.5 22.1 43.6C22 43.8 21.8 43.9 21.9 44.1V44.4C21.8 44.6 21.8 44.7 21.7 44.9C21.7 45.1 21.8 45.3 21.8 45.4V45.5C21.9 45.7 22.1 45.8 22.2 45.6L22.4 45.4C22.5 45.4 22.6 45.4 22.7 45.4L22.8 45.5C22.8 45.5 22.8 45.5 22.8 45.4L22.7 45.3C22.6 44.9 22.6 44.8 22.6 44.6C22.6 44.5 22.5 44.4 22.5 44.3C22.4 44.1 22.3 43.9 22.2 43.7C22.2 43.6 22.3 43.5 22.3 43.5V43.4C22.5 43.5 22.6 43.4 22.5 43.2ZM35 44.6C35.1 44.5 35.2 44.5 35.3 44.5L35 44.6ZM35.4 44.6C35.4 44.7 35.4 44.8 35.4 44.9V44.6Z" fill="#0D1014"/>
<path d="M49 27L48.8 27.2V27.3C48.8 27.4 48.8 27.5 48.7 27.5C48.7 27.6 48.6 27.6 48.6 27.7C48.6 27.7 48.6 27.8 48.7 27.8H48.8C48.9 27.7 48.9 27.7 48.9 27.6V27.4C48.9 27.4 48.9 27.3 49 27.3C49 27.2 49 27.2 49 27Z" fill="#0D1014"/>
<path d="M28.6 33.9C28.6 33.9 28.7 33.8 28.7 33.9C28.7 33.9 28.8 34 28.7 34C28.7 34.1 28.6 34.1 28.6 34.2C28.6 34.2 28.6 34.2 28.5 34.3V34.4C28.5 34.4 28.5 34.4 28.5 34.5C28.5 34.5 28.5 34.5 28.4 34.5C28.4 34.5 28.4 34.6 28.3 34.6C28.3 34.6 28.2 34.6 28.2 34.7H28H27.9C27.9 34.7 27.8 34.7 27.8 34.8C27.8 34.8 27.8 34.9 27.7 34.9C27.6 34.9 27.6 34.8 27.6 34.8C27.6 34.7 27.7 34.7 27.8 34.6C27.8 34.6 27.9 34.5 28 34.6V34.5C28 34.5 28 34.4 28.1 34.4C28.1 34.4 28.2 34.3 28.3 34.3C28.3 34.3 28.3 34.3 28.4 34.3C28.5 34.3 28.5 34.2 28.6 34.2V33.9Z" fill="#0D1014"/>
<path d="M7.5 47.4C7.5 47.3 7.5 47.3 7.5 47.4L7.3 47.3C7.3 47.4 7.2 47.4 7.2 47.4V47.5C7.2 47.5 7.2 47.5 7.2 47.6H7.3C7.3 47.6 7.3 47.6 7.4 47.6C7.4 47.6 7.4 47.5 7.3 47.5C7.2 47.5 7.2 47.4 7.3 47.4H7.5C7.5 47.5 7.5 47.5 7.5 47.4Z" fill="#0D1014"/>
<path d="M38 42.9C38 42.8 38.1 42.8 38 42.9C38 42.8 38 42.8 38 42.9C37.9 42.9 37.8 42.9 37.7 43H37.6C37.6 43 37.6 43 37.5 43C37.4 43 37.4 43.1 37.4 43.1C37.4 43.1 37.4 43.1 37.4 43.2C37.4 43.2 37.4 43.1 37.5 43.2C37.5 43.2 37.5 43.2 37.6 43.2H37.7L37.8 43.1C37.9 42.9 38 42.9 38 42.9Z" fill="#0D1014"/>
<path d="M14 45.8C13.9 45.8 13.9 45.8 14 45.8C13.9 45.8 13.9 45.8 13.9 45.8C13.9 45.8 13.9 45.8 13.8 45.9H13.9C14 46.1 14 46 14 45.8Z" fill="#0D1014"/>
<path d="M37.2 43.2C37.1 43.1 37.1 43.1 37.2 43.2H37.1L37 43.3C36.9 43.4 37 43.5 37.1 43.4C37.1 43.3 37.1 43.3 37.2 43.2Z" fill="#0D1014"/>
<path d="M19 42.2C19.1 42.1 19 42 18.9 42.1C18.9 42.1 18.9 42.1 18.9 42.2C18.9 42.3 18.9 42.3 19 42.2Z" fill="#0D1014"/>
<path d="M33.7 46.4C33.7 46.4 33.7 46.5 33.6 46.5L33.5 46.6C33.5 46.7 33.4 46.7 33.4 46.8L33.3 46.9C33.3 46.9 33.3 46.9 33.2 46.9C33.1 46.9 33.1 47 33.1 47.1C33.1 47.1 33.1 47.2 33.2 47.2C33.3 47.2 33.3 47.1 33.3 47.1C33.3 47.1 33.3 47.1 33.3 47L33.4 46.9C33.4 46.9 33.4 46.9 33.5 46.8L33.6 46.7C33.6 46.7 33.6 46.7 33.7 46.7C33.8 46.6 33.9 46.6 33.9 46.5C34 46.3 34.2 46.2 34.4 46C34.5 45.9 34.7 45.8 34.8 45.6L34.9 45.5L35.1 45.3V45.2H35C34.8 45.3 34.7 45.5 34.5 45.6C34.4 45.6 34.3 45.7 34.3 45.7C34.3 45.7 34.3 45.7 34.3 45.8C34.2 45.8 34.2 45.8 34.1 45.9L33.8 46.1C33.8 46.1 33.8 46.1 33.7 46.1L33.6 46.2C33.6 46.2 33.5 46.2 33.5 46.3C33.5 46.3 33.4 46.3 33.4 46.4C33.4 46.4 33.4 46.4 33.3 46.4C33.1 46.5 33 46.6 32.8 46.7H32.7C32.7 46.7 32.7 46.7 32.7 46.8V46.9L32.6 47C32.5 47.1 32.5 47.1 32.5 47.2C32.5 47.2 32.5 47.2 32.5 47.3C32.6 47.3 32.6 47.3 32.7 47.3C32.8 47.3 32.8 47.2 32.9 47.1C33 47 33 46.9 33.1 46.9C33.2 46.8 33.2 46.8 33.3 46.7C33.4 46.6 33.6 46.5 33.7 46.4Z" fill="#0D1014"/>
<path d="M28 36.4C28 36.3 27.9 36.3 27.8 36.3C27.8 36.3 27.8 36.3 27.7 36.3C27.6 36.3 27.6 36.3 27.6 36.4C27.5 36.4 27.5 36.5 27.4 36.7L27.3 36.8C27.2 37 27 37.2 27 37.4C27 37.4 27 37.4 26.9 37.4V37.5C26.8 37.6 26.8 37.7 26.8 37.8V37.9L26.9 37.8C27.1 37.7 27.2 37.6 27.4 37.4L27.5 37.3C27.5 37.3 27.6 37.3 27.6 37.2C27.6 37.1 27.7 37.1 27.7 36.9C27.7 36.8 27.7 36.8 27.8 36.8V36.7L28 36.4Z" fill="#0D1014"/>
<path d="M36 44.5C36.1 44.5 36.1 44.6 36 44.5L36.1 44.6C36.1 44.7 36.1 44.7 36 44.8C35.9 44.9 35.9 44.9 35.8 45L35.5 45.3C35.5 45.3 35.5 45.3 35.4 45.3C35.3 45.3 35.3 45.4 35.3 45.4V45.5C35.3 45.6 35.3 45.6 35.2 45.6C35.2 45.6 35.1 45.7 35 45.7C34.8 45.8 34.6 46 34.4 46.2C34.1 46.6 34 46.7 33.9 46.7C33.9 46.7 33.8 46.7 33.8 46.8H33.7C33.7 46.8 33.7 46.8 33.6 46.8C33.6 46.7 33.7 46.6 33.8 46.6L33.9 46.5C34 46.4 34.1 46.3 34.2 46.2C34.3 46.1 34.4 46 34.5 45.9C34.7 45.7 34.9 45.6 35.1 45.4C35.1 45.4 35.1 45.4 35.1 45.3V45.2H35.2C35.2 45.2 35.3 45.2 35.3 45.1C35.4 45 35.5 44.9 35.6 44.8L35.7 44.7C36 44.6 36 44.6 36 44.5Z" fill="#0D1014"/>
<path d="M32 47.9V48.1C31.9 48.2 31.8 48.2 31.7 48.3C31.5 48.4 31.3 48.5 31.2 48.6C31.2 48.6 31.1 48.6 31.1 48.7C31.1 48.7 31 48.7 31 48.8C31 48.9 30.8 49 30.7 49.1L30.6 49.2C30.5 49.2 30.5 49.2 30.4 49.2H30.3V49.1C30.3 49 30.4 49 30.4 49C30.4 49 30.4 49 30.5 49C30.7 48.9 30.8 48.8 31 48.7C31.2 48.5 31.5 48.4 31.7 48.3C31.7 48.3 31.8 48.3 31.8 48.2C31.9 47.9 31.9 47.9 32 47.9Z" fill="#0D1014"/>
</svg>
