<svg width="53" height="56" viewBox="0 0 53 56" fill="none" xmlns="http://www.w3.org/2000/svg">
<g clip-path="url(#clip0_686_339)">
<path fill-rule="evenodd" clip-rule="evenodd" d="M53 22.4C52.9 22.5 52.2 22.6 52.1 22.7C52 22.8 51.9 22.8 51.7 22.9C51.5 23 51.3 23.1 51.2 23.2C51 23.3 50.9 23.4 50.7 23.5C50.5 23.6 50.4 23.6 50.2 23.7C50.2 23.7 50.2 23.7 50.1 23.7C49.8 23.8 49.6 23.9 49.3 24C49.3 24 49.2 24 49.2 24.1C49.1 24.1 49.2 24.2 49.2 24.2C49.3 24.2 49.3 24.2 49.3 24.3C49.3 24.4 49.2 24.4 49.1 24.4C49.1 24.4 49.1 24.4 49 24.4C48.8 24.5 48.7 24.5 48.5 24.6C48.2 24.7 48 24.8 47.7 25C47.6 25 47.7 25.1 47.7 25.1C47.8 25.1 47.8 25.1 47.8 25.1C47.9 25.1 47.9 25.2 47.9 25.2C47.9 25.2 47.9 25.2 47.8 25.2C47.8 25.2 47.7 25.2 47.7 25.3C47.7 25.3 47.7 25.4 47.8 25.4C47.9 25.4 48 25.4 48.2 25.4H48.3C48.6 25.4 48.9 25.3 49.2 25.2C49.3 25.2 49.4 25.1 49.6 25.1C49.6 25.1 49.6 25.1 49.7 25.1C49.8 25.1 49.8 25.1 49.9 25H50C50.1 25 50.1 25 50.2 24.9C50.3 24.9 50.4 24.8 50.5 24.8H50.6C50.8 24.7 50.9 24.9 50.7 25C50.7 25 50.6 25 50.6 25.1C50.6 25.1 50.5 25.1 50.5 25.2L50.4 25.3C50.2 25.4 50 25.5 49.8 25.5C49.7 25.5 49.6 25.6 49.5 25.6C49.2 25.7 48.9 25.8 48.6 25.9H48.5C48 25.9 47.9 26 47.7 26C47.6 26 47.5 26.1 47.4 26.2C47.3 26.3 47.2 26.4 47 26.5L46.9 26.6C46.8 26.7 46.7 26.7 46.5 26.7C46.3 26.7 46.1 26.8 45.9 26.9C45.7 27 45.5 27 45.2 27.1H45.1C45 27.1 44.9 27.2 44.9 27.2C44.7 27.3 44.6 27.1 44.7 27L44.8 26.9C44.9 26.8 44.8 26.7 44.7 26.7C44.3 26.8 43.8 26.9 43.5 27.2C43.4 27.3 43.2 27.4 43.1 27.4H43C42.8 27.5 42.6 27.6 42.3 27.6H42.2C42.2 27.6 42.1 27.6 42.1 27.5C42.1 27.5 42.1 27.5 42.1 27.4C42.1 27.3 42.1 27.2 42 27.2C41.9 27.2 41.8 27.3 41.7 27.3C41.5 27.4 41.2 27.4 41 27.4C40.9 27.4 40.8 27.4 40.7 27.4C40.4 27.4 40.2 27.4 39.9 27.4C39.5 27.4 39.2 27.4 38.9 27.5C38.8 27.5 38.8 27.6 38.7 27.6H38.4C38.2 27.6 38.1 27.7 37.9 27.7H37.8C37.2 27.7 37 27.8 36.9 27.7C36.8 27.7 36.8 27.7 36.7 27.6C36.6 27.6 36.6 27.5 36.6 27.5C36.6 27.4 36.7 27.3 36.7 27.3C36.8 27.3 36.8 27.3 36.9 27.3H37.1C37.2 27.3 37.3 27.3 37.3 27.3H37.5C37.5 27.3 37.5 27.3 37.5 27.2C37.5 27.1 37.5 27 37.4 27C37.3 27 37.2 27 37.1 27C37 27 37 27 36.9 27C36.8 27 36.7 27 36.6 27H36.4C36.3 27 36.2 27 36 27H35.9C35.8 27 35.8 27 35.8 27C35.8 27 35.8 27 35.7 27C35.6 27 35.5 27 35.4 27C35.3 27 35.3 27 35.2 27C35.1 27 35 27 34.9 27C34.1 26.9 33.4 26.8 32.8 26.2C32.7 26.1 32.7 26.1 32.7 26.1C32.7 26.1 32.7 26 32.6 26C32.5 26 32.3 25.9 32.2 25.8H32.1C31.8 25.6 31.6 25.5 31.3 25.2L31.2 25.1C31.1 25.1 31.1 25 31 25C31 25 31 24.9 30.9 24.9C30.8 24.8 30.7 24.6 30.6 24.5C30.6 24.4 30.5 24.4 30.5 24.4C30.5 24.3 30.4 24.3 30.4 24.2C30.3 24.2 30.3 24.1 30.3 24C30.3 23.5 30.3 23.1 30.4 22.6C30.4 22.4 30.4 22.2 30.4 22C30.4 22 30.4 21.9 30.3 21.9C30.3 21.9 30.2 21.9 30.2 22C30.2 22 30.2 22 30.1 22.1L29.8 22.4C29.7 22.5 29.6 22.5 29.6 22.5C29.6 22.5 29.6 22.5 29.6 22.6C29.6 22.6 29.6 22.6 29.5 22.7C29.4 22.8 29.2 22.9 29.1 23C29 23.1 28.9 23.2 28.7 23.2C28.5 23.3 28.4 23.4 28.3 23.5C28.2 23.6 28 23.7 27.9 23.8C28.1 23.7 28.3 23.6 28.5 23.5C28.7 23.4 28.8 23.3 29 23.3C29 23.3 29 23.3 29.1 23.3V23.4C28.9 23.6 28.6 23.8 28.4 24C28.3 24.1 28.3 24.1 28.2 24.2L28.1 24.3H28C27.9 24.4 27.9 24.4 27.8 24.4L27.7 24.5C27.7 24.6 27.6 24.6 27.5 24.7C27.3 24.8 27.2 25 27 25.1C26.9 25.2 26.7 25.3 26.5 25.4C26.5 25.4 26.5 25.4 26.5 25.5C26.3 25.7 26.1 25.8 25.8 25.8C25.5 25.8 25.3 25.9 25.1 26.1C25.1 26.1 25 26.1 25 26.2C25 26.2 25 26.2 24.9 26.2L24.8 26.3C24.7 26.4 24.6 26.5 24.5 26.5C24.5 26.5 24.5 26.5 24.4 26.5C24.4 26.5 24.3 26.4 24.4 26.4C24.4 26.3 24.4 26.2 24.3 26.3C24.3 26.3 24.2 26.3 24.1 26.4L24 26.5C23.9 26.5 23.9 26.6 23.9 26.6C23.9 26.6 23.9 26.6 23.8 26.7C23.7 26.8 23.6 26.8 23.5 26.9C23.4 27 23.2 27 23.1 27.1C22.8 27.3 22.4 27.5 22 27.7C21.9 27.7 21.9 27.7 21.8 27.8L21.7 27.9H21.4C21.3 27.9 21.3 27.8 21.3 27.8C21.4 27.7 21.5 27.6 21.6 27.5V27.4C21.6 27.4 21.5 27.4 21.6 27.3C21.6 27.2 21.7 27.1 21.8 27.1L22.1 26.8C22.2 26.7 22.3 26.7 22.4 26.6H22.5C22.7 26.5 22.9 26.3 23.2 26.2C23.4 26.1 23.5 26 23.7 25.9C23.8 25.8 23.9 25.8 24 25.7C24.2 25.6 24.2 25.5 24.3 25.5C24.4 25.4 24.4 25.4 24.5 25.2C24.5 25.2 24.5 25.1 24.6 25.1H24.7C25 25 25.3 24.9 25.5 24.7C25.7 24.5 25.9 24.4 26.2 24.3C26.3 24.3 26.3 24.2 26.4 24.2C26.5 24.1 26.6 24.1 26.7 24C26.8 23.9 26.9 23.9 27 23.9C27.4 23.8 27.7 23.6 28 23.3C28 23.3 28 23.3 28.1 23.3C28.4 23.2 28.6 23.1 28.8 22.9C28.9 22.9 28.9 22.8 29 22.8L29.1 22.7C29.1 22.7 29.1 22.7 29.2 22.7C29.2 22.7 29.2 22.7 29.3 22.6C29.4 22.5 29.5 22.4 29.6 22.3H29.7C29.7 22.3 29.8 22.3 29.8 22.2C29.9 22.1 29.9 22.1 30 22C30.1 21.9 30.2 21.9 30.3 21.9L30.4 22C30.4 22.1 30.4 22.1 30.3 22.2C30.3 22.2 30.3 22.3 30.2 22.3C30.1 22.4 30.1 22.4 30.1 22.4C30.1 22.4 30 22.4 30 22.5C30 22.5 30 22.6 30.1 22.6C30.1 22.6 30.1 22.6 30.2 22.6H30.3C30.5 22.5 30.6 22.3 30.7 22.1V22C30.7 21.9 30.8 21.8 30.8 21.7C30.8 21.6 30.8 21.6 30.9 21.5C31 21.2 31.1 21 31.1 20.7C31.1 20.6 31.1 20.6 31.2 20.5V20.4C31.2 20.3 31.3 20.2 31.4 20.2C31.4 20.1 31.5 20.1 31.5 20V19.9C31.6 19.8 31.6 19.6 31.7 19.5C31.9 19.2 32 18.9 32.2 18.6C32.3 18.5 32.3 18.4 32.4 18.2L32.3 18.3C32.3 18.3 32.3 18.3 32.2 18.3C32.1 18.4 32.1 18.4 32 18.5C31.8 18.7 31.7 18.8 31.5 18.9L31.4 19C31.3 19.1 31.2 19.1 31.2 19.1C31.2 19.1 31.1 19.1 31.1 19.2C31.1 19.2 31.1 19.2 31.1 19.3C31 19.4 30.9 19.4 30.9 19.5H30.8C30.9 19 30.9 19 30.9 19C30.9 19 30.8 19 30.8 19.1C30.7 19.2 30.7 19.2 30.6 19.3H30.4C30.3 19.3 30.3 19.4 30.2 19.4C30.1 19.5 29.9 19.6 29.7 19.7C29.5 19.8 29.4 19.9 29.3 20H29.2C29.2 20 29.1 20 29.2 19.9C29.3 19.8 29.4 19.7 29.5 19.6C29.5 19.6 29.5 19.6 29.6 19.6C29.6 19.6 29.7 19.6 29.7 19.5C29.8 19.4 29.8 19.4 29.9 19.4C30 19.3 30.1 19.2 30.2 19.1C30.3 19 30.4 19 30.5 18.9C30.6 18.8 30.7 18.8 30.7 18.7C30.9 18.5 31.1 18.4 31.3 18.3C31.4 18.2 31.5 18.2 31.6 18.1C31.7 18 31.9 17.9 32 17.8H32.1L32.2 17.7C32.3 17.6 32.4 17.6 32.4 17.5H32.5C32.5 17.5 32.5 17.5 32.6 17.4C32.6 17.4 32.6 17.4 32.7 17.3C32.8 17.2 33 17.1 33.2 17C33.6 16.8 34 16.4 34.2 15.9V15.8C34.2 15.7 34.2 15.7 34.3 15.6C34.3 15.6 34.3 15.6 34.3 15.5C34.3 15.5 34.3 15.5 34.2 15.5C34 15.6 33.8 15.7 33.6 15.9H33.5C33.4 16 33.2 16.1 33.1 16.2H33C32.9 16.3 32.8 16.3 32.7 16.4C32.6 16.5 32.5 16.5 32.4 16.6L32.3 16.7H32.2C32.1 16.7 32.1 16.8 32 16.8H31.9C31.8 16.8 31.8 16.9 31.7 16.9C31.6 16.9 31.6 16.9 31.6 16.9C31.6 16.9 31.6 16.9 31.5 16.9C31.5 16.9 31.4 16.9 31.4 17C31.4 17 31.4 17 31.3 17.1C30.9 17.4 30.4 17.7 30 18.1C29.8 18.3 29.7 18.3 29.6 18.4C29.6 18.4 29.6 18.4 29.5 18.4C29.5 18.4 29.4 18.4 29.4 18.5C29.3 18.6 29.3 18.7 29.2 18.7L29.1 18.8C29 18.8 29 18.9 29 18.9C28.9 18.9 28.9 19 28.8 19L28.6 19.2C28.5 19.3 28.4 19.4 28.3 19.6C28.2 19.8 28.1 19.9 27.8 20.1C27.8 20.1 27.7 20.1 27.7 20.2C27.7 20.2 27.7 20.2 27.6 20.2C27.6 20.2 27.5 20.2 27.5 20.3C27.4 20.4 27.3 20.5 27.2 20.5H27.1C27 20.5 27 20.6 26.9 20.6C26.6 20.8 26.2 21 25.9 21.3C25.8 21.4 25.7 21.4 25.6 21.5C25.5 21.5 25.5 21.6 25.4 21.6C25.3 21.7 25.1 21.8 24.9 21.9H24.8C24.7 22 24.7 22 24.6 22C24.6 22 24.5 22 24.5 22.1C24.4 22.2 24.4 22.3 24.3 22.3L24.2 22.4C24.4 22.3 24.5 22.2 24.7 22.1H24.8V22.2C24.7 22.3 24.6 22.3 24.5 22.4C24.3 22.5 24.2 22.5 24.1 22.7C24 22.8 24 22.8 23.9 22.9C23.8 23 23.8 23.1 23.7 23.2C23.6 23.2 23.6 23.3 23.5 23.3C23.4 23.4 23.3 23.4 23.3 23.5L23.2 23.6C23.1 23.6 23.1 23.7 23.1 23.7C23.1 23.7 23.1 23.7 23 23.8C23 23.8 23 23.8 22.9 23.8C22.9 23.8 22.8 23.8 22.8 23.9C22.8 24 22.7 24.1 22.6 24.1L22.5 24.2C22.4 24.2 22.4 24.3 22.3 24.3C22.3 24.3 22.3 24.3 22.3 24.4C22.3 24.4 22.3 24.4 22.3 24.5C22.2 24.5 22.2 24.6 22.1 24.6C22 24.6 22 24.7 21.9 24.7L21.8 24.8C21.8 24.8 21.8 24.8 21.7 24.8H21.6C21.5 24.9 21.4 25 21.3 25C21.1 25.1 21 25.2 20.9 25.3H21.1C21.3 25.2 21.5 25 21.7 24.9C21.9 24.8 22 24.7 22.1 24.7C22.2 24.6 22.3 24.6 22.4 24.4C22.5 24.3 22.6 24.3 22.7 24.2C22.8 24.1 22.9 24.1 23 24C23.3 23.8 23.5 23.7 23.9 23.6C24 23.6 24.1 23.5 24.1 23.5C24.2 23.4 24.3 23.4 24.4 23.4L24.2 23.5H24.1V23.6H24.5C24.6 23.6 24.6 23.7 24.6 23.7C24.6 23.7 24.5 23.7 24.5 23.8C24.5 23.8 24.5 23.8 24.4 23.8C24.3 23.9 24.3 24 24.2 24.1L24.1 24.2C24 24.3 23.8 24.4 23.6 24.5C23.6 24.5 23.5 24.5 23.5 24.6C23.5 24.6 23.5 24.6 23.4 24.7C23.3 24.8 23.2 24.9 23 24.9C22.8 25 22.7 25.1 22.6 25.2C22.5 25.3 22.5 25.3 22.4 25.3C22.3 25.3 22.3 25.3 22.3 25.2C22.3 25.1 22.3 25 22.2 24.9C22.2 24.9 22.2 24.9 22.2 25V25.1C22.2 25.2 22.2 25.2 22.1 25.2C22 25.3 21.9 25.4 21.7 25.5C21.6 25.6 21.5 25.6 21.4 25.7C21.1 25.9 20.9 26 20.6 26.2C20.4 26.3 20.3 26.4 20.2 26.4C20.1 26.5 20 26.5 19.9 26.6H20.2C20.2 26.6 20.3 26.6 20.3 26.7C20.3 26.8 20.2 26.8 20.2 26.8H20.1C19.9 26.8 19.8 26.9 19.6 26.9C19.5 26.9 19.4 27 19.2 27H19C18.9 27 18.9 26.9 18.9 26.9C18.9 26.8 18.9 26.8 18.8 26.8C18.7 26.8 18.6 26.9 18.5 26.9C18.3 27 18.3 27 18.2 27.1H18.1C18.1 27.1 18 27.1 18 27C18 27 18 27 17.9 26.9C17.9 26.9 17.9 26.8 18 26.8H18.1C18.3 26.8 18.4 26.8 18.6 26.7C18.7 26.6 18.8 26.6 18.9 26.6C19 26.6 19.1 26.5 19.2 26.5C19.3 26.4 19.4 26.4 19.5 26.4C19.7 26.3 19.6 26.1 19.4 26.2C19.4 26.2 19.4 26.2 19.3 26.2C19.3 26.2 19.2 26.2 19.2 26.3C19.1 26.3 19 26.4 19 26.4C18.7 26.6 18.4 26.7 18 26.7V26.6C18 26.4 17.8 26.3 17.6 26.4C17.5 26.4 17.4 26.5 17.4 26.6C17.3 26.7 17.2 26.7 17.1 26.7C16.9 26.7 16.7 26.8 16.5 26.9C16.3 27 16.2 27.1 16 27.2C16 27.2 16 27.2 15.9 27.2L15.7 27.4C15.6 27.4 15.6 27.4 15.6 27.5C15.6 27.5 15.5 27.5 15.5 27.6C15.4 27.9 15.2 28 15 28C14.9 28 14.8 28 14.6 28.1C14.4 28.2 14.3 28.2 14.1 28.1H14V28C13.8 27.9 13.7 27.8 13.6 27.5V27.4H13.5C13.6 27.6 13.6 27.8 13.8 27.9C13.8 27.9 13.8 28 13.7 28C13.6 28 13.5 28 13.5 28L13.4 27.9C13.4 27.9 13.4 27.8 13.3 27.8H13.2L13.1 27.7C13.1 27.6 13.1 27.4 13 27.3C12.9 26.6 13.1 25.9 13.4 25.3C13.4 25.2 13.5 25.2 13.5 25.1C13.6 24.9 13.7 24.7 13.8 24.6L13.9 24.5C14 24.4 14 24.3 14.1 24.2L14.2 24.1C14.4 23.8 14.6 23.5 14.8 23.2C14.9 23.1 14.9 23.1 15 23C15.1 22.8 15.3 22.6 15.4 22.4L15.6 22.2C15.7 22.1 15.7 22.1 15.8 22C15.9 21.9 16 21.8 16.1 21.7C16.3 21.6 16.3 21.5 16.4 21.3C16.5 21.2 16.5 21.1 16.6 21.1C16.8 20.9 16.9 20.8 17 20.5C17 20.4 17.1 20.3 17.2 20.2H17.3C17.3 20.1 17.4 20 17.5 20L17.6 19.9C17.8 19.6 18 19.3 18.3 19.1L18.6 18.8C18.7 18.7 18.8 18.5 18.9 18.4L19.1 18.2C19.1 18.2 19.1 18.1 19.2 18.1C19.2 18.1 19.2 18.1 19.3 18C19.4 17.9 19.5 17.7 19.6 17.6C19.7 17.5 19.7 17.4 19.8 17.3C19.8 17.2 19.9 17.2 20 17.1C20.1 17 20.2 16.9 20.2 16.8C20.2 16.8 20.2 16.7 20.3 16.7C20.4 16.6 20.6 16.5 20.7 16.3L20.9 16.1C20.9 16.1 20.9 16.1 21 16C21.1 15.9 21.2 15.8 21.3 15.7C21.6 15.4 21.8 15.1 22 14.8V14.7C22 14.7 22 14.6 22.1 14.6C22.2 14.5 22.2 14.4 22.3 14.3C22.4 14.1 22.5 14 22.6 13.9C22.7 13.9 22.7 13.8 22.7 13.7C22.7 13.7 22.7 13.7 22.7 13.6C22.8 13.5 22.9 13.4 23 13.3C23.1 13.2 23.2 13 23.3 12.9C23.3 12.9 23.3 12.8 23.3 12.7C23.3 12.7 23.3 12.7 23.3 12.6C23.3 12.5 23.4 12.5 23.4 12.5C23.4 12.5 23.5 12.5 23.5 12.4C23.6 12.3 23.6 12.2 23.6 12.1V12C23.7 11.8 23.7 11.8 23.8 11.7L23.9 11.6C23.9 11.6 23.9 11.6 23.9 11.5C23.9 11.4 23.9 11.3 24 11.3L24.1 11.2C24.2 11.1 24.4 11 24.4 10.9C24.4 10.8 24.5 10.8 24.5 10.7C24.5 10.7 24.5 10.6 24.6 10.6C24.7 10.6 24.7 10.6 24.7 10.6C24.7 10.6 24.7 10.6 24.7 10.5C24.7 10.4 24.7 10.4 24.8 10.4L24.7 10.3V10.2C24.7 10.2 24.7 10.2 24.7 10.1H25C25 10.1 25.1 10.1 25 10C25 10 25 9.9 24.9 9.9C24.9 9.9 24.9 9.8 24.8 9.8C24.7 9.8 24.7 9.8 24.7 9.8H24.6L24.5 9.9C24.5 9.9 24.5 10 24.4 10H24.2C24.2 10 24.2 9.9 24.1 10C23.8 10.1 23.6 10.1 23.3 10.1C23.3 10.1 23.3 10.1 23.3 10.2C23.3 10.2 23.3 10.2 23.2 10.3C23.2 10.3 23.2 10.3 23.1 10.4L23 10.5H22.9C22.9 10.5 22.8 10.5 22.8 10.4C22.7 10.3 22.5 10.3 22.4 10.2H22.3C22.2 10.3 22.2 10.4 22.1 10.5C22.1 10.6 22.1 10.6 22 10.6C22 10.6 21.9 10.6 21.9 10.7C21.8 10.8 21.8 10.8 21.7 10.8C21.6 10.8 21.5 10.8 21.4 10.9H21.3C21.3 10.9 21.3 10.9 21.2 10.9C21.1 10.9 21.1 11 21.1 11.1C21.1 11.2 21.1 11.2 21 11.2C20.9 11.3 20.8 11.3 20.7 11.4C20.6 11.5 20.5 11.6 20.4 11.7C20.4 11.7 20.4 11.7 20.3 11.7H20.2C20.2 11.7 20.2 11.7 20.1 11.7C20.1 11.7 20 11.7 20 11.8V11.9L20.2 12.1V12.2L20.1 12.3C20 12.4 19.9 12.4 19.8 12.4C19.7 12.4 19.6 12.4 19.5 12.3H19.4C19.3 12.3 19.2 12.3 19.1 12.3C19.1 12.3 19 12.3 19 12.4V12.5H19.1C19.1 12.5 19.2 12.5 19.2 12.6C19.2 12.6 19.2 12.7 19.3 12.7C19.4 12.7 19.4 12.7 19.4 12.8C19.4 12.9 19.4 13 19.4 13.1V13.2C19.4 13.2 19.4 13.2 19.4 13.3V13.4V13.5H19.5C19.5 13.5 19.6 13.5 19.5 13.6C19.5 13.6 19.4 13.6 19.5 13.7C19.5 13.7 19.5 13.7 19.6 13.7C19.8 13.7 19.9 13.7 20.1 13.6C20.1 13.6 20.2 13.6 20.2 13.7C20.2 13.7 20.2 13.8 20.3 13.8C20.4 13.8 20.4 13.7 20.4 13.7C20.4 13.7 20.5 13.6 20.5 13.7C20.6 13.7 20.7 13.8 20.8 13.8C20.9 13.8 20.9 13.8 20.9 13.7C20.9 13.6 20.9 13.6 20.9 13.5C20.9 13.4 21 13.3 21.1 13.3C21.2 13.3 21.3 13.3 21.3 13.3H21.5C21.5 13.3 21.5 13.3 21.6 13.3C21.6 13.3 21.6 13.3 21.7 13.3H22C22 13.3 22 13.3 22 13.4V13.6C21.9 13.7 21.9 13.8 21.7 13.9C21.5 14 21.3 14.2 21.2 14.4C21.1 14.5 21 14.6 20.9 14.7L20.8 14.8C20.8 14.8 20.8 14.9 20.7 14.9C20.6 15 20.5 15.1 20.4 15.2C20.2 15.4 20 15.5 19.8 15.7C19.5 15.9 19.3 16.2 19 16.4C18.6 16.7 18.3 17 18 17.4C17.9 17.5 17.8 17.6 17.7 17.6C17.6 17.7 17.6 17.7 17.5 17.8C17.4 17.9 17.4 17.9 17.3 18L16.9 18.4C16.8 18.5 16.7 18.6 16.6 18.7L16.5 18.8C16.5 18.8 16.5 18.9 16.4 18.9C16.3 19 16.3 19 16.3 19C16.3 19 16.3 19 16.2 19C16.1 19.1 15.9 19.2 15.8 19.3C15.7 19.4 15.5 19.5 15.4 19.6C15.1 19.9 15 19.9 15 20C14.9 20.1 14.8 20.2 14.7 20.3C14.5 20.4 14.3 20.6 14.1 20.8C14 20.8 14 20.9 14 20.9C14 20.9 14 20.9 13.9 20.9C13.8 20.9 13.7 21 13.7 21.1C13.5 21.3 13.2 21.5 13 21.7C12.9 21.8 12.8 21.9 12.7 22C12.6 22.1 12.4 22.2 12.3 22.3C12.1 22.4 12 22.5 11.9 22.7L11.8 22.8C11.8 22.8 11.8 22.8 11.7 22.9C11.6 23 11.4 23.1 11.3 23.2C11.1 23.4 11 23.4 11 23.5C11 23.5 10.9 23.5 10.9 23.6C10.7 23.7 10.6 23.9 10.4 24L10.3 24.1C10.2 24.1 10.2 24.2 10.1 24.2L10 24.3C10 24.3 10 24.3 9.9 24.4C9.8 24.5 9.7 24.6 9.5 24.7L9.4 24.8C9.3 24.9 9.2 25 9 25.1C8.9 25.2 8.7 25.3 8.6 25.5C8.6 25.5 8.6 25.5 8.5 25.5C8.5 25.5 8.5 25.5 8.4 25.6C8.2 25.7 8.1 25.9 8 26.1C8 25.9 8 26 7.9 26C7.9 26 7.9 26 7.8 26C7.7 26.1 7.7 26.1 7.6 26.2L7.4 26.4C7.3 26.5 7.3 26.5 7.2 26.6C7.1 26.7 7 26.8 7 27C6.9 27.2 6.9 27.4 6.8 27.5C6.7 27.6 6.7 27.7 6.6 27.9C6.5 27.9 6.4 27.8 6.4 27.8V27.7C6.3 27.5 6.1 27.4 6 27.6C5.9 27.7 5.9 27.7 5.9 27.7C5.9 27.7 5.9 27.7 5.8 27.7C5.8 27.7 5.7 27.7 5.7 27.6V27.5L5.6 27.4V27.5C5.6 27.5 5.6 27.5 5.6 27.6H5.4L5.3 27.5C5.3 27.5 5.3 27.4 5.2 27.4L5 27.3C4.9 27.2 4.9 27.2 4.9 27.1C4.9 27.1 4.9 27 4.8 27H4.7C4.7 27 4.6 27 4.7 26.9V26.8C4.7 26.7 4.6 26.7 4.6 26.7H4.4C4.4 26.7 4.4 26.7 4.3 26.8C4.3 27 4.2 27 4.1 27H3.9C3.8 27 3.8 26.9 3.8 26.8C3.8 26.7 3.8 26.7 3.8 26.7C3.8 26.7 3.8 26.6 3.9 26.6C4 26.5 4 26.5 4 26.5C4 26.5 4 26.5 4 26.4V26.3C4 26.2 3.9 26.2 3.8 26.2H3.6L3.5 26.1L3.6 25.8C3.5 25.8 3.4 25.9 3.3 25.9C3.2 26 3.1 26 3 26.1C2.9 26.1 2.8 26.2 2.7 26.2C2.6 26.2 2.4 26.3 2.3 26.4C1.8 26.6 1.5 26.7 0.9 26.7C0.8 26.7 0.8 26.7 0.7 26.7C0.2 26.7 0.1 26.7 0 26.6C0 26.5 0 26.4 0 26.3C0 26 0.1 25.7 0.3 25.5C0.3 25.5 0.3 25.4 0.4 25.4L0.5 25.3C0.6 25.2 0.6 25.1 0.7 25L0.8 24.9C0.9 24.8 1 24.6 1.1 24.5C1.2 24.4 1.3 24.3 1.3 24.2C1.3 24.2 1.3 24.2 1.4 24.1C1.4 24.1 1.4 24.1 1.5 24C1.6 23.9 1.7 23.8 1.8 23.7C1.8 23.4 2 23.2 2.2 23C2.3 22.9 2.4 22.8 2.5 22.7L2.6 22.6C2.7 22.5 2.8 22.4 2.8 22.3L3 22.1C3.1 22 3.2 21.9 3.3 21.8L3.4 21.7C3.4 21.6 3.5 21.6 3.6 21.5C3.7 21.4 3.7 21.4 3.8 21.3C3.8 21.1 3.9 21 4 20.9C4.1 20.8 4.2 20.6 4.3 20.5C4.4 20.3 4.6 20.2 4.7 20C4.8 19.9 4.8 19.9 4.9 19.8C5 19.7 5.1 19.6 5.2 19.5C5.2 19.4 5.3 19.4 5.3 19.3C5.5 19 5.8 18.8 6 18.5C6.1 18.4 6.2 18.3 6.3 18.2C6.4 18 6.6 17.9 6.8 17.7C6.9 17.6 7 17.4 7.2 17.3L7.4 17.1C7.5 17 7.6 16.9 7.7 16.8C7.8 16.7 7.9 16.6 8 16.4C8.2 16.2 8.3 16 8.6 15.8C8.8 15.7 8.9 15.5 9 15.4C9.1 15.3 9.2 15.2 9.3 15.1L9.6 14.8C9.7 14.7 9.7 14.7 9.7 14.7C9.7 14.7 9.7 14.7 9.8 14.6C9.9 14.5 10 14.5 10 14.4L10.1 14.3C10.2 14.2 10.2 14.2 10.2 14.1V14H10.3C10.4 13.7 10.7 13.5 11 13.3C11.1 13.2 11.2 13.1 11.3 13C11.4 12.9 11.5 12.8 11.6 12.7C11.7 12.6 11.7 12.6 11.8 12.5C11.9 12.4 12 12.3 12.1 12.2C12.2 12.1 12.3 12 12.5 11.8C12.6 11.6 12.8 11.5 13 11.4H13.1C13.2 11.3 13.3 11.2 13.4 11.1L13.5 11C13.6 10.9 13.6 10.9 13.7 10.9C13.7 10.9 13.8 10.9 13.8 10.8C13.9 10.6 14.2 10.4 14.4 10.2C14.5 10.2 14.5 10.1 14.6 10.1C14.7 10 14.8 10 14.8 9.9C14.9 9.8 14.9 9.8 14.9 9.8C14.9 9.8 15 9.8 15 9.7C15.1 9.6 15.1 9.6 15.2 9.5C15.2 9.5 15.3 9.5 15.3 9.4C15.4 9.4 15.4 9.3 15.4 9.3L15.5 9.2C15.6 9.1 15.6 9.1 15.7 9L15.8 8.9C15.8 8.9 15.8 8.9 15.9 8.9C16 8.8 16.1 8.7 16.3 8.6C16.5 8.5 16.6 8.3 16.8 8.2C16.9 8.1 17 8 17 7.9C17.2 7.8 17.3 7.6 17.5 7.5C17.7 7.3 17.9 7.2 18.1 7L18.2 6.9C18.2 6.9 18.3 6.9 18.3 6.8C18.3 6.8 18.3 6.8 18.4 6.8C18.4 6.8 18.4 6.8 18.5 6.8C18.6 6.7 18.6 6.6 18.7 6.5C18.8 6.4 18.9 6.2 19 6.1C19.4 5.6 20 5.2 20.6 4.9C20.7 4.8 20.9 4.8 21 4.7H21.1C21.2 4.7 21.2 4.6 21.3 4.6C21.4 4.5 21.5 4.5 21.6 4.5C21.6 4.5 21.7 4.5 21.7 4.6C21.7 4.6 21.7 4.7 21.8 4.7C21.8 4.7 21.8 4.7 21.9 4.7C22.1 4.8 22.3 4.9 22.4 5H22.5C22.7 5.2 22.8 5.4 22.9 5.6V5.7L23 5.8C23 5.9 23.1 6 23.1 6.1C23.1 6.2 23.2 6.3 23.2 6.4C23.3 6.6 23.3 6.8 23.3 7.1V7.2C23.3 7.4 23.3 7.5 23.3 7.5V7.6C23.3 7.7 23.3 7.8 23.3 7.9V8C23.3 8.1 23.4 8.2 23.5 8.2C23.6 8.1 24 8 24.3 7.8C24.4 7.8 24.5 7.7 24.6 7.7L24.7 7.6C24.8 7.6 24.9 7.5 25 7.5C25.2 7.4 25.3 7.4 25.5 7.3H25.6C25.7 7.2 25.9 7.2 26 7.1C26.1 7 26.3 7 26.4 6.9C26.6 6.8 26.9 6.7 27.1 6.6C27.3 6.5 27.5 6.4 27.7 6.3H27.8C27.9 6.3 28 6.2 28.2 6.2C28.3 6.2 28.5 6.1 28.6 6.1C28.6 6.1 28.6 6.1 28.7 6.1C29.1 6 29.2 6 29.3 5.9C29.4 5.9 29.4 5.9 29.5 5.9H29.6C30 5.9 30.5 6 30.8 6.3C31.1 6.6 31.2 6.9 31.2 7.3C31.2 7.4 31.2 7.4 31.2 7.4L31.3 7.5C31.3 7.5 31.3 7.5 31.4 7.5H31.5C31.5 7.5 31.6 7.6 31.5 7.6C31.5 7.7 31.4 7.8 31.4 7.9C31.4 8 31.3 8.1 31.3 8.1C31.3 8.6 31 8.8 30.7 9C30.5 9.2 30.4 9.3 30.2 9.5C30.2 9.5 30.2 9.5 30.1 9.5C30.1 9.5 30.1 9.5 30 9.5C30 9.7 30 9.8 29.9 9.9C29.9 9.9 29.9 10 29.8 10C29.8 10.1 29.7 10.1 29.7 10.1C29.7 10.1 29.7 10.1 29.7 10.2C29.7 10.3 29.6 10.4 29.5 10.5L29.4 10.6H29.3C29.3 10.6 29.3 10.7 29.4 10.7H29.5C29.5 10.7 29.6 10.7 29.6 10.8C29.6 10.8 29.6 10.9 29.5 10.9H29.3C29.1 11 28.9 11.1 28.8 11.3V11.4C28.8 11.5 28.7 11.5 28.7 11.6V11.7C28.6 11.9 28.4 12 28.4 12.2C28.4 12.2 28.4 12.3 28.5 12.2L28.6 12.1C28.7 12 28.8 11.9 29 11.9C29.1 11.9 29.1 11.8 29.1 11.8V11.7C29.1 11.7 29.2 11.7 29.2 11.8C29.2 11.8 29.2 11.9 29.3 11.9H29.2C29.1 11.9 29.1 11.9 29.1 11.9C29.1 11.9 29.1 11.9 29.1 12C29.1 12.1 29 12.1 29 12.2L28.9 12.3C28.9 12.3 28.9 12.3 28.8 12.4C28.8 12.4 28.8 12.5 28.9 12.5C29 12.5 29 12.4 29.1 12.4C29.1 12.4 29.1 12.3 29.2 12.3C29.3 12.2 29.4 12.1 29.4 12C29.4 12 29.4 12 29.5 11.9C29.5 11.9 29.5 11.9 29.6 11.8C29.8 11.5 30 11.3 30.3 11.1C30.3 11.1 30.4 11.1 30.4 11.2C30.4 11.3 30.4 11.3 30.3 11.4C30.3 11.4 30.3 11.4 30.3 11.5V11.6C30.3 11.7 30.2 11.8 30.2 11.9C30.1 12 30.1 12.1 30.1 12.3C29.9 12.7 29.9 12.8 29.8 12.9C29.8 12.9 29.8 12.9 29.7 13C29.7 13 29.7 13 29.6 13.1C29.6 13.1 29.6 13.2 29.5 13.2C29.5 13.3 29.5 13.3 29.4 13.3C29.4 13.3 29.4 13.3 29.3 13.4L29.2 13.5V13.6C29.2 13.8 29.1 14 28.9 14.1C28.8 14.2 28.8 14.3 28.7 14.4C28.7 14.5 28.6 14.6 28.6 14.6V14.7C28.5 14.8 28.4 14.9 28.3 15.1C28.3 15.1 28.3 15.1 28.2 15.2C28.1 15.3 28.1 15.3 28.1 15.4C28.1 15.4 28.1 15.5 28.2 15.5C28.2 15.5 28.3 15.5 28.3 15.6C28.3 15.7 28.2 15.8 28.1 15.9C28 16 27.8 16.2 27.7 16.4C27.6 16.5 27.6 16.6 27.5 16.7C27.4 16.9 27.3 16.9 27.2 17C27.1 17.1 27.1 17.2 27 17.4C26.9 17.6 26.8 17.8 26.7 17.9C26.6 18 26.5 18.2 26.4 18.3C26.4 18.3 26.4 18.3 26.3 18.3C26.3 18.3 26.3 18.3 26.2 18.3C26.1 18.4 26.1 18.5 26 18.6C25.9 18.7 25.9 18.7 25.9 18.7C25.9 18.7 25.9 18.8 25.8 18.8C25.8 18.8 25.8 18.8 25.7 18.8C25.7 18.8 25.7 18.8 25.6 18.8C25.5 18.9 25.4 19 25.4 19.1L25.3 19.2C25.2 19.3 25.1 19.5 24.9 19.6L24.6 19.9C24.5 20 24.5 20 24.4 20.1L24.3 20.2V20.3L24.2 20.4C24.1 20.5 24.1 20.5 24 20.6C23.9 20.7 23.8 20.7 23.7 20.8C23.6 20.8 23.6 20.9 23.5 20.9V21C23.5 21.1 23.5 21.1 23.6 21.1C23.7 21.1 23.7 21 23.8 21C24 20.8 24.2 20.7 24.4 20.6C24.5 20.5 24.6 20.5 24.7 20.4C24.7 20.4 24.7 20.4 24.8 20.4H24.9L25.1 20.2C25.2 20.2 25.2 20.2 25.2 20.1C25.2 20.1 25.2 20.1 25.3 20H25.4C25.4 20 25.5 20 25.5 19.9C25.6 19.8 25.7 19.8 25.8 19.7L25.9 19.6C26.1 19.5 26.3 19.3 26.5 19.2C26.7 19.1 26.8 19 27 18.9C27.1 18.8 27.1 18.8 27.2 18.8C27.3 18.7 27.4 18.7 27.5 18.6C27.7 18.5 27.9 18.3 28.1 18.2C28.3 18.1 28.5 17.9 28.8 17.7C28.9 17.6 29 17.6 29.1 17.5C29.2 17.4 29.3 17.4 29.4 17.3C29.6 17.1 29.8 17 30 16.9C30.2 16.8 30.4 16.6 30.6 16.4C30.7 16.3 30.8 16.3 31 16.2C31.1 16.1 31.2 16.1 31.2 16C31.4 15.8 31.6 15.7 31.8 15.6C32.1 15.4 32.3 15.3 32.6 15.1C32.7 15 32.8 15 32.9 14.9C33 14.8 33.1 14.8 33.2 14.7C33.2 14.7 33.2 14.7 33.3 14.6C33.4 14.5 33.6 14.4 33.7 14.3C33.8 14.2 34 14.1 34.1 14H34.2C34.2 14 34.3 14 34.3 13.9C34.3 13.9 34.3 13.9 34.4 13.9L34.5 13.8C34.6 13.8 34.7 13.7 34.8 13.7C34.9 13.6 35 13.6 35.1 13.5C35.3 13.3 35.6 13.2 35.8 13C36 12.9 36.2 12.7 36.4 12.6C36.5 12.5 36.6 12.5 36.7 12.4C36.8 12.3 36.9 12.3 37.1 12.2L37.2 12.1H37.3C37.3 12.1 37.3 12.1 37.4 12.1H37.5C37.8 12 38 11.8 38.3 11.7C38.4 11.6 38.5 11.5 38.7 11.5C38.9 11.4 39.2 11.2 39.4 11C39.6 10.9 39.7 10.7 39.9 10.7C39.9 10.7 39.9 10.7 39.9 10.6C40 10.6 40 10.5 40.1 10.5H40.2C40.4 10.4 40.6 10.3 40.7 10.2C40.8 10.1 40.9 10.1 40.9 10C41 10 41 9.9 41 9.9C41.2 9.8 41.4 9.7 41.5 9.5C41.6 9.4 41.7 9.3 41.8 9.3L41.9 9.2C42 9.1 42.1 9.1 42.1 9.1C42.1 9.1 42.1 9.1 42.1 9C42.2 8.9 42.3 8.9 42.4 8.8C42.5 8.8 42.5 8.7 42.6 8.7L42.7 8.6C42.8 8.5 42.9 8.5 43 8.4C43.3 8.2 43.6 8 44 7.8C44.1 7.7 44.2 7.7 44.3 7.6C44.5 7.5 44.7 7.3 44.9 7.2C45.1 7.1 45.2 7 45.4 6.8C45.6 6.7 45.8 6.5 46 6.4C46 6.4 46 6.4 46.1 6.4C46.4 6.2 46.7 6.1 47 6C47.1 6 47.1 6 47.1 6C47.1 6 47.1 6 47.2 6C47.4 5.9 47.6 5.9 47.9 5.9C48.2 5.9 48.4 5.9 48.7 5.7C48.9 5.6 49.1 5.6 49.2 5.5C49.5 5.5 49.8 5.6 50 5.8C50 5.8 50 5.8 50.1 5.9C50.1 5.9 50.1 6 50.2 6L50.3 6.1C51 5.9 51 6.1 51 6.3V6.5C51 6.7 51 6.8 51 7C51 7 51 7 51 7.1C51 7.1 51 7.1 51 7.2C51 7.3 51 7.4 50.9 7.5V7.6C50.9 7.7 50.8 7.7 50.8 7.8H50.9C50.9 7.8 51 7.8 51 7.9V8C51 8 51 8.1 50.9 8.1C50.8 8.2 50.7 8.2 50.7 8.3C50.5 8.4 50.4 8.6 50.3 8.7L50.2 8.8C50 9 49.7 9.2 49.5 9.3H49.4C49.3 9.4 49.2 9.4 49.1 9.5C49 9.6 48.8 9.7 48.7 9.8C48.5 10 48.2 10.1 48 10.2C47.8 10.3 47.7 10.4 47.5 10.5C47.3 10.6 47.1 10.8 46.8 10.9C46.6 11 46.4 11.1 46.2 11.2C46.1 11.3 46 11.3 45.9 11.4C45.8 11.5 45.7 11.5 45.7 11.6C45.4 11.9 45.1 12.1 44.8 12.4C44.8 12.4 44.7 12.4 44.7 12.5C44.6 12.6 44.6 12.6 44.5 12.7C44.5 12.7 44.5 12.7 44.4 12.7C44.3 12.8 44.2 12.8 44.2 12.9C44.2 12.9 44.1 13 44.1 13.1V13.2C44.1 13.3 44.2 13.4 44.3 13.4C44.3 13.4 44.4 13.4 44.5 13.4L44.7 13.3C44.8 13.3 44.9 13.2 44.9 13.2C45 13.1 45.1 13.1 45.2 13H45.3C45.5 12.9 45.5 12.9 45.6 12.9C45.7 12.9 45.7 13 45.7 13C45.6 13.1 45.6 13.1 45.5 13.2L45.4 13.3H45.2C45.1 13.4 45 13.4 44.9 13.5C44.5 13.8 44.2 14 43.8 14.3C43.7 14.4 43.6 14.4 43.5 14.5C43.4 14.6 43.3 14.8 43.1 14.9C43.1 14.9 43.1 15 43.2 15C43.2 15 43.3 15 43.3 14.9C43.3 14.9 43.4 14.8 43.5 14.7C43.6 14.6 43.6 14.6 43.8 14.5C44.1 14.4 44.2 14.2 44.4 14.1C44.4 14.1 44.4 14.1 44.5 14.1C44.6 14 44.7 13.9 44.9 13.8C45 13.8 45 13.7 45.1 13.7C45.2 13.6 45.3 13.7 45.2 13.8L45.1 13.9H45C44.9 13.9 44.9 13.9 44.8 14C44.8 14 44.8 14.1 44.7 14.1C44.7 14.2 44.6 14.2 44.5 14.2L44.3 14.3C44.2 14.3 44.2 14.4 44.2 14.4C44.2 14.4 44.2 14.5 44.1 14.5C44.1 14.5 44.1 14.5 44.1 14.6V14.7C44.1 14.8 44 14.8 44 14.9C43.9 15 43.8 15.1 43.6 15.1C43.6 15.1 43.5 15.1 43.5 15.2C43.4 15.2 43.4 15.3 43.3 15.3L43 15.5C42.9 15.6 42.8 15.7 42.6 15.7C42.6 15.7 42.6 15.7 42.5 15.7C42.5 15.7 42.5 15.7 42.4 15.7C42.4 15.7 42.4 15.7 42.4 15.8C42.4 15.8 42.4 15.8 42.4 15.9H42.2C42.2 15.9 42.2 15.9 42.1 15.9C42.1 16 42.1 16 42.1 16C42.1 16.1 42.1 16.2 42 16.3C41.9 16.4 41.8 16.5 41.7 16.6C41.6 16.7 41.5 16.8 41.4 16.9C41.3 17 41.3 17 41.2 17.1C41 17.2 40.9 17.4 40.8 17.5C40.7 17.6 40.6 17.7 40.5 17.8C40.4 17.9 40.4 18 40.3 18C40.2 18.1 40.2 18.1 40.1 18.2C40 18.3 39.9 18.4 39.9 18.4L39.8 18.5C39.7 18.6 39.6 18.7 39.5 18.8C39.4 18.9 39.4 19 39.3 19C39.2 19.1 39 19.3 38.9 19.4C38.8 19.5 38.7 19.6 38.6 19.7L38.4 19.9C38.3 20 38.2 20.1 38.2 20.3V20.4C38.2 20.4 38.1 20.5 38.1 20.6C38.1 20.6 38.1 20.6 38.1 20.7C38.1 20.8 38.1 21 38 21.1C38 21.3 38 21.4 38 21.6C38 21.6 38 21.6 38 21.7C38 21.8 38 21.8 38 21.8C38 21.8 38 21.8 37.9 21.9C37.8 22 37.8 22.1 37.9 22.2C37.9 22.2 37.9 22.2 37.9 22.3C37.9 22.4 38 22.5 38.1 22.7C38.2 22.9 38.2 23 38.2 23.2H38.3L38.4 23.3V23.4C38.4 23.4 38.4 23.4 38.4 23.5C38.4 23.5 38.4 23.5 38.4 23.6C38.7 23.8 39 23.8 39.4 23.8H39.5C39.9 23.8 40.3 23.8 40.7 23.7C41 23.7 41.3 23.6 41.6 23.6C42.2 23.6 42.8 23.5 43.4 23.4C43.5 23.4 43.6 23.4 43.7 23.3C44 23.3 44.2 23.2 44.5 23.1C44.6 23.1 44.7 23 44.8 23C45.1 22.9 45.4 22.8 45.7 22.7C45.8 22.7 45.9 22.6 46 22.6C46.2 22.5 46.5 22.5 46.7 22.4C47 22.3 47.3 22.2 47.6 22.1C48.2 21.9 48.8 21.7 49.3 21.5C49.5 21.4 49.6 21.4 49.8 21.3C50 21.2 50.2 21.1 50.4 21.1C50.5 21.1 50.6 21 50.6 21L50.7 20.9C50.8 20.9 50.9 20.8 51 20.8C51.2 20.7 51.3 20.6 51.5 20.5H51.6C51.7 20.4 53.1 19.9 53.2 19.8V22.4H53ZM50.9 7.9C50.9 8 51 8 50.9 7.9C51 7.9 51 8 50.9 7.9ZM43.4 13C43.4 12.9 43.4 12.9 43.4 13H43.3C43.2 13 43.2 13.1 43.1 13.1H43C42.8 13.2 42.7 13.3 42.5 13.4C42.3 13.5 42.1 13.7 41.9 13.8C41.8 13.8 41.8 13.9 41.7 13.9C41.6 14 41.5 14.1 41.4 14.2L41.2 14.4C41.2 14.5 41.3 14.5 41.3 14.5C41.4 14.5 41.5 14.4 41.6 14.3C41.7 14.2 41.8 14.1 41.9 14.1C42 14 42.2 13.9 42.3 13.8L42.4 13.7C42.5 13.6 42.7 13.5 42.8 13.4C42.9 13.4 42.9 13.3 42.9 13.3C42.9 13.3 42.9 13.3 43 13.2C43.2 13.2 43.3 13.1 43.4 13ZM19.3 13.1C19.2 13.1 19.2 13.2 19.3 13.3C19.3 13.3 19.4 13.4 19.4 13.3H19.5V13.2C19.5 13.2 19.5 13.1 19.4 13.1C19.4 13.1 19.4 13.1 19.3 13.1ZM19.3 13.9C19.2 13.9 19.2 13.9 19.2 13.9C19.2 13.9 19.2 13.9 19.1 13.9C19.3 13.9 19.4 13.9 19.5 13.9C19.5 13.9 19.6 13.9 19.6 13.8C19.6 13.8 19.6 13.8 19.7 13.7C19.7 13.7 19.7 13.6 19.6 13.6C19.5 13.6 19.5 13.6 19.4 13.6C19.4 13.9 19.3 13.9 19.3 13.9ZM42.2 14.1C42 14.2 41.9 14.3 41.8 14.4L41.6 14.6C41.5 14.6 41.5 14.7 41.5 14.7C41.5 14.7 41.5 14.7 41.5 14.8C41.5 14.8 41.5 14.8 41.6 14.8C41.8 14.7 42.1 14.5 42.3 14.3C42.4 14.3 42.4 14.2 42.4 14.2C42.4 14.2 42.5 14.2 42.5 14.1C42.5 14.1 42.6 14.1 42.6 14C42.6 14 42.6 14 42.6 13.9C42.6 13.9 42.6 13.8 42.5 13.8C42.3 13.9 42.3 14 42.2 14.1ZM42.8 15.1C42.8 15.2 42.8 15.2 42.8 15.1V15.1ZM40.6 15.6C40.5 15.6 40.5 15.7 40.6 15.6C40.5 15.7 40.6 15.8 40.6 15.8C40.7 15.8 40.8 15.8 40.9 15.7L41.1 15.5C41.2 15.4 41.2 15.4 41.2 15.4C41.2 15.3 41.2 15.3 41.1 15.3C41 15.4 40.8 15.5 40.7 15.6C40.6 15.5 40.6 15.6 40.6 15.6ZM21 16.3L20.8 16.5C20.7 16.6 20.6 16.7 20.5 16.8L20.3 17C20.3 17 20.3 17.1 20.2 17.1C20 17.2 19.9 17.4 19.8 17.6C19.7 17.7 19.7 17.8 19.6 17.9C19.5 18 19.4 18.2 19.3 18.3C19.2 18.4 19.1 18.5 19 18.6C19 18.6 18.9 18.6 18.9 18.7C18.9 18.7 18.9 18.8 18.8 18.8L18.7 18.9C18.7 18.9 18.7 18.9 18.7 19C18.7 19 18.7 19.1 18.6 19.1C18.4 19.2 18.4 19.3 18.3 19.4L18.2 19.5C18.2 19.5 18.2 19.6 18.1 19.6C18.1 19.6 18.1 19.6 18.1 19.7C18.1 19.8 18 19.8 17.9 19.9C17.7 20.1 17.6 20.3 17.5 20.4C17.2 20.8 17.1 20.9 17 21C17 21 16.9 21.1 16.8 21.1C16.6 21.2 16.5 21.4 16.4 21.6L16.3 21.7C16.3 21.8 16.2 21.8 16.2 21.9C16.2 21.9 16.2 21.9 16.1 21.9C16.1 21.9 16.1 21.9 16 21.9V22C15.9 22.1 15.9 22.2 15.8 22.2C15.7 22.3 15.6 22.4 15.5 22.6C15.4 22.7 15.4 22.8 15.4 22.8H15.3C15.2 22.9 15.1 22.9 15 23L14.9 23.1C14.8 23.2 14.8 23.3 14.7 23.4C14.6 23.5 14.5 23.6 14.5 23.8C14.3 24.1 14.1 24.5 14.1 24.8C14.2 24.6 14.3 24.4 14.5 24.2C14.5 24.2 14.5 24.1 14.6 24.1V24C14.6 24 14.6 23.9 14.7 23.9C14.7 23.9 14.8 23.9 14.8 23.8L14.9 23.7C15 23.6 15 23.6 15.1 23.5C15.2 23.4 15.3 23.3 15.3 23.2C15.4 23.1 15.4 23.1 15.5 22.9C15.6 22.8 15.6 22.7 15.7 22.6C15.9 22.5 16 22.3 16 22.1C16.1 22 16.1 21.9 16.2 21.8C16.4 21.6 16.6 21.3 16.8 21.1C17 20.8 17.3 20.5 17.5 20.2C17.5 20.2 17.5 20.2 17.5 20.1C17.5 20.1 17.5 20 17.6 20C17.6 20 17.6 20 17.6 19.9C17.6 19.9 17.6 19.9 17.6 19.8V19.7C17.7 19.6 17.7 19.5 17.8 19.4C17.8 19.4 17.8 19.4 17.8 19.3C17.9 19.2 17.9 19.2 18 19.2L18.1 19.1C18.2 19 18.3 18.8 18.4 18.7C18.5 18.5 18.7 18.4 18.8 18.2C18.9 18 19 17.9 19.2 17.7C19.4 17.5 19.6 17.2 19.8 17C19.9 16.9 19.9 16.8 20.1 16.7C20.2 16.6 20.3 16.5 20.4 16.4C20.4 16.3 20.5 16.3 20.5 16.3C20.5 16.3 20.5 16.3 20.6 16.2C20.6 16.2 20.6 16.2 20.6 16.1C20.6 16.1 20.6 16.1 20.6 16C21.1 16.2 21.1 16.2 21 16.3C21 16.2 21 16.2 21 16.3ZM37.7 19.2C37.4 19.4 37.3 19.6 37.1 19.8C37.1 19.9 37 19.9 37 20C36.9 20.2 36.8 20.4 36.7 20.6V20.7C36.6 20.9 36.6 21.2 36.6 21.4C36.6 21.5 36.8 21.6 36.8 21.5V21.3C36.8 21.3 36.8 21.3 36.9 21.2C37 21.1 37.1 20.9 37.1 20.7C37.1 20.7 37.1 20.7 37.1 20.6C37.2 20.4 37.3 20.3 37.4 20.1V20C37.4 20 37.4 20 37.4 19.9C37.4 19.8 37.4 19.8 37.5 19.8C37.5 19.7 37.6 19.6 37.6 19.5V19.3C37.8 19.4 37.8 19.4 37.7 19.2C37.8 19.2 37.8 19.2 37.7 19.2ZM36.5 20.9C36.5 20.8 36.4 20.8 36.4 20.8C36.3 20.8 36.3 20.9 36.2 21C36.2 21 36.2 21 36.2 21.1V21.4C36.2 21.5 36.2 21.5 36.1 21.6C36 22 35.9 22.4 36.1 22.8C36.2 22.8 36.2 22.8 36.3 22.8C36.3 22.8 36.3 22.8 36.4 22.8C36.5 22.8 36.5 22.7 36.5 22.6C36.5 22.5 36.5 22.5 36.5 22.4C36.5 22.4 36.5 22.4 36.5 22.3C36.5 22.2 36.5 22.1 36.4 22C36.4 22 36.4 22 36.3 22C36.2 21.7 36.3 21.4 36.4 21V20.9H36.5Z" fill="white"/>
<path d="M23.7 24.7C23.6 24.8 23.5 24.9 23.5 25C23.5 25 23.5 25 23.5 25.1C23.4 25.2 23.3 25.2 23.2 25.3L23.1 25.4C23.1 25.4 23.1 25.4 23.1 25.5C23.1 25.5 23.1 25.6 23.2 25.6C23.2 25.6 23.2 25.6 23.3 25.6H23.5L23.6 25.5C23.7 25.5 23.8 25.4 23.9 25.4C24 25.4 24 25.3 24 25.3C24 25.3 24 25.3 24.1 25.2C24.3 25.1 24.4 25 24.6 24.9L24.7 24.8C24.8 24.7 24.9 24.6 24.9 24.5C24.9 24.5 24.9 24.5 25 24.5C25 24.5 25 24.4 25.1 24.4H25.2V24.3C25.2 24.3 25.1 24.3 24.9 24.3H24.8C24.7 24.3 24.6 24.3 24.5 24.3H24.4C24.4 24.3 24.3 24.3 24.3 24.4V24.5C23.9 24.6 23.8 24.7 23.7 24.7Z" fill="white"/>
<path d="M22.6 25.2L22.7 25.3V25.5C22.7 25.5 22.7 25.5 22.7 25.6C22.7 25.5 22.6 25.4 22.6 25.3C22.6 25.3 22.6 25.3 22.6 25.2Z" fill="white"/>
<path d="M41.9 14.3L42 14.2C42 14.2 42 14.2 42 14.1C42 14.1 41.9 14 41.9 14.1L41.7 14.3C41.6 14.4 41.6 14.4 41.6 14.5C41.6 14.5 41.6 14.6 41.7 14.6C41.8 14.4 41.8 14.4 41.9 14.3Z" fill="white"/>
<path d="M16.6 14.3C16.7 14.3 16.7 14.3 16.6 14.3C16.7 14.2 16.6 14.1 16.5 14.1C16.4 14.3 16.5 14.4 16.6 14.3Z" fill="white"/>
<path d="M26.6 22.8C26.7 22.8 26.7 22.7 26.8 22.7C26.9 22.6 27.1 22.5 27.2 22.4C27.3 22.3 27.4 22.3 27.5 22.2C27.7 22.1 27.9 21.9 28.1 21.8C28.2 21.7 28.3 21.7 28.3 21.7C28.3 21.7 28.3 21.7 28.3 21.6C28.4 21.6 28.4 21.5 28.5 21.5C28.6 21.4 28.8 21.4 28.9 21.2C29 21.1 29.3 20.9 29.5 20.8C29.5 20.8 29.6 20.8 29.6 20.7C29.6 20.7 29.6 20.7 29.7 20.6L29.8 20.5C29.8 20.5 29.8 20.5 29.9 20.5C29.9 20.5 30 20.5 30 20.6C30 20.7 29.9 20.7 29.8 20.8L29.7 20.9C29.7 20.9 29.7 20.9 29.6 20.9C29.6 20.9 29.6 20.9 29.5 20.9C29.4 21 29.3 21 29.3 21.1L29.2 21.2C29.1 21.3 29 21.3 28.9 21.4C28.8 21.5 28.7 21.5 28.6 21.6C28.4 21.7 28.3 21.8 28.2 21.9C28.1 22 28 22.1 27.8 22.1H27.7C27.7 22.1 27.7 22.1 27.6 22.2C27.5 22.3 27.4 22.4 27.2 22.5L27.1 22.6C26.9 22.7 26.8 22.8 26.6 22.9C26.5 23 26.3 23 26.2 23.1C25.9 23.3 25.7 23.4 25.4 23.6H25.2C25.2 23.6 25.2 23.6 25.1 23.6C25.1 23.7 25 23.7 25 23.7H24.8H24.9C25 23.7 25 23.7 25.1 23.6C25.2 23.6 25.2 23.5 25.3 23.5C25.3 23.5 25.4 23.5 25.4 23.4C25.6 23.3 25.7 23.2 25.8 23.1C25.9 23 26.1 22.9 26.3 22.8C26.5 22.8 26.5 22.8 26.6 22.8Z" fill="white"/>
<path d="M29.3 22.2V22.1C29.3 22.1 29.3 22.1 29.2 22.1L29.1 22.2C29 22.2 29 22.2 29 22.3C28.9 22.3 28.9 22.4 28.9 22.4C28.9 22.4 28.9 22.5 29 22.5C29 22.5 29.1 22.5 29.1 22.4L29.3 22.2Z" fill="white"/>
<path d="M30.5 9.4C30.4 9.4 30.4 9.4 30.4 9.4C30.4 9.4 30.4 9.4 30.3 9.5C30.2 9.6 30.2 9.6 30.2 9.7C30.2 9.7 30.2 9.8 30.3 9.8C30.3 9.8 30.4 9.8 30.4 9.9V10C30.4 10 30.4 10 30.4 10.1V10.2C30.4 10.2 30.4 10.2 30.4 10.3C30.4 10.3 30.4 10.4 30.3 10.4V10.5C30.3 10.5 30.3 10.5 30.3 10.6C30.3 10.7 30.3 10.7 30.3 10.7V10.8C30.3 10.8 30.3 10.8 30.2 10.8C30.2 10.8 30.2 10.8 30.1 10.8C30 10.8 30 10.8 29.9 10.9C29.8 11 29.7 11.1 29.5 11.4C29.7 11.4 29.9 11.2 30 11.1L30.1 11C30.1 11 30.1 11 30.2 10.9C30.2 10.8 30.3 10.8 30.3 10.8C30.4 10.8 30.5 10.8 30.6 10.7L30.7 10.6V10.4C30.7 10.4 30.7 10.4 30.7 10.3C30.8 10 31 9.7 31 9.4V9.3H30.9L30.5 9.4C30.6 9.4 30.6 9.4 30.5 9.4Z" fill="white"/>
<path d="M19.2 13.3C19.1 13.4 19.2 13.5 19.2 13.6L19.3 13.5H19.4H19.5V13.4H19.4C19.4 13.4 19.3 13.4 19.2 13.3Z" fill="white"/>
<path d="M22.5 25.5C22.4 25.4 22.4 25.4 22.5 25.5C22.4 25.4 22.3 25.4 22.3 25.5C22.3 25.5 22.3 25.5 22.2 25.5L22.1 25.6C22.1 25.6 22.1 25.6 22 25.6C22 25.6 22 25.6 21.9 25.6C21.7 25.7 21.5 25.9 21.3 26H21.2C21.1 26.1 21 26.2 20.9 26.2C20.8 26.3 20.7 26.3 20.6 26.4C20.6 26.4 20.5 26.4 20.5 26.5V26.6H20.3V26.7C20.3 26.7 20.3 26.7 20.4 26.7H20.5C20.6 26.6 20.8 26.6 20.9 26.5C21 26.5 21.1 26.4 21.2 26.4C21.2 26.4 21.2 26.4 21.3 26.4L21.6 26.2C21.7 26.2 21.8 26.1 22 25.9L22.1 26H22.2C22.3 26 22.3 25.9 22.3 25.9C22.3 25.9 22.3 25.9 22.3 25.8L22.5 25.5Z" fill="white"/>
<path d="M28.8 20.2C28.9 20.1 28.9 20.2 28.8 20.2C28.9 20.2 28.9 20.2 28.8 20.2C28.7 20.4 28.6 20.5 28.4 20.6H28.3C28.3 20.6 28.3 20.6 28.3 20.5L28.4 20.4C28.4 20.4 28.5 20.4 28.5 20.3L28.8 20.2Z" fill="white"/>
<path d="M33.6 16C33.6 16.1 33.6 16.1 33.6 16C33.6 16.1 33.5 16.2 33.4 16.2L33.3 16.3C33.2 16.3 33.2 16.4 33.2 16.4C33.2 16.4 33.1 16.4 33.2 16.3C33.2 16.2 33.3 16.2 33.4 16.1L33.5 16C33.5 16 33.5 16 33.6 16Z" fill="white"/>
<path d="M28.9 22C28.8 21.9 28.8 21.9 28.7 22L28.6 22.1C28.5 22.1 28.5 22.2 28.4 22.2H28.5C28.6 22.2 28.7 22.2 28.9 22Z" fill="white"/>
<path d="M48.8 10.3C48.9 10.3 48.8 10.1 48.7 10.2C48.7 10.2 48.6 10.2 48.5 10.3V10.4C48.5 10.5 48.6 10.5 48.6 10.5C48.7 10.3 48.7 10.3 48.8 10.3Z" fill="white"/>
<path d="M30.8 21.6C30.7 21.6 30.7 21.6 30.8 21.6C30.7 21.6 30.7 21.6 30.7 21.6C30.7 21.6 30.7 21.7 30.7 21.8V21.6C30.7 21.6 30.7 21.7 30.7 21.8C30.7 21.8 30.7 21.9 30.6 21.9C30.6 21.9 30.7 21.9 30.8 21.8V21.7C30.8 21.8 30.8 21.8 30.8 21.6Z" fill="white"/>
<path d="M34.4 15.3C34.5 15.2 34.4 15.2 34.4 15.2C34.4 15.2 34.3 15.2 34.3 15.3C34.3 15.3 34.3 15.4 34.2 15.4C34.2 15.4 34.1 15.4 34.1 15.5V15.6C34.3 15.5 34.3 15.4 34.4 15.3Z" fill="white"/>
<path d="M21.3 13.6L21.2 13.8C21.2 13.8 21.2 13.9 21.1 13.9C21.1 13.9 21 13.9 21 14V14.2C21.3 13.9 21.3 13.8 21.3 13.6Z" fill="white"/>
<path d="M18.3 27.4L18.4 27.3C18.6 27.3 18.6 27.3 18.8 27.2C19 27.1 19.2 27.1 19.5 27.1H19.6C19.7 27.1 19.8 27.1 19.9 27.1C20 27.1 20.1 27.1 20.1 27.1C20.2 27.1 20.3 27 20.5 27C20.6 27 20.6 27 20.6 27C20.6 27 20.7 27 20.7 27.1C20.7 27.1 20.7 27.1 20.7 27.2H20.5C20.4 27.2 20.2 27.3 20.1 27.3C20 27.3 20 27.3 19.9 27.4C19.8 27.4 19.8 27.4 19.7 27.5H19.5C19.4 27.5 19.4 27.4 19.4 27.4C19.4 27.3 19.4 27.3 19.3 27.3C19.2 27.3 19.1 27.4 19 27.4C18.9 27.5 18.8 27.5 18.8 27.5C18.8 27.5 18.8 27.5 18.7 27.5C18.4 27.5 18.3 27.5 18.3 27.4Z" fill="white"/>
<path d="M19.3 13C19.2 12.9 19.2 12.9 19.2 13C19.2 13 19.2 13.1 19.1 13.1C19.1 13.1 19.1 13.2 19 13.3L19.4 13.2V13.1L19.3 13C19.4 13.1 19.3 13.1 19.3 13Z" fill="white"/>
<path d="M25.6 23.6C25.7 23.5 25.8 23.6 25.8 23.7C25.8 23.8 25.7 23.8 25.7 23.8C25.6 23.8 25.5 23.7 25.6 23.6Z" fill="white"/>
<path d="M26.2 23.8C26.3 23.7 26.3 23.7 26.2 23.8C26.2 23.7 26.2 23.7 26.2 23.7C26.2 23.7 26.1 23.7 26.1 23.8L26 23.9C26 24 26 24 26.1 24C26.1 23.8 26.2 23.8 26.2 23.8Z" fill="white"/>
<path d="M41.4 27.8C41.4 27.7 41.4 27.7 41.4 27.8C41.2 27.7 41.1 27.7 40.9 27.7C40.5 27.8 40.1 27.8 39.8 27.9H39.7C39.2 27.9 38.6 28 38.1 28H38C37.8 28 37.7 28 37.5 28.1C37.4 28.1 37.4 28.2 37.3 28.2C37.3 28.3 37.3 28.3 37.4 28.4C37.5 28.5 37.6 28.5 38.1 28.5H38.2C38.3 28.5 38.4 28.5 38.5 28.5H38.6C38.6 28.5 38.6 28.5 38.7 28.5C38.9 28.4 39.2 28.4 39.4 28.3C39.7 28.2 40 28.2 40.3 28.1C40.6 27.9 41 27.9 41.4 27.8Z" fill="white"/>
<path d="M47.9 25.7C47.9 25.8 47.9 25.8 47.9 25.7C47.9 25.8 47.9 25.8 47.9 25.8C47.9 25.8 47.9 25.9 47.8 25.9H47.7C47.5 25.9 47.4 26 47.3 26.1C47.2 26.2 47.1 26.3 47 26.3L46.9 26.4C46.8 26.5 46.7 26.5 46.5 26.5C46.3 26.5 46.1 26.6 45.9 26.7C45.7 26.8 45.5 26.8 45.2 26.9H45.1C45 26.9 44.9 26.9 44.9 27C44.7 27.1 44.6 26.9 44.7 26.8L44.8 26.7C45 26.6 45 26.5 45.1 26.5C45.1 26.5 45.2 26.5 45.1 26.6V26.7C45.3 26.6 45.4 26.6 45.6 26.5C45.8 26.4 45.9 26.4 46.1 26.3C46.3 26.3 46.4 26.2 46.6 26.1C46.7 26 46.8 26 47 25.9C47.1 25.9 47.1 25.9 47.1 25.9L47.2 25.8C47.2 25.8 47.3 25.8 47.3 25.7L47.4 25.6C47.8 25.8 47.8 25.8 47.9 25.7Z" fill="white"/>
<path fill-rule="evenodd" clip-rule="evenodd" d="M5.8 44.2C5.9 44 5.8 44.1 6 44C6.1 43.9 6.1 43.9 6.2 43.8C6.3 43.7 6.3 43.7 6.4 43.6L6.6 43.5L6.7 43.4C6.8 43.3 6.8 43.3 6.9 43.2C6.8 43 7 42.9 7.1 42.7C7.3 42.5 7.4 42.3 7.6 42.1C7.7 42 7.8 41.9 7.9 41.8C8 41.7 8 41.6 8.1 41.6C8.2 41.4 8.4 41.3 8.5 41.1C8.6 40.9 8.8 40.8 8.9 40.6C9.2 40.2 9.5 39.9 9.8 39.5C9.9 39.4 10 39.2 10.1 39.1C10.2 39 10.3 38.8 10.5 38.7C10.6 38.6 10.6 38.6 10.7 38.5C10.8 38.4 10.8 38.3 10.9 38.3C11 38.2 11.1 38.1 11.2 38C11.3 37.8 11.4 37.7 11.6 37.6C11.7 37.5 11.8 37.4 12 37.2C12.1 37.1 12.2 37 12.3 36.9C12.3 36.9 12.3 36.9 12.4 36.9C12.5 36.8 12.6 36.7 12.8 36.5C12.9 36.4 13 36.3 13 36.2C13.1 36.2 13.1 36.1 13.1 36C13.2 35.9 13.3 35.7 13.4 35.6C13.5 35.5 13.5 35.5 13.6 35.4C13.6 35.4 13.7 35.3 13.8 35.2C13.9 35.1 13.9 35.1 14 35C14.2 34.9 14.3 34.7 14.4 34.6C14.5 34.5 14.5 34.5 14.6 34.4C14.7 34.3 14.9 34.1 15 34C15.1 33.9 15.1 33.9 15.2 33.8C15.3 33.7 15.4 33.6 15.4 33.5C15.5 33.3 15.6 33.2 15.7 33C15.8 32.9 15.9 32.7 16 32.6C16.1 32.5 16.2 32.4 16.3 32.3C16.4 32.2 16.5 32.1 16.7 32C16.7 32 16.7 32 16.8 32H16.9C16.9 32 17 32 17 31.9C17.3 31.7 17.5 31.5 17.9 31.5C18 31.5 18.1 31.5 18.3 31.5C18.4 31.5 18.5 31.6 18.6 31.7C18.6 31.7 18.7 31.7 18.7 31.8C18.8 31.8 18.9 31.9 18.9 31.9C18.9 31.9 18.9 31.9 18.9 32C19 32 19.1 32.1 19.1 32.2L19.2 32.3C19.7 32.8 20 33.6 20.1 34.3C20.1 34.4 20.1 34.5 20.2 34.7C20.3 35.3 20.3 36 20.1 36.6C20.1 36.7 20.1 36.7 20.1 36.8C20 37.2 19.8 37.6 19.6 37.8C19.6 37.8 19.6 37.9 19.5 37.9C19.5 37.9 19.5 37.9 19.4 38C19.3 38.1 19.3 38.2 19.2 38.3H19L18.7 38.6C18.6 38.7 18.5 38.9 18.3 39C18.2 39.1 18.1 39.2 18 39.4C17.9 39.5 17.9 39.6 17.8 39.6C17.7 39.7 17.6 39.8 17.5 39.9L17.4 40C17.2 40.2 17 40.4 16.9 40.6L16.8 40.7C16.8 40.7 16.8 40.7 16.7 40.7H16.6C16.5 40.8 16.5 40.9 16.4 41C16.3 41.1 16.3 41.1 16.3 41.1C16.3 41.1 16.3 41.2 16.2 41.3C16.2 41.3 16.2 41.3 16.1 41.3C16.1 41.3 16.1 41.3 16 41.4C15.8 41.5 15.7 41.7 15.6 41.8C15.5 41.9 15.4 42 15.3 42.1C15.2 42.2 15.1 42.3 15 42.5C14.9 42.6 14.8 42.7 14.7 42.8C14.5 43 14.3 43.2 14.1 43.4C13.9 43.7 13.6 44 13.3 44.2C13.2 44.3 13.1 44.5 12.9 44.6C12.8 44.7 12.7 44.8 12.6 44.9L12.5 45C12.4 45.1 12.3 45.2 12.1 45.4C12 45.5 11.9 45.6 11.8 45.8L11.6 46C11.5 46.1 11.5 46.1 11.4 46.2C11.3 46.3 11.2 46.4 11.1 46.5C11 46.6 11 46.6 10.9 46.7C10.8 46.9 10.6 47 10.5 47.1C10.4 47.2 10.3 47.3 10.3 47.4C10.2 47.5 10.2 47.5 10.2 47.5C10.2 47.5 10.2 47.5 10.1 47.6H10C9.9 47.7 9.9 47.8 9.8 47.9L9.7 48C9.6 48.1 9.5 48.2 9.4 48.3C9.3 48.4 9.2 48.5 9.1 48.7L9 48.8C9 48.8 9 48.8 8.9 48.9C8.8 49 8.6 49.2 8.5 49.4C8.5 49.4 8.5 49.4 8.5 49.5C8.5 49.5 8.5 49.6 8.4 49.6C8.4 49.6 8.4 49.6 8.4 49.7L8.3 49.8V49.9C8.2 50 8.2 50.1 8.1 50.2C8.1 50.2 8.1 50.2 8.1 50.3L8 50.4C8 50.4 8 50.4 8 50.5V50.6C8 50.7 8 50.8 8 51V51.1C8 51.2 8 51.2 7.9 51.3V51.4C7.9 51.4 7.9 51.5 7.8 51.5C7.8 51.5 7.8 51.5 7.7 51.5C7.6 51.5 7.6 51.5 7.5 51.5C7.5 51.5 7.5 51.5 7.4 51.5H7.3V51.6H7.4C7.5 51.6 7.6 51.6 7.7 51.6C7.9 51.6 8.1 51.6 8.3 51.5H8.4C8.6 51.4 8.8 51.3 9 51.2C9 51.2 9.1 51.2 9.1 51.1C9.1 51.1 9.1 51.1 9.2 51.1C9.2 51.1 9.2 51.1 9.2 51C9.2 51 9.2 51 9.2 50.9H9.3L9.4 50.8H9.5C9.6 50.8 9.7 50.7 9.8 50.7C9.8 50.7 9.8 50.7 9.8 50.6C9.8 50.6 9.8 50.6 9.8 50.5C9.9 50.4 10 50.4 10 50.4H10.1C10.2 50.3 10.4 50.2 10.5 50.2C10.7 50.1 10.9 49.9 11.1 49.8C11.2 49.7 11.3 49.6 11.4 49.6C11.5 49.5 11.6 49.5 11.7 49.4C11.9 49.3 12 49.2 12.2 49.1C12.4 49 12.5 48.9 12.7 48.8C12.8 48.7 12.8 48.7 12.8 48.7C12.8 48.7 12.9 48.7 12.9 48.6C12.9 48.6 12.9 48.6 13 48.5H13.3C13.4 48.4 13.5 48.4 13.5 48.4C13.5 48.4 13.6 48.4 13.6 48.3C13.6 48.3 13.6 48.3 13.7 48.2L14 48L14.1 47.9L14.3 47.8L14.4 47.7C14.5 47.6 14.6 47.6 14.6 47.5L14.8 47.3H14.9C14.9 47.3 14.9 47.3 15 47.3C15 47.3 15 47.3 15 47.2C15.3 47 15.4 46.9 15.5 46.9H15.6C15.6 46.9 15.7 46.9 15.7 46.8C15.7 46.8 15.7 46.8 15.8 46.7L16 46.5C16.3 46.3 16.5 46.2 16.8 46H16.9C16.9 46 17 46 17 45.9C17.2 45.8 17.4 45.6 17.6 45.6L17.7 45.5V45.4C17.8 45.4 17.8 45.3 17.9 45.3L18 45.2C18.1 45.1 18.2 45.1 18.3 45C18.4 44.9 18.5 44.9 18.6 44.8H18.7C18.8 44.7 18.8 44.7 18.9 44.6C19 44.5 19.1 44.4 19.2 44.4C19.3 44.3 19.4 44.3 19.5 44.2C19.6 44.1 19.7 44 19.9 43.9C19.9 43.9 20 43.9 20 43.8C20 43.8 20.1 43.8 20.1 43.7C20.1 43.7 20.2 43.7 20.2 43.6C20.2 43.6 20.3 43.6 20.3 43.5C20.4 43.4 20.4 43.3 20.5 43.3L20.6 43.2C20.7 43.2 20.7 43.1 20.7 43.1C20.7 43.1 20.7 43.1 20.8 43.1C20.8 43.1 20.9 43.1 20.9 43C20.9 43 20.9 43 20.9 42.9C20.9 42.9 20.9 42.9 21 42.8L21.1 42.7L21 43C21.1 43 21.1 42.9 21.2 42.9L21.3 42.8C21.5 42.7 21.6 42.6 21.7 42.5C21.8 42.4 21.9 42.3 22.1 42.2C22.2 42.1 22.3 42 22.4 42C22.5 41.9 22.6 41.8 22.8 41.7C22.9 41.6 23 41.5 23.2 41.4C23.3 41.3 23.4 41.3 23.5 41.1C23.6 41 23.7 40.9 23.8 40.8C24 40.7 24.1 40.5 24.3 40.3C24.4 40.2 24.4 40.1 24.5 40.1C24.6 40 24.7 39.9 24.7 39.7C24.7 39.7 24.7 39.7 24.7 39.6V39.5C24.7 39.5 24.7 39.5 24.8 39.5C24.8 39.5 24.8 39.5 24.9 39.5C24.9 39.4 25 39.3 25.1 39.2C25.2 39 25.3 38.9 25.3 38.7C25.4 38.4 25.5 38.3 25.7 38.1C25.8 38 25.9 37.9 25.9 37.8C26 37.7 26.1 37.6 26.1 37.5C26.2 37.4 26.3 37.2 26.4 37.1C26.5 36.9 26.7 36.8 26.8 36.7C26.9 36.6 27 36.5 27.1 36.4C27.2 36.2 27.4 36.1 27.6 36H27.7C27.8 35.9 27.9 35.9 28.1 35.9C28.2 35.9 28.2 35.9 28.2 35.9C28.3 35.9 28.3 35.8 28.4 35.7C28.5 35.6 28.5 35.6 28.6 35.5C28.6 35.5 28.6 35.5 28.7 35.5C28.7 35.5 28.7 35.5 28.8 35.4H28.9C28.9 35.4 28.9 35.4 29 35.4C29 35.4 29.1 35.5 29.1 35.4C29.2 35.3 29.2 35.3 29.2 35.2C29.2 35.1 29.3 35.1 29.3 35.1H29.4L29.6 34.9C29.7 34.9 29.8 35 29.9 35.1H30C30.1 35.2 30.2 35.3 30.1 35.4C30.1 35.5 30 35.6 29.9 35.8C29.9 35.8 29.9 35.8 29.9 35.9V36C29.8 36.2 29.7 36.4 29.6 36.6C29.5 36.7 29.4 36.9 29.3 37C29.3 37 29.3 37.1 29.2 37.1H29.1V37.2C29.1 37.3 29 37.3 29 37.4C28.9 37.6 28.7 37.7 28.6 37.9C28.4 38.1 28.3 38.2 28.2 38.4C28.2 38.4 28.2 38.5 28.1 38.5C28.1 38.5 28.1 38.5 28 38.6L27.9 38.7C27.9 38.7 27.9 38.7 27.9 38.8H28C28 38.7 28 38.7 28.1 38.7C28.2 38.6 28.3 38.6 28.4 38.5C28.5 38.4 28.6 38.3 28.7 38.2C28.7 38.2 28.8 38.1 28.8 38.2C28.8 38.2 28.9 38.3 28.8 38.3C28.7 38.4 28.7 38.5 28.6 38.5C28.6 38.5 28.6 38.5 28.5 38.6V38.7C28.5 38.7 28.5 38.8 28.4 38.8C28.4 38.8 28.4 38.8 28.3 38.8C28.3 38.8 28.2 38.8 28.2 38.9C28.2 38.9 28.2 39 28.1 39C28.1 39 28 39 28 39.1V38.7H27.9C27.9 38.7 27.8 38.7 27.8 38.8C27.8 38.8 27.8 38.8 27.8 38.9C27.7 39 27.7 39 27.5 39C27.4 39 27.4 39 27.4 39.1C27.4 39.1 27.4 39.1 27.4 39.2C27.4 39.3 27.4 39.3 27.3 39.4V39.5C27.2 39.7 27.1 39.9 26.9 40.1H26.8C26.8 40.2 26.7 40.2 26.7 40.3C26.7 40.3 26.7 40.3 26.7 40.4C26.6 40.5 26.8 40.6 26.9 40.5C27 40.4 27 40.4 27 40.3C27.1 40.1 27.2 40 27.4 39.8C27.5 39.7 27.5 39.7 27.6 39.6C27.7 39.4 27.9 39.3 28.1 39.2C28.1 39.2 28.2 39.2 28.2 39.1V39C28 39 28 39 28 39C28 38.9 28.1 38.9 28.2 38.9H28.3C28.3 38.9 28.3 38.9 28.4 38.9C28.4 38.9 28.5 38.9 28.5 39V39.3C28.5 39.3 28.5 39.3 28.4 39.4C28.4 39.5 28.4 39.5 28.4 39.6C28.4 39.8 28.3 40 28.2 40.3C28.1 40.4 28.1 40.6 28.1 40.7V40.8C28.1 40.8 28.2 40.8 28.1 40.9C28.1 41 28 41.1 28 41.2C27.9 41.4 27.8 41.6 27.8 41.9C27.8 42 27.8 42 27.8 42C27.8 42 27.8 42.1 27.7 42.1C27.7 42.2 27.7 42.2 27.6 42.2V42.3C27.6 42.4 27.6 42.4 27.6 42.5C27.6 42.5 27.6 42.5 27.5 42.6L27.4 42.7C27.3 42.8 27.3 42.8 27.2 42.9C27 43.1 27 43.2 26.9 43.4C26.8 43.6 26.7 43.8 26.6 44C26.6 44 26.6 44 26.6 44.1V44.2C26.6 44.2 26.6 44.2 26.6 44.3C26.6 44.4 26.5 44.5 26.4 44.6C26.3 44.7 26.3 44.7 26.3 44.8C26.2 45 26.1 45.1 26 45.2C26 45.2 26 45.2 25.9 45.2H25.8C25.7 45.5 25.5 45.8 25.3 46C25.2 46.1 25.1 46.3 25.1 46.4C25 46.6 24.9 46.7 24.7 46.9C24.7 46.9 24.6 46.9 24.6 46.8C24.6 46.6 24.7 46.4 24.7 46.2C24.6 46.2 24.6 46.3 24.6 46.3C24.6 46.3 24.5 46.3 24.5 46.4C24.4 46.5 24.4 46.7 24.3 46.8C24.3 46.8 24.3 46.8 24.3 46.7C24.4 46.4 24.5 46.1 24.7 45.9C24.7 45.8 24.8 45.8 24.8 45.7C24.8 45.6 24.9 45.6 25 45.5C25.1 45.3 25.2 45.1 25.3 44.9C25.2 44.9 25.2 44.9 25.2 44.9C25.2 44.9 25.2 44.9 25.1 45C25.1 45 25.1 45 25 45C25 45 25 45 24.9 45C24.8 45.2 24.6 45.4 24.4 45.6C24.3 45.7 24.2 45.9 24.1 46C24.1 46.1 24 46.1 24 46.1C24 46.1 24 46.1 23.9 46.2C23.8 46.3 23.8 46.3 23.8 46.4C23.8 46.5 23.7 46.6 23.7 46.7C23.6 46.8 23.5 47 23.5 47.2C23.5 47.2 23.5 47.2 23.5 47.3C23.4 47.5 23.3 47.6 23.3 47.7C23.3 47.8 23.2 47.9 23.1 48C23 48.2 23 48.3 23 48.5C23 48.6 23 48.7 23.1 48.7C23.1 48.7 23.1 48.7 23.1 48.8C23.1 48.8 23.1 48.9 23.2 48.9C23.2 49 23.3 49 23.3 49.1C23.3 49.1 23.3 49.1 23.4 49.1C23.4 49 23.5 48.8 23.5 48.7V48.6C23.5 48.4 23.7 48.3 23.8 48.3H23.9C23.9 48.3 24 48.3 24 48.4V48.5C23.9 48.7 23.9 48.9 23.8 49.1C23.8 49.2 23.8 49.2 23.9 49.2C24.2 49.1 24.4 49 24.7 48.9C24.9 48.8 25 48.7 25.2 48.6C25.2 48.6 25.3 48.6 25.3 48.5C25.4 48.5 25.5 48.4 25.6 48.4H25.7C25.8 48.4 25.8 48.3 25.9 48.3C26.1 48.2 26.3 48.1 26.5 48.1C26.6 48.1 26.8 48 26.9 47.9C27.1 47.8 27.4 47.7 27.6 47.6C27.7 47.6 27.7 47.6 27.7 47.6C27.7 47.6 27.7 47.6 27.8 47.6C27.9 47.6 27.9 47.5 28 47.5C28.1 47.5 28.2 47.4 28.3 47.4C28.4 47.4 28.6 47.3 28.7 47.3C29.1 47.2 29.4 47.1 29.7 46.9C29.8 46.8 29.9 46.8 30 46.8C30.1 46.8 30.2 46.7 30.4 46.6C30.5 46.5 30.6 46.5 30.7 46.4L30.8 46.3C30.9 46.3 31 46.2 31 46.2L31.2 46C31.3 45.9 31.4 45.8 31.5 45.7C31.7 45.5 32 45.4 32.2 45.2C32.4 45.1 32.6 45 32.7 44.8C32.8 44.7 32.9 44.7 33 44.6C33.2 44.5 33.3 44.4 33.4 44.2C33.5 44.1 33.5 44.1 33.6 44C33.7 43.9 33.8 43.8 33.9 43.7C34 43.5 34.2 43.4 34.4 43.3C34.5 43.2 34.6 43.1 34.7 43C34.8 42.9 35 42.8 35.1 42.7C35.2 42.6 35.4 42.5 35.5 42.4L35.7 42.2C35.7 42.2 35.7 42.2 35.8 42.2C35.9 42.1 36 42 36.1 42C36.2 41.9 36.3 41.8 36.4 41.7C36.5 41.6 36.5 41.6 36.6 41.5C36.7 41.4 36.9 41.3 37 41.2C37 41.2 37.1 41.1 37.1 41C37.2 40.9 37.3 40.8 37.4 40.7C37.5 40.6 37.6 40.5 37.7 40.4C37.8 40.3 37.9 40.2 38 40.1C38.1 40 38.2 39.9 38.3 39.7C38.3 39.7 38.3 39.6 38.4 39.6C38.4 39.6 38.4 39.6 38.5 39.5C38.8 39.2 38.8 38.8 38.9 38.5C38.9 38.4 38.9 38.4 38.9 38.3C39 37.8 39.2 37.3 39.4 36.8C39.5 36.7 39.5 36.5 39.6 36.4C39.6 36.4 39.6 36.4 39.7 36.4C39.7 36.4 39.7 36.4 39.8 36.4C39.9 36.2 40 36.1 40.1 35.9C40.1 35.9 40.1 35.8 40.2 35.8C40.2 35.7 40.3 35.7 40.3 35.6C40.5 35.3 40.6 35.1 40.8 34.9C40.9 34.8 40.9 34.7 41 34.7C41 34.6 41.1 34.6 41.1 34.6C41.1 34.6 41.1 34.6 41.2 34.5C41.3 34.4 41.4 34.2 41.6 34.1C41.6 34 41.7 34 41.7 33.9L41.8 33.8C42.1 33.4 42.2 33.3 42.2 33.3C42.2 33.3 42.3 33.3 42.3 33.2L42.4 33.1C42.5 33 42.6 32.9 42.7 32.8C42.8 32.7 43 32.5 43.1 32.3C43.2 32.2 43.3 32.1 43.4 32C43.5 31.9 43.6 31.7 43.7 31.6L43.8 31.5C43.9 31.5 43.9 31.4 44 31.3C44 31.3 44 31.3 44 31.2L44.1 31.1C44.2 31 44.2 30.9 44.3 30.9C44.3 30.9 44.3 30.9 44.4 30.9C44.4 30.9 44.4 30.9 44.5 30.9C44.5 30.8 44.6 30.8 44.7 30.7L45 30.4C45.2 30.2 45.4 30 45.6 29.9L45.7 29.8C45.8 29.7 45.9 29.6 46.1 29.6C46.2 29.6 46.3 29.5 46.4 29.5C46.8 29.3 47.1 29.2 47.5 29.2C47.9 29.2 48.1 29.2 48.4 28.9C48.5 28.8 48.6 28.8 48.7 28.7L48.8 28.6C48.9 28.5 49 28.5 49.1 28.5C49.2 28.5 49.2 28.5 49.3 28.6C49.3 28.7 49.3 28.7 49.3 28.8C49.3 28.9 49.2 29 49.1 29.1H49C49 29.2 48.9 29.3 48.8 29.3L48.7 29.4V29.5C48.7 29.6 48.8 29.7 48.8 29.7L49 29.9C49.3 30.3 49.4 30.4 49.4 30.5V30.6C49.4 30.7 49.4 30.8 49.3 30.8C49.3 30.9 49.2 30.9 49.2 31C49.2 31 49.2 31.1 49.3 31.1C49.3 31.1 49.4 31.1 49.4 31.2C49.4 31.3 49.4 31.5 49.4 31.6V31.8C49.4 32.2 49.4 32.5 49.4 32.7C49.4 32.9 49.5 33.1 49.6 33.5C49.6 33.5 49.6 33.5 49.6 33.6C49.6 33.7 49.6 33.7 49.6 33.7C49.6 33.8 49.5 33.9 49.5 34V34.1C49.5 34.4 49.4 34.7 49.3 35C49.3 35.1 49.3 35.1 49.2 35.2C49.2 35.3 49.1 35.3 49 35.4C48.7 35.7 48.5 36 48.3 36.4V36.6C48.2 36.8 48 37.1 47.8 37.3C47.7 37.4 47.6 37.6 47.5 37.7C47.5 37.7 47.5 37.7 47.4 37.7H47.3C47.2 37.8 47.2 37.9 47.1 38L47 38.1C47 38.2 46.9 38.2 46.9 38.2H46.8C46.7 38.3 46.6 38.4 46.5 38.5L46.4 38.6C46.3 38.7 46.2 38.8 46.1 38.9C46 39 46 39 46 39.1L41.9 44C41.7 44 41.6 44.2 41.5 44.4C41.4 44.6 41.3 44.6 41.1 44.7C41 44.7 41 44.8 41 44.8C41 44.8 41 44.9 40.9 44.9C40.9 45 40.8 45 40.7 45.1L40.6 45.2C40.6 45.2 40.6 45.2 40.5 45.2C40.5 45.2 40.4 45.2 40.4 45.3C40.3 45.4 40.2 45.5 40.1 45.6L40 45.7C39.9 45.8 39.8 45.9 39.8 45.9C39.7 45.9 39.7 46 39.7 46C39.7 46 39.7 46 39.6 46.1L39.5 46.2C39.5 46.2 39.5 46.2 39.5 46.3C39.7 46.3 39.8 46.4 39.6 46.6L39.5 46.7H39.4L39.3 46.8C39.2 46.8 39.2 46.7 39.2 46.7H39.1C39 46.7 39 46.7 39 46.6C39 46.6 39 46.6 39.1 46.5C39.2 46.5 39.2 46.4 39.2 46.4V46.3C39.2 46.2 39.2 46.1 39.3 46C39.4 45.9 39.4 45.9 39.4 45.9C39.4 45.9 39.5 45.9 39.5 45.8C39.6 45.7 39.6 45.6 39.7 45.5C39.7 45.4 39.8 45.4 39.8 45.3C39.8 45.3 39.8 45.2 39.7 45.3C39.5 45.4 39.4 45.5 39.3 45.5H39.2C39.1 45.5 39 45.6 38.9 45.6C38.8 45.6 38.8 45.7 38.8 45.7C38.8 45.7 38.7 45.7 38.7 45.8C38.7 45.8 38.7 45.8 38.6 45.9C38.5 46 38.4 46.1 38.2 46.2C38 46.4 37.9 46.5 37.7 46.7C37.6 46.7 37.6 46.8 37.6 46.8C37.8 46.7 38 46.5 38.2 46.4C38.2 46.4 38.3 46.4 38.3 46.3L38.4 46.2C38.5 46.1 38.6 46 38.7 45.9L38.8 45.8C38.8 45.8 38.8 45.8 38.9 45.8C38.9 45.8 39 45.8 38.9 45.9C38.8 46.2 38.6 46.4 38.4 46.5C38.3 46.6 38.3 46.6 38.2 46.7C38.1 46.9 38 47 37.8 47.1H37.7C37.6 47.2 37.5 47.2 37.4 47.3C37.4 47.4 37.3 47.4 37.3 47.5C37.2 47.6 37 47.7 36.9 47.8C36.8 47.9 36.8 47.9 36.7 48C36.6 48.1 36.5 48.2 36.4 48.3C36.4 48.3 36.4 48.3 36.3 48.3C36.2 48.4 36.1 48.5 36 48.6C35.9 48.8 35.8 48.9 35.6 49C35.5 49.1 35.5 49.1 35.4 49.2C35.2 49.3 35.1 49.4 34.9 49.5C34.8 49.6 34.6 49.7 34.5 49.8L34.8 50C34.7 50.1 34.6 50.2 34.6 50.3C34.3 50.7 34.2 50.8 34.1 50.8C34.1 50.8 34 50.8 33.9 50.8C33.9 50.7 34 50.6 34.1 50.6C34.1 50.6 34.1 50.6 34.2 50.5L34.3 50.4C34.4 50.3 34.5 50.2 34.6 50.1C34.7 50 34.8 49.9 34.9 49.8C35.1 49.6 35.2 49.5 35.4 49.3V49.2C35.2 49.2 35.1 49.3 35 49.4C34.8 49.6 34.7 49.7 34.5 49.9C34.3 50 34.2 50.2 34 50.4C33.9 50.5 33.8 50.6 33.8 50.6C33.8 50.6 33.8 50.6 33.7 50.7C33.7 50.7 33.7 50.7 33.6 50.8C33.6 50.8 33.5 50.8 33.5 50.9C33.5 50.9 33.5 50.9 33.5 51C33.5 51 33.5 51 33.4 51.1H33V51C33 51 33 51 33 50.9C33.1 50.9 33.1 50.8 33.2 50.8C33.3 50.7 33.3 50.7 33.4 50.6L33.5 50.5C33.3 50.6 33.1 50.8 32.9 50.9C33 50.9 32.9 51 32.9 51C32.8 51.1 32.7 51.1 32.7 51.2C32.6 51.3 32.6 51.3 32.5 51.4C32.5 51.4 32.5 51.4 32.4 51.4C32.4 51.4 32.3 51.4 32.3 51.3C32.3 51.2 32.3 51.2 32.4 51.1C32.4 51.1 32.4 51.1 32.5 51C32.5 51 32.5 50.9 32.4 50.9C32.3 50.9 32.2 51 32.1 51.1C32.1 51.1 32.1 51.1 32.1 51.2C32.1 51.2 32.1 51.3 32 51.3C31.9 51.7 31.5 52.1 31.1 52.3C31 52.4 30.9 52.4 30.8 52.5C30.5 52.7 30.4 52.8 30.3 52.8C30.2 52.9 30 52.9 29.9 53L29.8 53.1C29.3 53.3 29.2 53.4 29.1 53.4H29C28.9 53.4 28.8 53.4 28.7 53.5C28.5 53.6 28.4 53.6 28.2 53.6H28C27.7 53.6 27.4 53.7 27.1 53.8C27 53.8 27 53.8 26.9 53.9C26.8 53.9 26.8 53.9 26.7 54H26.6C26.3 54 26.2 54 26 54C25.8 54 25.7 54.1 25.6 54.2C25.4 54.3 25.2 54.4 25 54.4C24.9 54.4 24.9 54.4 24.8 54.4C24.8 54.4 24.8 54.4 24.7 54.3C24.7 54.3 24.7 54.3 24.7 54.2C24.7 54.1 24.7 54.1 24.7 54C24.7 53.9 24.7 53.9 24.6 53.9C24.3 54 24 54.1 23.7 54.1H23.6C23.3 54.1 23.1 54.1 22.8 54C22.6 54 22.4 53.9 22.2 53.9C22 53.9 21.8 53.8 21.7 53.7C21.6 53.6 21.6 53.6 21.5 53.6H21.1C21 53.6 20.9 53.6 20.8 53.6C20.3 53.5 19.9 53.4 19.5 53V52.9C19.5 52.9 19.5 52.9 19.5 52.8C19.4 52.7 19.4 52.7 19.3 52.6C19.2 52.5 19.3 52.3 19.3 52.2V52.1C19.3 52 19.3 51.9 19.3 51.9V51.8C19.3 51.8 19.3 51.7 19.2 51.7H19.1C19 51.6 19.1 51.4 19.1 51.3C19.1 51.3 19.1 51.2 19.2 51.2C19.2 51.2 19.3 51.2 19.3 51.1C19.3 50.9 19.3 50.6 19.4 50.4V50.3C19.4 50.2 19.4 50.2 19.4 50.1C19.4 50 19.4 50 19.4 49.9C19.4 49.8 19.4 49.8 19.5 49.7C19.5 49.7 19.6 49.6 19.6 49.5C19.6 49.4 19.6 49.4 19.6 49.3C19.6 48.8 19.9 48.4 20.1 47.9C20.1 47.8 20.2 47.7 20.2 47.6C20.3 47.4 20.4 47.2 20.5 47V46.9C20.5 46.8 20.5 46.8 20.6 46.7V46.6C20.8 46.1 20.8 46 20.9 46C20.9 45.9 20.9 45.8 20.9 45.8V45.7C20.9 45.7 20.8 45.6 20.8 45.7C20.8 45.7 20.7 45.8 20.7 45.9V46L20.6 46.1H20.5C20.3 46.1 20.1 46.3 20 46.4C20 46.4 20 46.4 19.9 46.5L19.8 46.6C19.7 46.6 19.7 46.7 19.7 46.7C19.7 46.7 19.7 46.7 19.6 46.8C19.6 46.8 19.6 46.8 19.5 46.8C19.5 46.8 19.4 46.8 19.4 46.9L19 46.7C18.9 46.7 18.9 46.7 18.9 46.8C18.9 46.8 18.8 46.8 18.8 46.9C18.7 47 18.7 47 18.6 47.1L18.5 47C18.4 47 18.4 47.1 18.4 47.1C18.4 47.1 18.4 47.1 18.3 47.2C18.2 47.3 18.1 47.4 18 47.4C17.8 47.6 17.6 47.7 17.4 47.9H17.3C17 48 17 48.1 17 48.1C17 48.1 16.9 48.1 16.9 48.2C16.7 48.3 16.5 48.4 16.4 48.5C15.9 48.7 15.5 49.1 15.1 49.5C15.1 49.5 15.1 49.5 15 49.5C14.9 49.6 14.8 49.4 14.9 49.4H15C15 49.3 15.1 49.3 15.2 49.2L15.6 48.8C15.5 48.8 15.5 48.9 15.4 48.9C15.3 49 15.1 49.1 15 49.2C14.8 49.3 14.7 49.4 14.5 49.6C14.4 49.7 14.3 49.7 14.3 49.8C14 49.8 14 49.9 13.9 50C13.8 50.1 13.8 50.1 13.7 50.1C13.3 50.2 13 50.5 12.7 50.7C12.6 50.8 12.5 50.9 12.4 50.9C12.3 51 12.2 51.1 12.1 51.2C12 51.2 12 51.3 12 51.3C12 51.3 12 51.3 11.9 51.3H11.8C11.7 51.4 11.7 51.4 11.7 51.5H11.6C11.4 51.6 11.3 51.7 11.2 51.9C11.1 52 11 52.1 10.8 52.2H10.7C10.5 52.3 10.4 52.4 10.3 52.5C10.2 52.6 10.1 52.6 10 52.7C9.9 52.8 9.8 52.8 9.7 52.8C9.5 52.9 9.3 53 9.2 53.2C9.2 53.2 9.2 53.2 9.1 53.3C9.1 53.3 9.1 53.3 9 53.4C8.9 53.5 8.9 53.5 8.8 53.6C8.8 53.6 8.8 53.7 8.7 53.7H8.6C8.1 53.9 7.6 54.1 7.1 54.4C7.1 54.4 7 54.4 7 54.5C7 54.5 6.9 54.5 6.9 54.6C6.8 54.6 6.7 54.7 6.6 54.8C6.4 54.9 6.3 55 6.1 55.1H6C5.8 55.2 5.7 55.2 5.5 55.3H5.2C4.3 55.5 3.3 55.4 2.5 54.9L2.4 54.8C2.4 54.8 2.4 54.8 2.4 54.7C2.4 54.7 2.4 54.7 2.4 54.6H2.3C2.3 54.6 2.2 54.6 2.2 54.5C2.2 54.5 2.2 54.5 2.2 54.4C1.9 54.3 1.8 53.9 1.8 53.6C1.8 53.6 1.8 53.6 1.8 53.5C1.8 53.3 1.7 53.2 1.7 53V52.9C1.6 52.3 1.7 51.6 1.9 51C1.9 50.9 2 50.8 2 50.7C2.1 50.5 2.1 50.3 2.2 50.1C2.2 50 2.3 49.9 2.3 49.8C2.4 49.6 2.5 49.3 2.6 49.1V49C2.7 48.9 2.7 48.7 2.8 48.6L2.9 48.5C3 48.3 3.1 48.1 3.3 47.9V47.8C3.4 47.7 3.5 47.5 3.6 47.4C3.6 47.3 3.7 47.3 3.7 47.2L3.8 47.1C3.8 47 3.9 47 3.9 46.9C4 46.8 4.1 46.7 4.1 46.5V46.4C4.2 46.3 4.2 46.2 4.3 46.1C4.4 46 4.5 45.8 4.6 45.7L4.7 45.6C4.7 45.6 4.7 45.6 4.8 45.6C4.8 45.6 4.8 45.6 4.9 45.6C5 45.4 5.2 45.2 5.3 45C5.4 44.9 5.5 44.7 5.6 44.5C5.6 44.4 5.7 44.4 5.8 44.3C5.6 44.5 5.8 44.3 5.8 44.2ZM19.5 35.6C19.4 35.6 19.3 35.6 19.3 35.7V35.8C19.3 35.8 19.3 35.8 19.3 35.9C19.3 35.9 19.3 35.9 19.4 35.9C19.4 35.9 19.5 35.9 19.5 36C19.5 36 19.5 36.1 19.4 36.1H19.2C19.1 36.2 19.1 36.3 19.1 36.4C19.1 36.4 19.1 36.5 19.2 36.5C19.2 36.5 19.2 36.5 19.2 36.6C19.2 36.6 19.1 36.6 19.1 36.7C19.1 36.8 19.1 36.8 19.1 36.8C19.1 36.8 19.1 36.9 19 36.9C18.9 37 18.9 37.2 18.9 37.3C18.9 37.5 18.9 37.6 18.8 37.6C18.8 37.6 18.8 37.6 18.8 37.7H19C19 37.6 19.1 37.5 19.1 37.4V37.3C19.1 37.2 19.2 37.2 19.2 37.1C19.2 37 19.2 37 19.3 36.9C19.4 36.8 19.4 36.7 19.4 36.6C19.5 36.5 19.5 36.4 19.6 36.4C19.6 36.4 19.7 36.4 19.7 36.3C19.7 36.2 19.8 36.2 19.8 36.1V36C19.8 35.9 19.8 35.9 19.8 35.8C19.6 35.7 19.5 35.7 19.5 35.6ZM37.1 45.7C37 45.7 36.9 45.8 36.8 45.8C36.7 45.8 36.7 45.8 36.7 45.8C36.7 45.8 36.7 45.8 36.7 45.9V46.1C36.7 46.1 36.7 46.2 36.6 46.2C36.5 46.3 36.5 46.3 36.5 46.4C36.4 46.5 36.4 46.6 36.3 46.6L36.4 46.5C36.4 46.5 36.4 46.5 36.5 46.4C36.6 46.4 36.6 46.3 36.7 46.3C36.8 46.2 36.9 46.2 36.9 46.1L37 46C37.2 45.9 37.3 45.8 37.5 45.7C37.6 45.6 37.7 45.6 37.8 45.5C37.8 45.5 37.8 45.4 37.7 45.4C37.4 45.5 37.3 45.6 37.1 45.7ZM37.2 46.8C37.1 46.8 37.1 46.8 37.1 46.8C37 47 36.9 47 36.7 47C36.6 47 36.5 47.1 36.4 47.2C36.4 47.2 36.4 47.2 36.4 47.3C36.4 47.3 36.4 47.3 36.4 47.4C36.4 47.4 36.4 47.4 36.4 47.5V47.7C36.5 47.7 36.6 47.7 36.7 47.7C36.7 47.7 36.8 47.7 36.8 47.6L37 47.5C37.1 47.4 37.2 47.3 37.2 47.3C37.2 47.1 37.2 47 37.2 46.8C37.3 46.9 37.3 46.9 37.2 46.8ZM22.5 47.2C22.4 47.2 22.4 47.3 22.3 47.3C22.3 47.3 22.3 47.4 22.2 47.4C22.2 47.5 22.1 47.5 22.1 47.6C22 47.8 21.8 47.9 21.9 48.1V48.4C21.8 48.6 21.8 48.7 21.7 48.9C21.7 49.1 21.8 49.3 21.8 49.4V49.5C21.9 49.7 22.1 49.8 22.2 49.6L22.4 49.4C22.5 49.4 22.6 49.4 22.7 49.4L22.8 49.5C22.8 49.5 22.8 49.5 22.8 49.4L22.7 49.3C22.6 48.9 22.6 48.8 22.6 48.6C22.6 48.5 22.5 48.4 22.5 48.3C22.4 48.1 22.3 47.9 22.2 47.7C22.2 47.6 22.3 47.5 22.3 47.5V47.4C22.5 47.5 22.6 47.4 22.5 47.2ZM35 48.6C35.1 48.5 35.2 48.5 35.3 48.5L35 48.6ZM35.4 48.6C35.4 48.7 35.4 48.8 35.4 48.9V48.6Z" fill="white"/>
<path d="M49 31L48.8 31.2V31.3C48.8 31.4 48.8 31.5 48.7 31.5C48.7 31.6 48.6 31.6 48.6 31.7C48.6 31.7 48.6 31.8 48.7 31.8H48.8C48.9 31.7 48.9 31.7 48.9 31.6V31.4C48.9 31.4 48.9 31.3 49 31.3C49 31.2 49 31.2 49 31Z" fill="white"/>
<path d="M28.6 37.9C28.6 37.9 28.7 37.8 28.7 37.9C28.7 37.9 28.8 38 28.7 38C28.7 38.1 28.6 38.1 28.6 38.2C28.6 38.2 28.6 38.2 28.5 38.3V38.4C28.5 38.4 28.5 38.4 28.5 38.5C28.5 38.5 28.5 38.5 28.4 38.5C28.4 38.5 28.4 38.6 28.3 38.6C28.3 38.6 28.2 38.6 28.2 38.7H28H27.9C27.9 38.7 27.8 38.7 27.8 38.8C27.8 38.8 27.8 38.9 27.7 38.9C27.6 38.9 27.6 38.8 27.6 38.8C27.6 38.7 27.7 38.7 27.8 38.6C27.8 38.6 27.9 38.5 28 38.6V38.5C28 38.5 28 38.4 28.1 38.4C28.1 38.4 28.2 38.3 28.3 38.3C28.3 38.3 28.3 38.3 28.4 38.3C28.5 38.3 28.5 38.2 28.6 38.2V37.9Z" fill="white"/>
<path d="M7.5 51.4C7.5 51.3 7.5 51.3 7.5 51.4L7.3 51.3C7.3 51.4 7.2 51.4 7.2 51.4V51.5C7.2 51.5 7.2 51.5 7.2 51.6H7.3C7.3 51.6 7.3 51.6 7.4 51.6C7.4 51.6 7.4 51.5 7.3 51.5C7.2 51.5 7.2 51.4 7.3 51.4H7.5C7.5 51.5 7.5 51.5 7.5 51.4Z" fill="white"/>
<path d="M38 46.9C38 46.8 38.1 46.8 38 46.9C38 46.8 38 46.8 38 46.9C37.9 46.9 37.8 46.9 37.7 47H37.6C37.6 47 37.6 47 37.5 47C37.4 47 37.4 47.1 37.4 47.1C37.4 47.1 37.4 47.1 37.4 47.2C37.4 47.2 37.4 47.1 37.5 47.2C37.5 47.2 37.5 47.2 37.6 47.2H37.7L37.8 47.1C37.9 46.9 38 46.9 38 46.9Z" fill="white"/>
<path d="M14 49.8C13.9 49.8 13.9 49.8 14 49.8C13.9 49.8 13.9 49.8 13.9 49.8C13.9 49.8 13.9 49.8 13.8 49.9H13.9C14 50.1 14 50 14 49.8Z" fill="white"/>
<path d="M37.2 47.2C37.1 47.1 37.1 47.1 37.2 47.2H37.1L37 47.3C36.9 47.4 37 47.5 37.1 47.4C37.1 47.3 37.1 47.3 37.2 47.2Z" fill="white"/>
<path d="M19 46.2C19.1 46.1 19 46 18.9 46.1C18.9 46.1 18.9 46.1 18.9 46.2C18.9 46.3 18.9 46.3 19 46.2Z" fill="white"/>
<path d="M33.7 50.4C33.7 50.4 33.7 50.5 33.6 50.5L33.5 50.6C33.5 50.7 33.4 50.7 33.4 50.8L33.3 50.9C33.3 50.9 33.3 50.9 33.2 50.9C33.1 50.9 33.1 51 33.1 51.1C33.1 51.1 33.1 51.2 33.2 51.2C33.3 51.2 33.3 51.1 33.3 51.1C33.3 51.1 33.3 51.1 33.3 51L33.4 50.9C33.4 50.9 33.4 50.9 33.5 50.8L33.6 50.7C33.6 50.7 33.6 50.7 33.7 50.7C33.8 50.6 33.9 50.6 33.9 50.5C34 50.3 34.2 50.2 34.4 50C34.5 49.9 34.7 49.8 34.8 49.6L34.9 49.5L35.1 49.3V49.2H35C34.8 49.3 34.7 49.5 34.5 49.6C34.4 49.6 34.3 49.7 34.3 49.7C34.3 49.7 34.3 49.7 34.3 49.8C34.2 49.8 34.2 49.8 34.1 49.9L33.8 50.1C33.8 50.1 33.8 50.1 33.7 50.1L33.6 50.2C33.6 50.2 33.5 50.2 33.5 50.3C33.5 50.3 33.4 50.3 33.4 50.4C33.4 50.4 33.4 50.4 33.3 50.4C33.1 50.5 33 50.6 32.8 50.7H32.7C32.7 50.7 32.7 50.7 32.7 50.8V50.9L32.6 51C32.5 51.1 32.5 51.1 32.5 51.2C32.5 51.2 32.5 51.2 32.5 51.3C32.6 51.3 32.6 51.3 32.7 51.3C32.8 51.3 32.8 51.2 32.9 51.1C33 51 33 50.9 33.1 50.9C33.2 50.8 33.2 50.8 33.3 50.7C33.4 50.6 33.6 50.5 33.7 50.4Z" fill="white"/>
<path d="M28 40.4C28 40.3 27.9 40.3 27.8 40.3C27.8 40.3 27.8 40.3 27.7 40.3C27.6 40.3 27.6 40.3 27.6 40.4C27.5 40.4 27.5 40.5 27.4 40.7L27.3 40.8C27.2 41 27 41.2 27 41.4C27 41.4 27 41.4 26.9 41.4V41.5C26.8 41.6 26.8 41.7 26.8 41.8V41.9L26.9 41.8C27.1 41.7 27.2 41.6 27.4 41.4L27.5 41.3C27.5 41.3 27.6 41.3 27.6 41.2C27.6 41.1 27.7 41.1 27.7 40.9C27.7 40.8 27.7 40.8 27.8 40.8V40.7L28 40.4Z" fill="white"/>
<path d="M36 48.5C36.1 48.5 36.1 48.6 36 48.5L36.1 48.6C36.1 48.7 36.1 48.7 36 48.8C35.9 48.9 35.9 48.9 35.8 49L35.5 49.3C35.5 49.3 35.5 49.3 35.4 49.3C35.3 49.3 35.3 49.4 35.3 49.4V49.5C35.3 49.6 35.3 49.6 35.2 49.6C35.2 49.6 35.1 49.7 35 49.7C34.8 49.8 34.6 50 34.4 50.2C34.1 50.6 34 50.7 33.9 50.7C33.9 50.7 33.8 50.7 33.8 50.8H33.7C33.7 50.8 33.7 50.8 33.6 50.8C33.6 50.7 33.7 50.6 33.8 50.6L33.9 50.5C34 50.4 34.1 50.3 34.2 50.2C34.3 50.1 34.4 50 34.5 49.9C34.7 49.7 34.9 49.6 35.1 49.4C35.1 49.4 35.1 49.4 35.1 49.3V49.2H35.2C35.2 49.2 35.3 49.2 35.3 49.1C35.4 49 35.5 48.9 35.6 48.8L35.7 48.7C36 48.6 36 48.6 36 48.5Z" fill="white"/>
<path d="M32 51.9V52.1C31.9 52.2 31.8 52.2 31.7 52.3C31.5 52.4 31.3 52.5 31.2 52.6C31.2 52.6 31.1 52.6 31.1 52.7C31.1 52.7 31 52.7 31 52.8C31 52.9 30.8 53 30.7 53.1L30.6 53.2C30.5 53.2 30.5 53.2 30.4 53.2H30.3V53.1C30.3 53 30.4 53 30.4 53C30.4 53 30.4 53 30.5 53C30.7 52.9 30.8 52.8 31 52.7C31.2 52.5 31.5 52.4 31.7 52.3C31.7 52.3 31.8 52.3 31.8 52.2C31.9 51.9 31.9 51.9 32 51.9Z" fill="white"/>
</g>
<defs>
<clipPath id="clip0_686_339">
<rect width="53" height="56" fill="white"/>
</clipPath>
</defs>
</svg>